<svg width="300" height="167" viewBox="0 0 300 167" fill="none" xmlns="http://www.w3.org/2000/svg">
<rect width="300" height="167" rx="10" fill="white"/>
<g clip-path="url(#clip0_604_22556)">
<path d="M39.4591 68.1615H26L26.0298 63.3592C26.0566 59.162 29.1539 56.1453 33.4345 56.1453H68.4937L68.4609 60.9476C68.434 65.1418 65.3368 68.1615 61.0561 68.1615H54.9571L54.8647 95.0111C54.8647 99.1367 51.8122 102.106 47.606 102.106H39.3458L39.4591 68.1615Z" fill="#13B8EC"/>
<path d="M72.178 85.609C71.8799 84.044 71.7371 82.4534 71.7518 80.8603L71.8263 63.216C71.8442 59.1022 74.9444 56.1451 79.231 56.1451H87.3512L87.2617 80.589C87.2329 81.6882 87.3208 82.7874 87.524 83.8681C88.3349 87.9103 90.9522 89.83 94.893 89.83C99.3644 89.83 101.284 87.326 101.314 80.589L101.377 63.207C101.391 59.0933 104.492 56.1332 108.784 56.1332H116.636L116.517 81.5012C116.46 94.9811 109.55 102.106 95.4325 102.106C82.9691 102.106 74.1872 95.6876 72.178 85.609Z" fill="#13B8EC"/>
<path d="M175.561 56.1451L175.51 94.85C175.51 99.068 172.404 102.106 168.106 102.106H161.384L161.354 81.1614L153.383 95.0527C152.327 96.8919 150.348 97.971 148.017 97.971H144.881L134.549 81.4237L134.492 94.8738C134.474 99.0799 131.377 102.106 127.088 102.106H120.348L120.506 63.3769C120.524 59.1708 123.624 56.1451 127.913 56.1451H133.145L147.907 80.5711L160.337 59.5613C161.619 57.3971 163.974 56.1332 166.731 56.1332L175.561 56.1451Z" fill="#13B8EC"/>
<path d="M238.298 82.0079C239.78 83.5039 241.653 84.5516 243.703 85.0306C245.679 85.5638 247.769 85.5005 249.709 84.8488L245.921 76.0967C245.348 76.2634 244.788 76.4706 244.245 76.7167C240.916 78.2162 239.193 80.3923 238.298 82.0079Z" fill="#13B8EC"/>
<path d="M230.646 58.4078L230.467 58.6523C229.794 59.5465 227.638 62.8405 228.679 67.7829C229.785 72.9728 233.013 75.134 234.119 75.8107L234.179 75.8465C235.6 76.389 239.082 77.3995 243.616 75.3516C244.169 75.1037 244.702 74.8168 245.214 74.4931L237.27 56.1453H231.666C231.466 56.9551 231.12 57.7218 230.646 58.4078V58.4078Z" fill="#13B8EC"/>
<path d="M253.841 94.4893C253.047 94.2877 252.304 93.9248 251.656 93.4233C251.009 92.9217 250.472 92.2921 250.079 91.5739C250.079 91.5739 248.511 87.6152 243.387 86.3095C238.811 85.1469 235.812 86.8669 234.837 87.481L234.304 87.8179C233.809 88.0863 233.281 88.2868 232.733 88.4141C231.638 88.6928 230.491 88.6928 229.397 88.4141C228.876 88.3284 228.367 88.1782 227.883 87.9669V87.9669L227.674 87.8745C226.705 87.4452 223.176 85.9101 218.32 87.9639C213.1 90.1669 212.06 94.6115 212.06 94.6115C211.771 95.4137 211.326 96.1504 210.75 96.7787C210.174 97.4071 209.479 97.9144 208.704 98.2711C207.93 98.6279 207.093 98.8269 206.241 98.8566C205.389 98.8863 204.54 98.746 203.742 98.444C202.945 98.142 202.216 97.6843 201.598 97.0976C200.979 96.5109 200.484 95.8069 200.141 95.0267C199.797 94.2466 199.612 93.4058 199.597 92.5535C199.582 91.7012 199.737 90.8544 200.052 90.0625H194.916L195.032 56.1183H186.903C182.617 56.1183 179.517 59.144 179.499 63.3501L179.338 102.079L201.775 102.055V102.079H214.108C216.594 102.079 218.63 100.749 219.444 98.5941L221.149 94.0958H238.68L238.942 94.7784C240.576 99.0293 244.904 102.106 249.217 102.106H257.189L253.909 94.5012L253.841 94.4893Z" fill="#13B8EC"/>
<path d="M227.233 68.0928C226.321 63.7973 223.692 61.6182 222.38 60.7746C222.137 60.6148 221.887 60.4675 221.629 60.3334C221.262 60.1101 220.917 59.8537 220.597 59.5673C220.454 59.806 220.325 60.0528 220.21 60.3065L208.635 86.539C208.635 86.539 208.855 86.6613 209.258 86.8371C210.557 87.3916 213.774 88.3723 217.759 86.6911C222.416 84.7207 223.862 81.3253 224.297 80.1568C224.347 80.0167 224.392 79.8945 224.419 79.8289C224.419 79.8289 224.467 79.7067 224.535 79.5308C224.535 79.498 224.568 79.4652 224.583 79.4294C224.775 78.9092 225.03 78.4146 225.343 77.9568V77.9568C225.37 77.9181 225.43 77.8287 225.477 77.7631C226.109 76.8509 228.393 73.5033 227.233 68.0928Z" fill="#13B8EC"/>
<path d="M274.72 87.4633C273.897 83.2631 271.059 80.1778 266.785 78.4697C271.417 76.3025 273.811 72.4273 272.767 67.1093C271.405 60.1487 265.038 56.1453 254.139 56.1453H240.886L247.909 72.1799C248.617 71.3505 249.196 70.4201 249.629 69.4195C249.806 69.027 249.951 68.6214 250.064 68.2062C250.504 66.9195 251.32 65.7947 252.407 64.978C253.494 64.1612 254.802 63.6902 256.16 63.6262C257.518 63.5622 258.864 63.9081 260.023 64.619C261.182 65.3299 262.101 66.3729 262.659 67.6126C263.218 68.8522 263.391 70.2312 263.156 71.5704C262.92 72.9096 262.288 74.1471 261.34 75.1221C260.392 76.0971 259.173 76.7646 257.841 77.0378C256.509 77.3111 255.126 77.1774 253.871 76.6543C252.489 75.9678 250.967 75.6107 249.423 75.611L252.774 83.2571C253.498 82.916 254.284 82.7235 255.084 82.691C255.884 82.6585 256.682 82.7867 257.432 83.068C258.181 83.3492 258.867 83.7779 259.448 84.3286C260.029 84.8793 260.494 85.5409 260.815 86.2743C261.137 87.0077 261.308 87.798 261.318 88.5986C261.329 89.3992 261.179 90.1937 260.877 90.9354C260.575 91.677 260.128 92.3507 259.562 92.9166C258.995 93.4824 258.321 93.9291 257.579 94.2301L260.906 101.829C270.147 100.729 276.431 96.2064 274.72 87.4633Z" fill="#13B8EC"/>
<path d="M230.995 85.4749C232.976 85.4749 234.581 83.8694 234.581 81.8888C234.581 79.9083 232.976 78.3027 230.995 78.3027C229.014 78.3027 227.409 79.9083 227.409 81.8888C227.409 83.8694 229.014 85.4749 230.995 85.4749Z" fill="#13B8EC"/>
<path d="M206.029 95.9886C208.01 95.9886 209.616 94.3831 209.616 92.4025C209.616 90.422 208.01 88.8164 206.029 88.8164C204.049 88.8164 202.443 90.422 202.443 92.4025C202.443 94.3831 204.049 95.9886 206.029 95.9886Z" fill="#13B8EC"/>
<path d="M256.491 74.0101C258.472 74.0101 260.077 72.4045 260.077 70.424C260.077 68.4434 258.472 66.8379 256.491 66.8379C254.511 66.8379 252.905 68.4434 252.905 70.424C252.905 72.4045 254.511 74.0101 256.491 74.0101Z" fill="#13B8EC"/>
<path d="M225.072 58.1722C227.052 58.1722 228.658 56.5666 228.658 54.5861C228.658 52.6056 227.052 51 225.072 51C223.091 51 221.486 52.6056 221.486 54.5861C221.486 56.5666 223.091 58.1722 225.072 58.1722Z" fill="#13B8EC"/>
<path d="M255.347 91.9883C257.192 91.9883 258.688 90.4921 258.688 88.6466C258.688 86.801 257.192 85.3049 255.347 85.3049C253.501 85.3049 252.005 86.801 252.005 88.6466C252.005 90.4921 253.501 91.9883 255.347 91.9883Z" fill="#13B8EC"/>
</g>
<path d="M79.0976 113.208C78.5531 113.208 78.0318 113.132 77.5338 112.979C77.0358 112.82 76.6408 112.617 76.3486 112.372L76.7968 111.366C77.0757 111.585 77.421 111.767 77.8326 111.913C78.2443 112.06 78.666 112.133 79.0976 112.133C79.4628 112.133 79.7582 112.093 79.984 112.013C80.2098 111.933 80.3758 111.827 80.482 111.694C80.5882 111.555 80.6414 111.399 80.6414 111.226C80.6414 111.014 80.565 110.844 80.4123 110.718C80.2596 110.585 80.0604 110.483 79.8147 110.409C79.5756 110.33 79.3067 110.257 79.0079 110.19C78.7158 110.124 78.4203 110.048 78.1215 109.961C77.8293 109.868 77.5604 109.752 77.3147 109.613C77.0757 109.467 76.8798 109.274 76.7271 109.035C76.5744 108.796 76.498 108.491 76.498 108.119C76.498 107.74 76.5976 107.395 76.7968 107.083C77.0026 106.764 77.3114 106.512 77.7231 106.326C78.1414 106.133 78.6693 106.037 79.3067 106.037C79.725 106.037 80.14 106.09 80.5517 106.196C80.9634 106.303 81.322 106.455 81.6274 106.655L81.219 107.661C80.907 107.475 80.5849 107.338 80.2529 107.252C79.9209 107.159 79.6022 107.113 79.2968 107.113C78.9382 107.113 78.646 107.156 78.4203 107.242C78.2012 107.329 78.0385 107.441 77.9322 107.581C77.8326 107.72 77.7828 107.88 77.7828 108.059C77.7828 108.271 77.8559 108.444 78.002 108.577C78.1547 108.703 78.3506 108.803 78.5896 108.876C78.8353 108.949 79.1075 109.022 79.4063 109.095C79.7051 109.161 80.0006 109.238 80.2928 109.324C80.5916 109.41 80.8605 109.523 81.0995 109.662C81.3452 109.802 81.5411 109.991 81.6872 110.23C81.8399 110.469 81.9162 110.771 81.9162 111.137C81.9162 111.508 81.8133 111.854 81.6075 112.172C81.4083 112.484 81.0995 112.737 80.6812 112.929C80.2629 113.115 79.735 113.208 79.0976 113.208ZM84.313 113.109V107.79H85.558V113.109H84.313ZM84.9405 106.914C84.7081 106.914 84.5155 106.84 84.3628 106.694C84.2167 106.548 84.1437 106.372 84.1437 106.167C84.1437 105.954 84.2167 105.778 84.3628 105.639C84.5155 105.493 84.7081 105.42 84.9405 105.42C85.1729 105.42 85.3621 105.489 85.5082 105.629C85.6609 105.761 85.7373 105.931 85.7373 106.137C85.7373 106.356 85.6642 106.542 85.5182 106.694C85.3721 106.84 85.1795 106.914 84.9405 106.914ZM90.0678 113.178C89.6229 113.178 89.1947 113.122 88.783 113.009C88.3779 112.89 88.0559 112.747 87.8169 112.581L88.2949 111.635C88.534 111.787 88.8195 111.913 89.1515 112.013C89.4835 112.113 89.8155 112.162 90.1475 112.162C90.5393 112.162 90.8215 112.109 90.9941 112.003C91.1734 111.897 91.263 111.754 91.263 111.575C91.263 111.429 91.2033 111.319 91.0837 111.246C90.9642 111.166 90.8082 111.107 90.6156 111.067C90.4231 111.027 90.2073 110.99 89.9682 110.957C89.7358 110.924 89.5001 110.881 89.2611 110.828C89.0287 110.768 88.8162 110.685 88.6236 110.579C88.4311 110.466 88.275 110.317 88.1555 110.131C88.036 109.945 87.9762 109.699 87.9762 109.394C87.9762 109.055 88.0725 108.763 88.2651 108.517C88.4576 108.265 88.7265 108.072 89.0718 107.939C89.4237 107.8 89.8387 107.73 90.3168 107.73C90.6754 107.73 91.0373 107.77 91.4025 107.85C91.7677 107.929 92.0698 108.042 92.3088 108.188L91.8307 109.135C91.5784 108.982 91.3228 108.879 91.0638 108.826C90.8115 108.766 90.5592 108.736 90.3069 108.736C89.9284 108.736 89.6462 108.793 89.4603 108.906C89.281 109.018 89.1913 109.161 89.1913 109.334C89.1913 109.493 89.2511 109.613 89.3706 109.692C89.4901 109.772 89.6462 109.835 89.8387 109.882C90.0313 109.928 90.2438 109.968 90.4762 110.001C90.7152 110.028 90.9509 110.071 91.1833 110.131C91.4157 110.19 91.6282 110.273 91.8208 110.38C92.02 110.479 92.1793 110.622 92.2989 110.808C92.4184 110.994 92.4781 111.236 92.4781 111.535C92.4781 111.867 92.3785 112.156 92.1793 112.401C91.9868 112.647 91.7112 112.84 91.3527 112.979C90.9941 113.112 90.5658 113.178 90.0678 113.178ZM96.7847 113.178C96.2003 113.178 95.7488 113.029 95.4301 112.73C95.1114 112.425 94.952 111.977 94.952 111.386V106.615H96.197V111.356C96.197 111.608 96.2601 111.804 96.3863 111.943C96.5191 112.083 96.7017 112.152 96.9341 112.152C97.2129 112.152 97.4453 112.079 97.6313 111.933L97.9799 112.82C97.8338 112.939 97.6545 113.029 97.442 113.089C97.2295 113.148 97.0104 113.178 96.7847 113.178ZM94.0755 108.826V107.83H97.6213V108.826H94.0755ZM102.561 113.178C101.97 113.178 101.452 113.062 101.008 112.83C100.569 112.591 100.227 112.265 99.9816 111.854C99.7426 111.442 99.6231 110.974 99.6231 110.449C99.6231 109.918 99.7393 109.45 99.9717 109.045C100.211 108.633 100.536 108.311 100.948 108.079C101.366 107.846 101.841 107.73 102.372 107.73C102.89 107.73 103.351 107.843 103.756 108.069C104.162 108.295 104.48 108.613 104.713 109.025C104.945 109.437 105.061 109.921 105.061 110.479C105.061 110.532 105.058 110.592 105.051 110.658C105.051 110.725 105.048 110.788 105.041 110.848H100.609V110.021H104.384L103.896 110.28C103.903 109.975 103.839 109.706 103.707 109.473C103.574 109.241 103.391 109.058 103.159 108.925C102.933 108.793 102.671 108.726 102.372 108.726C102.067 108.726 101.798 108.793 101.565 108.925C101.34 109.058 101.16 109.244 101.027 109.483C100.901 109.716 100.838 109.991 100.838 110.31V110.509C100.838 110.828 100.911 111.11 101.057 111.356C101.203 111.601 101.409 111.791 101.675 111.923C101.94 112.056 102.246 112.123 102.591 112.123C102.89 112.123 103.159 112.076 103.398 111.983C103.637 111.89 103.849 111.744 104.035 111.545L104.703 112.312C104.464 112.591 104.162 112.807 103.796 112.959C103.438 113.105 103.026 113.178 102.561 113.178ZM114.203 107.73C114.628 107.73 115.003 107.813 115.328 107.979C115.66 108.145 115.919 108.401 116.105 108.746C116.291 109.085 116.384 109.523 116.384 110.061V113.109H115.139V110.22C115.139 109.749 115.036 109.397 114.83 109.164C114.624 108.932 114.329 108.816 113.944 108.816C113.671 108.816 113.429 108.876 113.217 108.995C113.011 109.115 112.848 109.291 112.728 109.523C112.616 109.755 112.559 110.051 112.559 110.409V113.109H111.314V110.22C111.314 109.749 111.211 109.397 111.005 109.164C110.8 108.932 110.504 108.816 110.119 108.816C109.847 108.816 109.604 108.876 109.392 108.995C109.186 109.115 109.023 109.291 108.904 109.523C108.791 109.755 108.735 110.051 108.735 110.409V113.109H107.49V107.79H108.675V109.204L108.466 108.786C108.645 108.441 108.904 108.178 109.242 107.999C109.588 107.82 109.98 107.73 110.418 107.73C110.916 107.73 111.347 107.853 111.713 108.099C112.084 108.344 112.33 108.716 112.45 109.214L111.962 109.045C112.134 108.647 112.42 108.328 112.818 108.089C113.217 107.85 113.678 107.73 114.203 107.73ZM122.484 113.109V112.033L122.414 111.804V109.921C122.414 109.556 122.305 109.274 122.086 109.075C121.866 108.869 121.534 108.766 121.09 108.766C120.791 108.766 120.495 108.813 120.203 108.906C119.918 108.998 119.675 109.128 119.476 109.294L118.988 108.388C119.274 108.168 119.612 108.006 120.004 107.9C120.402 107.787 120.814 107.73 121.239 107.73C122.009 107.73 122.603 107.916 123.022 108.288C123.447 108.653 123.659 109.221 123.659 109.991V113.109H122.484ZM120.811 113.178C120.412 113.178 120.064 113.112 119.765 112.979C119.466 112.84 119.234 112.65 119.068 112.411C118.908 112.166 118.829 111.89 118.829 111.585C118.829 111.286 118.898 111.017 119.038 110.778C119.184 110.539 119.42 110.35 119.745 110.21C120.07 110.071 120.502 110.001 121.04 110.001H122.584V110.828H121.129C120.704 110.828 120.419 110.898 120.273 111.037C120.127 111.17 120.054 111.336 120.054 111.535C120.054 111.761 120.143 111.94 120.323 112.073C120.502 112.206 120.751 112.272 121.07 112.272C121.375 112.272 121.647 112.202 121.886 112.063C122.132 111.923 122.308 111.718 122.414 111.445L122.623 112.192C122.504 112.504 122.288 112.747 121.976 112.919C121.671 113.092 121.282 113.178 120.811 113.178ZM132.725 113.178C132.214 113.178 131.753 113.065 131.341 112.84C130.936 112.607 130.617 112.289 130.385 111.884C130.152 111.479 130.036 111 130.036 110.449C130.036 109.898 130.152 109.42 130.385 109.015C130.617 108.61 130.936 108.295 131.341 108.069C131.753 107.843 132.214 107.73 132.725 107.73C133.17 107.73 133.569 107.83 133.921 108.029C134.272 108.222 134.551 108.517 134.757 108.915C134.963 109.314 135.066 109.825 135.066 110.449C135.066 111.067 134.966 111.578 134.767 111.983C134.568 112.382 134.292 112.68 133.94 112.88C133.589 113.079 133.184 113.178 132.725 113.178ZM132.875 112.113C133.174 112.113 133.439 112.046 133.672 111.913C133.911 111.781 134.1 111.588 134.239 111.336C134.385 111.083 134.458 110.788 134.458 110.449C134.458 110.104 134.385 109.809 134.239 109.563C134.1 109.311 133.911 109.118 133.672 108.985C133.439 108.852 133.174 108.786 132.875 108.786C132.576 108.786 132.307 108.852 132.068 108.985C131.836 109.118 131.646 109.311 131.5 109.563C131.361 109.809 131.291 110.104 131.291 110.449C131.291 110.788 131.361 111.083 131.5 111.336C131.646 111.588 131.836 111.781 132.068 111.913C132.307 112.046 132.576 112.113 132.875 112.113ZM134.488 113.109V111.854L134.538 110.439L134.438 109.025V105.718H135.674V113.109H134.488ZM141.044 113.178C140.454 113.178 139.936 113.062 139.491 112.83C139.052 112.591 138.711 112.265 138.465 111.854C138.226 111.442 138.106 110.974 138.106 110.449C138.106 109.918 138.222 109.45 138.455 109.045C138.694 108.633 139.019 108.311 139.431 108.079C139.849 107.846 140.324 107.73 140.855 107.73C141.373 107.73 141.835 107.843 142.24 108.069C142.645 108.295 142.963 108.613 143.196 109.025C143.428 109.437 143.544 109.921 143.544 110.479C143.544 110.532 143.541 110.592 143.534 110.658C143.534 110.725 143.531 110.788 143.525 110.848H139.092V110.021H142.867L142.379 110.28C142.386 109.975 142.323 109.706 142.19 109.473C142.057 109.241 141.874 109.058 141.642 108.925C141.416 108.793 141.154 108.726 140.855 108.726C140.55 108.726 140.281 108.793 140.048 108.925C139.823 109.058 139.643 109.244 139.511 109.483C139.384 109.716 139.321 109.991 139.321 110.31V110.509C139.321 110.828 139.394 111.11 139.541 111.356C139.687 111.601 139.892 111.791 140.158 111.923C140.424 112.056 140.729 112.123 141.074 112.123C141.373 112.123 141.642 112.076 141.881 111.983C142.12 111.89 142.333 111.744 142.519 111.545L143.186 112.312C142.947 112.591 142.645 112.807 142.28 112.959C141.921 113.105 141.509 113.178 141.044 113.178ZM150.077 113.109V106.137H151.372V113.109H150.077ZM157.389 107.73C157.814 107.73 158.192 107.813 158.524 107.979C158.863 108.145 159.128 108.401 159.321 108.746C159.513 109.085 159.61 109.523 159.61 110.061V113.109H158.365V110.22C158.365 109.749 158.252 109.397 158.026 109.164C157.807 108.932 157.498 108.816 157.1 108.816C156.808 108.816 156.549 108.876 156.323 108.995C156.097 109.115 155.921 109.294 155.795 109.533C155.675 109.765 155.616 110.061 155.616 110.419V113.109H154.371V107.79H155.556V109.224L155.347 108.786C155.533 108.447 155.802 108.188 156.153 108.009C156.512 107.823 156.924 107.73 157.389 107.73ZM162.591 113.109V107.491C162.591 106.933 162.753 106.489 163.079 106.157C163.411 105.818 163.882 105.649 164.493 105.649C164.712 105.649 164.918 105.672 165.111 105.718C165.31 105.765 165.476 105.838 165.609 105.937L165.27 106.874C165.177 106.801 165.071 106.748 164.951 106.714C164.832 106.674 164.709 106.655 164.583 106.655C164.324 106.655 164.128 106.728 163.995 106.874C163.862 107.013 163.796 107.226 163.796 107.511V108.109L163.836 108.666V113.109H162.591ZM161.714 108.826V107.83H165.26V108.826H161.714ZM169.643 113.178C169.098 113.178 168.614 113.062 168.189 112.83C167.764 112.591 167.429 112.265 167.183 111.854C166.937 111.442 166.814 110.974 166.814 110.449C166.814 109.918 166.937 109.45 167.183 109.045C167.429 108.633 167.764 108.311 168.189 108.079C168.614 107.846 169.098 107.73 169.643 107.73C170.194 107.73 170.682 107.846 171.107 108.079C171.539 108.311 171.874 108.63 172.113 109.035C172.359 109.44 172.482 109.911 172.482 110.449C172.482 110.974 172.359 111.442 172.113 111.854C171.874 112.265 171.539 112.591 171.107 112.83C170.682 113.062 170.194 113.178 169.643 113.178ZM169.643 112.113C169.948 112.113 170.221 112.046 170.46 111.913C170.699 111.781 170.885 111.588 171.017 111.336C171.157 111.083 171.227 110.788 171.227 110.449C171.227 110.104 171.157 109.809 171.017 109.563C170.885 109.311 170.699 109.118 170.46 108.985C170.221 108.852 169.952 108.786 169.653 108.786C169.347 108.786 169.075 108.852 168.836 108.985C168.604 109.118 168.418 109.311 168.278 109.563C168.139 109.809 168.069 110.104 168.069 110.449C168.069 110.788 168.139 111.083 168.278 111.336C168.418 111.588 168.604 111.781 168.836 111.913C169.075 112.046 169.344 112.113 169.643 112.113ZM174.904 113.109V107.79H176.09V109.254L175.95 108.826C176.11 108.467 176.359 108.195 176.697 108.009C177.043 107.823 177.471 107.73 177.982 107.73V108.915C177.929 108.902 177.879 108.896 177.833 108.896C177.786 108.889 177.74 108.886 177.693 108.886C177.222 108.886 176.847 109.025 176.568 109.304C176.289 109.576 176.149 109.985 176.149 110.529V113.109H174.904ZM186.984 107.73C187.409 107.73 187.784 107.813 188.109 107.979C188.441 108.145 188.7 108.401 188.886 108.746C189.072 109.085 189.165 109.523 189.165 110.061V113.109H187.92V110.22C187.92 109.749 187.817 109.397 187.611 109.164C187.405 108.932 187.11 108.816 186.725 108.816C186.452 108.816 186.21 108.876 185.998 108.995C185.792 109.115 185.629 109.291 185.51 109.523C185.397 109.755 185.34 110.051 185.34 110.409V113.109H184.095V110.22C184.095 109.749 183.992 109.397 183.786 109.164C183.581 108.932 183.285 108.816 182.9 108.816C182.628 108.816 182.385 108.876 182.173 108.995C181.967 109.115 181.804 109.291 181.685 109.523C181.572 109.755 181.516 110.051 181.516 110.409V113.109H180.271V107.79H181.456V109.204L181.247 108.786C181.426 108.441 181.685 108.178 182.024 107.999C182.369 107.82 182.761 107.73 183.199 107.73C183.697 107.73 184.128 107.853 184.494 108.099C184.865 108.344 185.111 108.716 185.231 109.214L184.743 109.045C184.915 108.647 185.201 108.328 185.599 108.089C185.998 107.85 186.459 107.73 186.984 107.73ZM195.265 113.109V112.033L195.195 111.804V109.921C195.195 109.556 195.086 109.274 194.867 109.075C194.648 108.869 194.316 108.766 193.871 108.766C193.572 108.766 193.276 108.813 192.984 108.906C192.699 108.998 192.456 109.128 192.257 109.294L191.769 108.388C192.055 108.168 192.393 108.006 192.785 107.9C193.183 107.787 193.595 107.73 194.02 107.73C194.79 107.73 195.385 107.916 195.803 108.288C196.228 108.653 196.44 109.221 196.44 109.991V113.109H195.265ZM193.592 113.178C193.193 113.178 192.845 113.112 192.546 112.979C192.247 112.84 192.015 112.65 191.849 112.411C191.689 112.166 191.61 111.89 191.61 111.585C191.61 111.286 191.679 111.017 191.819 110.778C191.965 110.539 192.201 110.35 192.526 110.21C192.851 110.071 193.283 110.001 193.821 110.001H195.365V110.828H193.91C193.486 110.828 193.2 110.898 193.054 111.037C192.908 111.17 192.835 111.336 192.835 111.535C192.835 111.761 192.924 111.94 193.104 112.073C193.283 112.206 193.532 112.272 193.851 112.272C194.156 112.272 194.428 112.202 194.667 112.063C194.913 111.923 195.089 111.718 195.195 111.445L195.404 112.192C195.285 112.504 195.069 112.747 194.757 112.919C194.452 113.092 194.063 113.178 193.592 113.178ZM201.72 113.178C201.163 113.178 200.665 113.062 200.226 112.83C199.795 112.591 199.456 112.265 199.211 111.854C198.965 111.442 198.842 110.974 198.842 110.449C198.842 109.918 198.965 109.45 199.211 109.045C199.456 108.633 199.795 108.311 200.226 108.079C200.665 107.846 201.163 107.73 201.72 107.73C202.238 107.73 202.693 107.836 203.085 108.049C203.483 108.255 203.785 108.56 203.991 108.965L203.035 109.523C202.876 109.271 202.68 109.085 202.448 108.965C202.222 108.846 201.976 108.786 201.71 108.786C201.405 108.786 201.129 108.852 200.884 108.985C200.638 109.118 200.446 109.311 200.306 109.563C200.167 109.809 200.097 110.104 200.097 110.449C200.097 110.795 200.167 111.093 200.306 111.346C200.446 111.591 200.638 111.781 200.884 111.913C201.129 112.046 201.405 112.113 201.71 112.113C201.976 112.113 202.222 112.053 202.448 111.933C202.68 111.814 202.876 111.628 203.035 111.376L203.991 111.933C203.785 112.332 203.483 112.641 203.085 112.86C202.693 113.072 202.238 113.178 201.72 113.178ZM206.251 113.109V107.79H207.496V113.109H206.251ZM206.879 106.914C206.646 106.914 206.454 106.84 206.301 106.694C206.155 106.548 206.082 106.372 206.082 106.167C206.082 105.954 206.155 105.778 206.301 105.639C206.454 105.493 206.646 105.42 206.879 105.42C207.111 105.42 207.3 105.489 207.446 105.629C207.599 105.761 207.676 105.931 207.676 106.137C207.676 106.356 207.603 106.542 207.456 106.694C207.31 106.84 207.118 106.914 206.879 106.914ZM212.753 113.178C212.209 113.178 211.724 113.062 211.299 112.83C210.874 112.591 210.539 112.265 210.293 111.854C210.047 111.442 209.924 110.974 209.924 110.449C209.924 109.918 210.047 109.45 210.293 109.045C210.539 108.633 210.874 108.311 211.299 108.079C211.724 107.846 212.209 107.73 212.753 107.73C213.304 107.73 213.792 107.846 214.217 108.079C214.649 108.311 214.984 108.63 215.223 109.035C215.469 109.44 215.592 109.911 215.592 110.449C215.592 110.974 215.469 111.442 215.223 111.854C214.984 112.265 214.649 112.591 214.217 112.83C213.792 113.062 213.304 113.178 212.753 113.178ZM212.753 112.113C213.059 112.113 213.331 112.046 213.57 111.913C213.809 111.781 213.995 111.588 214.128 111.336C214.267 111.083 214.337 110.788 214.337 110.449C214.337 110.104 214.267 109.809 214.128 109.563C213.995 109.311 213.809 109.118 213.57 108.985C213.331 108.852 213.062 108.786 212.763 108.786C212.458 108.786 212.185 108.852 211.946 108.985C211.714 109.118 211.528 109.311 211.389 109.563C211.249 109.809 211.179 110.104 211.179 110.449C211.179 110.788 211.249 111.083 211.389 111.336C211.528 111.588 211.714 111.781 211.946 111.913C212.185 112.046 212.454 112.113 212.753 112.113ZM211.906 107.063L213.251 105.698H214.715L212.982 107.063H211.906ZM221.032 107.73C221.457 107.73 221.836 107.813 222.168 107.979C222.507 108.145 222.772 108.401 222.965 108.746C223.157 109.085 223.254 109.523 223.254 110.061V113.109H222.009V110.22C222.009 109.749 221.896 109.397 221.67 109.164C221.451 108.932 221.142 108.816 220.744 108.816C220.451 108.816 220.193 108.876 219.967 108.995C219.741 109.115 219.565 109.294 219.439 109.533C219.319 109.765 219.26 110.061 219.26 110.419V113.109H218.015V107.79H219.2V109.224L218.991 108.786C219.177 108.447 219.446 108.188 219.797 108.009C220.156 107.823 220.568 107.73 221.032 107.73Z" fill="#13B8EC"/>
<defs>
<clipPath id="clip0_604_22556">
<rect width="249" height="51.1086" fill="white" transform="translate(26 51)"/>
</clipPath>
</defs>
</svg>
