<svg width="542" height="149" viewBox="0 0 542 149" fill="none" xmlns="http://www.w3.org/2000/svg">
<g clip-path="url(#clip0_606_24156)">
<path d="M503.569 41.4374C508.58 41.4374 508.587 33.6581 503.569 33.6581C498.552 33.6581 498.558 41.4374 503.569 41.4374Z" fill="white"/>
<path d="M540.89 86.194C539.101 77.0599 532.929 70.3503 523.633 66.6357C533.707 61.9228 538.913 53.4953 536.644 41.9302C533.681 26.7931 519.834 18.0868 496.134 18.0868H467.312L510.823 117.441C530.946 115.042 544.611 105.208 540.89 86.194Z" fill="#13B8EC"/>
<path d="M29.2694 44.2186H0L0.064826 33.7749C0.12317 24.6473 6.85869 18.0868 16.1679 18.0868H92.4109L92.3396 28.5499C92.2813 37.671 85.5457 44.238 76.2366 44.238H62.973L62.772 102.628C62.772 111.6 56.1337 118.057 46.9866 118.057H29.0231L29.2694 44.2186Z" fill="url(#paint0_linear_606_24156)"/>
<path d="M100.424 82.1617C99.7755 78.7584 99.4649 75.2993 99.4969 71.8348L99.6589 33.4637C99.6978 24.5175 106.44 18.0867 115.762 18.0867H133.421L133.226 71.2449C133.164 73.6353 133.355 76.0257 133.797 78.3758C135.56 87.1664 141.252 91.3412 149.822 91.3412C159.546 91.3412 163.721 85.8958 163.786 71.2449L163.922 33.4442C163.954 24.4981 170.696 18.0608 180.031 18.0608H197.107L196.848 73.2286C196.724 102.543 181.698 118.037 150.995 118.037C123.891 118.011 104.793 104.08 100.424 82.1617Z" fill="url(#paint1_linear_606_24156)"/>
<path d="M325.25 18.0868L325.14 102.258C325.14 111.431 318.385 118.037 309.037 118.037H294.419L294.354 72.4896L277.019 102.699C274.724 106.699 270.42 109.046 265.35 109.046H258.53L236.061 73.0601L235.938 102.31C235.899 111.457 229.164 118.037 219.835 118.037H205.178L205.521 33.8138C205.56 24.6667 212.302 18.0868 221.631 18.0868H233.008L265.11 71.206L292.143 25.5419C294.931 20.8355 300.052 18.0868 306.049 18.0868H325.25Z" fill="url(#paint2_linear_606_24156)"/>
<path d="M459.475 18.0868H437.077C430.393 18.0868 424.838 21.4967 422.348 27.1626L393.766 91.9313H367.342L367.595 18.1127H349.917C340.595 18.1127 333.853 24.6927 333.814 33.8398L333.464 118.011H382.253V118.063H409.072C414.478 118.063 418.906 115.172 420.676 110.485L424.39 100.618H462.515L463.085 102.103C466.638 111.347 476.051 118.037 485.431 118.037H502.766L459.475 18.0868Z" fill="#13B8EC"/>
<path d="M429.953 0.324111C427.074 0.928042 424.444 2.38533 422.405 4.50598C420.367 6.62662 419.015 9.31223 418.525 12.2127C418.035 15.1132 418.43 18.094 419.659 20.7664C420.888 23.4389 422.894 25.6791 425.415 27.1949C425.976 27.4867 426.521 27.8069 427.049 28.1544C429.901 29.989 435.619 34.7278 437.603 44.0694C440.124 55.8355 435.159 63.0832 433.784 65.0734L433.492 65.4947C432.403 67.0898 431.641 68.8852 431.25 70.777C430.86 72.6687 430.848 74.6192 431.217 76.5153C431.217 76.6255 431.217 76.7357 431.262 76.8459C431.403 77.4115 431.579 77.9679 431.788 78.512C431.924 78.8945 432.021 79.2964 432.183 79.6659C432.345 80.0354 432.63 80.4892 432.864 80.9041C433.097 81.319 433.317 81.7533 433.596 82.1423C433.851 82.4872 434.123 82.8183 434.413 83.1341C434.744 83.5231 435.061 83.9185 435.424 84.2686C435.787 84.6187 436.034 84.7807 436.345 85.0336C436.745 85.3732 437.162 85.6913 437.596 85.9865C437.966 86.2264 438.361 86.4144 438.743 86.6348C439.212 86.8995 439.694 87.1376 440.189 87.3479C440.5 87.4775 440.837 87.5553 441.155 87.6591C441.762 87.8669 442.381 88.0358 443.009 88.1647C443.229 88.2036 443.463 88.2036 443.657 88.236C444.411 88.3465 445.171 88.3986 445.933 88.3916C446.049 88.3916 446.166 88.3592 446.283 88.3592C447.173 88.3218 448.058 88.2046 448.928 88.0091C451.929 87.2992 454.627 85.6559 456.636 83.3156C458.001 81.7662 459.02 79.944 459.627 77.9701C460.233 75.9962 460.413 73.9159 460.154 71.8673C459.894 69.8187 459.202 67.8488 458.123 66.0884C457.043 64.3279 455.602 62.8173 453.894 61.657L453.245 61.2615L452.565 60.8466C450.16 59.375 443.139 54.6751 440.734 43.3887C438.445 32.6404 443.132 25.4511 444.623 23.5322L445.012 23.0006C446.696 20.5892 447.615 17.7264 447.649 14.7853C447.682 11.8442 446.829 8.96124 445.2 6.51221C443.571 4.06319 441.242 2.1617 438.516 1.05559C435.791 -0.0505183 432.796 -0.309933 429.921 0.311153L429.953 0.324111Z" fill="white"/>
<path d="M514.604 43.0192C513.393 40.325 511.399 38.0577 508.882 36.5125C506.365 34.9672 503.44 34.2156 500.49 34.3555C497.54 34.4954 494.7 35.5203 492.34 37.2968C489.98 39.0733 488.21 41.5191 487.26 44.3158C487.018 45.2248 486.706 46.1135 486.326 46.9737C484.867 50.3836 481.315 56.2569 473.276 59.8743C462.256 64.853 454.088 61.5209 451.845 60.5873L451.365 60.3929C449.565 59.663 447.639 59.297 445.698 59.3159C443.756 59.3348 441.837 59.7383 440.052 60.5031C439.942 60.5484 439.839 60.5679 439.735 60.6197C439.207 60.8794 438.696 61.1717 438.205 61.4949C437.861 61.7089 437.485 61.8904 437.161 62.1432C436.778 62.4218 436.41 62.7204 436.059 63.0378C435.696 63.362 435.32 63.6861 434.989 64.0167C434.659 64.3473 434.458 64.665 434.192 65.0345C433.926 65.404 433.544 65.8319 433.298 66.2662C433.051 66.7005 432.922 66.9728 432.74 67.3294C432.499 67.7953 432.283 68.2736 432.092 68.7621C431.93 69.177 431.832 69.6048 431.709 70.0586C431.549 70.574 431.417 71.0977 431.314 71.6274C431.255 71.9645 431.255 72.3081 431.223 72.6452C431.142 73.2902 431.108 73.9401 431.119 74.59C431.119 74.8104 431.171 75.0373 431.191 75.2383C431.24 76.0022 431.35 76.761 431.521 77.5072C431.521 77.6174 431.599 77.7276 431.631 77.8378C431.851 78.7072 432.153 79.5537 432.533 80.3661C433.877 83.1455 436.064 85.4299 438.782 86.8942C439.495 87.2983 440.241 87.641 441.012 87.9184C444.568 89.172 448.471 89.0072 451.909 87.4583C455.348 85.9094 458.057 83.0955 459.475 79.6011C459.617 79.1733 459.721 78.8945 459.721 78.8945C459.779 78.7389 459.877 78.4537 459.987 78.1295C460.92 75.4587 464.045 67.5692 474.618 62.8045C486.462 57.4692 495.525 62.6748 495.525 62.6748C498.251 63.8138 501.257 64.1053 504.152 63.5115C507.046 62.9176 509.694 61.4659 511.752 59.3455C513.809 57.225 515.181 54.5341 515.687 51.6232C516.193 48.7123 515.811 45.7164 514.591 43.0257L514.604 43.0192Z" fill="white"/>
<path d="M511.355 92.0803C512.023 89.5417 511.908 86.8606 511.026 84.3884C510.144 81.9161 508.535 79.7683 506.411 78.2263C504.286 76.6844 501.745 75.8204 499.121 75.7476C496.498 75.6748 493.913 76.3966 491.706 77.8183L490.987 78.311C488.932 79.6853 482.527 83.199 473.438 80.9041C463.066 78.2721 459.241 71.4588 458.204 69.5724L457.977 69.1704C457.135 67.6704 456.004 66.3529 454.648 65.2945C453.293 64.2361 451.74 63.4579 450.081 63.0054C449.984 63.0054 449.893 62.934 449.796 62.9081C449.289 62.7987 448.776 62.7208 448.259 62.6747C447.903 62.6294 447.54 62.5516 447.183 62.5386C446.765 62.5331 446.348 62.5504 445.932 62.5905C445.498 62.5974 445.066 62.6277 444.635 62.6812C444.259 62.7396 443.896 62.8498 443.527 62.9405C443.088 63.0381 442.656 63.1593 442.23 63.3035C441.893 63.4202 441.582 63.5823 441.258 63.7314C440.83 63.9259 440.402 64.1204 440 64.3797C439.598 64.639 439.352 64.8205 439.041 65.028C438.645 65.2972 438.265 65.5872 437.9 65.8966C437.679 66.0976 437.485 66.331 437.252 66.5449C436.846 66.9521 436.467 67.3852 436.117 67.8414C435.994 67.997 435.903 68.185 435.793 68.3471C435.406 68.9046 435.063 69.4921 434.769 70.1039C434.723 70.1947 434.697 70.2984 434.658 70.3956C433.936 72.0044 433.556 73.7464 433.545 75.5101C433.534 77.2739 433.891 79.0205 434.594 80.6383C434.867 81.3117 435.195 81.9621 435.573 82.5831C437.342 85.4175 440.137 87.4596 443.375 88.2833C446.613 89.107 450.044 88.6488 452.953 87.0043L454.113 86.2718C456.233 84.9363 462.755 81.1958 472.705 83.7241C483.849 86.5635 487.259 95.1725 487.259 95.1725C488.52 97.4649 490.441 99.3247 492.773 100.51C495.105 101.695 497.74 102.151 500.335 101.818C502.93 101.485 505.364 100.379 507.322 98.6434C509.279 96.9078 510.669 94.6231 511.31 92.0868L511.355 92.0803Z" fill="white"/>
<path d="M378.648 102.394C379.738 104.969 381.576 107.156 383.924 108.673C386.272 110.191 389.022 110.967 391.816 110.903C394.611 110.839 397.322 109.937 399.598 108.313C401.874 106.689 403.609 104.42 404.579 101.798V101.798C404.579 101.798 406.809 92.1322 418.193 87.3415C428.753 82.8749 436.429 86.2135 438.536 87.147L438.989 87.348C440.68 88.0834 442.499 88.4753 444.342 88.5009C446.185 88.5265 448.015 88.1853 449.725 87.4971C449.822 87.4582 449.926 87.4452 450.023 87.3998C450.53 87.1664 451.022 86.9 451.494 86.6024C451.825 86.408 452.182 86.2459 452.499 86.0255C452.817 85.8051 453.193 85.4615 453.537 85.1698C453.88 84.8781 454.25 84.5928 454.567 84.2622C454.885 83.9316 455.092 83.6139 455.345 83.3222C455.598 83.0305 455.993 82.5767 456.227 82.1683C456.46 81.7599 456.596 81.52 456.778 81.1699C457.018 80.7348 457.235 80.2868 457.426 79.828C457.582 79.4391 457.692 79.0371 457.815 78.6352C457.978 78.1502 458.114 77.6568 458.224 77.1571C458.282 76.846 458.295 76.5089 458.334 76.1977C458.424 75.5924 458.471 74.9815 458.476 74.3696C458.476 74.1557 458.431 73.9417 458.425 73.7213C458.393 72.9962 458.306 72.2746 458.165 71.5626C458.165 71.4588 458.094 71.3486 458.068 71.2449C457.641 69.4043 456.835 67.6727 455.702 66.1605C454.57 64.6482 453.134 63.3882 451.488 62.4609C450.821 62.0627 450.123 61.7202 449.401 61.4366C446.057 60.1665 442.351 60.2346 439.056 61.6268C435.761 63.019 433.13 65.6281 431.709 68.9112C431.56 69.3131 431.456 69.5594 431.456 69.5594C431.398 69.7021 431.301 69.9743 431.191 70.2725C430.244 72.7878 427.1 80.1976 416.974 84.4826C408.307 88.1389 401.312 86.0061 398.485 84.8003C397.61 84.4243 397.131 84.152 397.131 84.152C394.571 83.0115 391.727 82.668 388.969 83.1662C386.212 83.6644 383.668 84.9812 381.669 86.9452C379.67 88.9092 378.308 91.4295 377.761 94.178C377.215 96.9265 377.508 99.7759 378.603 102.355L378.648 102.394Z" fill="white"/>
<path d="M445.802 81.8701C450.109 81.8701 453.6 78.3785 453.6 74.0714C453.6 69.7643 450.109 66.2727 445.802 66.2727C441.495 66.2727 438.003 69.7643 438.003 74.0714C438.003 78.3785 441.495 81.8701 445.802 81.8701Z" fill="#13B8EC"/>
<path d="M391.511 104.735C395.818 104.735 399.309 101.243 399.309 96.9359C399.309 92.6288 395.818 89.1372 391.511 89.1372C387.203 89.1372 383.712 92.6288 383.712 96.9359C383.712 101.243 387.203 104.735 391.511 104.735Z" fill="#13B8EC"/>
<path d="M501.248 56.9376C505.555 56.9376 509.047 53.446 509.047 49.1389C509.047 44.8318 505.555 41.3402 501.248 41.3402C496.941 41.3402 493.449 44.8318 493.449 49.1389C493.449 53.446 496.941 56.9376 501.248 56.9376Z" fill="#13B8EC"/>
<path d="M432.921 22.495C437.228 22.495 440.719 19.0034 440.719 14.6963C440.719 10.3892 437.228 6.89761 432.921 6.89761C428.614 6.89761 425.122 10.3892 425.122 14.6963C425.122 19.0034 428.614 22.495 432.921 22.495Z" fill="#13B8EC"/>
<path d="M498.76 96.0413C502.774 96.0413 506.027 92.7877 506.027 88.7742C506.027 84.7606 502.774 81.507 498.76 81.507C494.747 81.507 491.493 84.7606 491.493 88.7742C491.493 92.7877 494.747 96.0413 498.76 96.0413Z" fill="#13B8EC"/>
</g>
<path d="M116.006 141.261C114.818 141.261 113.681 141.094 112.595 140.761C111.509 140.414 110.647 139.972 110.01 139.436L110.988 137.242C111.596 137.72 112.349 138.118 113.247 138.437C114.145 138.755 115.064 138.915 116.006 138.915C116.802 138.915 117.447 138.828 117.939 138.654C118.431 138.48 118.793 138.249 119.025 137.959C119.257 137.655 119.373 137.314 119.373 136.938C119.373 136.475 119.206 136.105 118.873 135.83C118.54 135.54 118.106 135.316 117.57 135.157C117.048 134.983 116.462 134.824 115.81 134.679C115.173 134.534 114.529 134.367 113.877 134.179C113.24 133.976 112.653 133.723 112.117 133.419C111.596 133.1 111.169 132.68 110.836 132.159C110.503 131.638 110.336 130.972 110.336 130.161C110.336 129.335 110.553 128.582 110.988 127.901C111.437 127.206 112.11 126.656 113.008 126.25C113.92 125.831 115.072 125.621 116.462 125.621C117.374 125.621 118.279 125.736 119.177 125.968C120.075 126.2 120.857 126.533 121.523 126.967L120.633 129.161C119.952 128.756 119.25 128.459 118.525 128.271C117.801 128.068 117.106 127.967 116.44 127.967C115.658 127.967 115.021 128.061 114.529 128.249C114.051 128.437 113.696 128.683 113.464 128.988C113.247 129.292 113.138 129.639 113.138 130.03C113.138 130.494 113.298 130.87 113.616 131.16C113.949 131.435 114.377 131.652 114.898 131.811C115.434 131.971 116.027 132.13 116.679 132.289C117.331 132.434 117.975 132.601 118.612 132.789C119.264 132.977 119.851 133.223 120.372 133.528C120.908 133.832 121.335 134.244 121.654 134.766C121.987 135.287 122.153 135.946 122.153 136.742C122.153 137.553 121.929 138.306 121.48 139.002C121.045 139.682 120.372 140.233 119.46 140.652C118.547 141.058 117.396 141.261 116.006 141.261ZM127.38 141.043V129.444H130.096V141.043H127.38ZM128.749 127.532C128.242 127.532 127.822 127.373 127.489 127.054C127.17 126.736 127.011 126.352 127.011 125.903C127.011 125.44 127.17 125.056 127.489 124.752C127.822 124.433 128.242 124.274 128.749 124.274C129.256 124.274 129.668 124.426 129.987 124.73C130.32 125.02 130.487 125.389 130.487 125.838C130.487 126.316 130.327 126.721 130.009 127.054C129.69 127.373 129.27 127.532 128.749 127.532ZM139.932 141.196C138.961 141.196 138.027 141.072 137.129 140.826C136.246 140.566 135.544 140.254 135.022 139.892L136.065 137.829C136.586 138.162 137.209 138.437 137.933 138.654C138.657 138.871 139.381 138.98 140.105 138.98C140.96 138.98 141.575 138.864 141.952 138.632C142.343 138.401 142.538 138.089 142.538 137.698C142.538 137.38 142.408 137.141 142.147 136.981C141.887 136.808 141.546 136.677 141.126 136.59C140.706 136.503 140.236 136.424 139.714 136.351C139.207 136.279 138.693 136.185 138.172 136.069C137.665 135.939 137.202 135.758 136.782 135.526C136.362 135.28 136.021 134.954 135.761 134.548C135.5 134.143 135.37 133.607 135.37 132.941C135.37 132.202 135.58 131.565 136 131.029C136.42 130.479 137.006 130.059 137.759 129.77C138.527 129.465 139.432 129.313 140.475 129.313C141.257 129.313 142.046 129.4 142.842 129.574C143.639 129.748 144.298 129.994 144.819 130.313L143.776 132.376C143.226 132.043 142.669 131.819 142.104 131.703C141.553 131.572 141.003 131.507 140.453 131.507C139.627 131.507 139.012 131.63 138.606 131.877C138.215 132.123 138.02 132.434 138.02 132.811C138.02 133.158 138.15 133.419 138.411 133.593C138.672 133.766 139.012 133.904 139.432 134.005C139.852 134.107 140.315 134.194 140.822 134.266C141.343 134.324 141.858 134.418 142.364 134.548C142.871 134.679 143.335 134.86 143.755 135.092C144.189 135.309 144.537 135.62 144.797 136.026C145.058 136.431 145.188 136.96 145.188 137.611C145.188 138.335 144.971 138.965 144.537 139.501C144.117 140.037 143.516 140.457 142.734 140.761C141.952 141.051 141.018 141.196 139.932 141.196ZM154.581 141.196C153.306 141.196 152.322 140.87 151.626 140.218C150.931 139.552 150.584 138.574 150.584 137.286V126.88H153.299V137.22C153.299 137.771 153.437 138.198 153.712 138.502C154.001 138.806 154.4 138.958 154.907 138.958C155.515 138.958 156.022 138.799 156.427 138.48L157.187 140.414C156.869 140.674 156.478 140.87 156.014 141C155.551 141.13 155.073 141.196 154.581 141.196ZM148.672 131.703V129.531H156.405V131.703H148.672ZM167.179 141.196C165.89 141.196 164.761 140.942 163.791 140.435C162.835 139.914 162.089 139.204 161.553 138.306C161.032 137.409 160.771 136.388 160.771 135.244C160.771 134.085 161.025 133.064 161.532 132.181C162.053 131.283 162.762 130.581 163.66 130.074C164.573 129.567 165.608 129.313 166.767 129.313C167.896 129.313 168.903 129.56 169.786 130.052C170.669 130.544 171.365 131.239 171.871 132.137C172.378 133.035 172.632 134.092 172.632 135.309C172.632 135.425 172.624 135.555 172.61 135.7C172.61 135.845 172.603 135.982 172.588 136.112H162.922V134.31H171.155L170.09 134.874C170.105 134.208 169.967 133.622 169.677 133.115C169.388 132.608 168.99 132.21 168.483 131.92C167.99 131.63 167.418 131.486 166.767 131.486C166.1 131.486 165.514 131.63 165.007 131.92C164.515 132.21 164.124 132.615 163.834 133.137C163.559 133.643 163.421 134.244 163.421 134.939V135.374C163.421 136.069 163.581 136.685 163.899 137.22C164.218 137.756 164.667 138.169 165.246 138.459C165.825 138.748 166.491 138.893 167.245 138.893C167.896 138.893 168.483 138.792 169.004 138.589C169.525 138.386 169.989 138.068 170.394 137.633L171.85 139.306C171.328 139.914 170.669 140.385 169.873 140.718C169.091 141.036 168.193 141.196 167.179 141.196ZM192.569 129.313C193.495 129.313 194.314 129.494 195.023 129.856C195.747 130.218 196.312 130.776 196.718 131.529C197.123 132.268 197.326 133.223 197.326 134.396V141.043H194.611V134.744C194.611 133.716 194.386 132.948 193.937 132.441C193.488 131.935 192.844 131.681 192.004 131.681C191.41 131.681 190.881 131.811 190.418 132.072C189.969 132.333 189.614 132.717 189.354 133.223C189.107 133.73 188.984 134.375 188.984 135.157V141.043H186.269V134.744C186.269 133.716 186.045 132.948 185.596 132.441C185.147 131.935 184.502 131.681 183.662 131.681C183.069 131.681 182.54 131.811 182.077 132.072C181.628 132.333 181.273 132.717 181.012 133.223C180.766 133.73 180.643 134.375 180.643 135.157V141.043H177.928V129.444H180.513V132.528L180.056 131.616C180.447 130.863 181.012 130.291 181.751 129.9C182.504 129.509 183.358 129.313 184.314 129.313C185.4 129.313 186.341 129.581 187.138 130.117C187.949 130.653 188.485 131.464 188.745 132.55L187.681 132.181C188.058 131.312 188.68 130.617 189.549 130.095C190.418 129.574 191.425 129.313 192.569 129.313ZM210.63 141.043V138.697L210.478 138.198V134.092C210.478 133.296 210.239 132.68 209.761 132.246C209.283 131.797 208.559 131.572 207.589 131.572C206.937 131.572 206.293 131.674 205.656 131.877C205.033 132.079 204.504 132.362 204.07 132.724L203.006 130.747C203.628 130.269 204.367 129.914 205.221 129.683C206.09 129.436 206.988 129.313 207.915 129.313C209.595 129.313 210.891 129.719 211.803 130.53C212.73 131.326 213.193 132.564 213.193 134.244V141.043H210.63ZM206.981 141.196C206.112 141.196 205.352 141.051 204.7 140.761C204.048 140.457 203.541 140.044 203.179 139.523C202.832 138.987 202.658 138.386 202.658 137.72C202.658 137.068 202.81 136.482 203.114 135.96C203.433 135.439 203.947 135.026 204.656 134.722C205.366 134.418 206.307 134.266 207.48 134.266H210.847V136.069H207.676C206.749 136.069 206.126 136.221 205.808 136.525C205.489 136.815 205.33 137.177 205.33 137.611C205.33 138.104 205.525 138.495 205.916 138.784C206.307 139.074 206.85 139.219 207.546 139.219C208.212 139.219 208.805 139.067 209.327 138.763C209.863 138.459 210.246 138.01 210.478 137.416L210.934 139.045C210.674 139.726 210.203 140.254 209.522 140.631C208.856 141.007 208.009 141.196 206.981 141.196ZM232.966 141.196C231.851 141.196 230.845 140.949 229.947 140.457C229.063 139.95 228.368 139.255 227.861 138.372C227.355 137.488 227.101 136.446 227.101 135.244C227.101 134.042 227.355 132.999 227.861 132.116C228.368 131.232 229.063 130.544 229.947 130.052C230.845 129.56 231.851 129.313 232.966 129.313C233.937 129.313 234.805 129.531 235.573 129.965C236.34 130.385 236.949 131.029 237.398 131.898C237.847 132.767 238.071 133.882 238.071 135.244C238.071 136.59 237.854 137.705 237.419 138.589C236.985 139.458 236.384 140.109 235.616 140.544C234.849 140.978 233.966 141.196 232.966 141.196ZM233.292 138.871C233.944 138.871 234.523 138.726 235.03 138.437C235.551 138.147 235.964 137.727 236.268 137.177C236.587 136.627 236.746 135.982 236.746 135.244C236.746 134.491 236.587 133.846 236.268 133.31C235.964 132.76 235.551 132.34 235.03 132.05C234.523 131.761 233.944 131.616 233.292 131.616C232.64 131.616 232.054 131.761 231.533 132.05C231.026 132.34 230.613 132.76 230.294 133.31C229.99 133.846 229.838 134.491 229.838 135.244C229.838 135.982 229.99 136.627 230.294 137.177C230.613 137.727 231.026 138.147 231.533 138.437C232.054 138.726 232.64 138.871 233.292 138.871ZM236.811 141.043V138.306L236.92 135.222L236.703 132.137V124.925H239.396V141.043H236.811ZM251.11 141.196C249.821 141.196 248.692 140.942 247.721 140.435C246.766 139.914 246.02 139.204 245.484 138.306C244.963 137.409 244.702 136.388 244.702 135.244C244.702 134.085 244.955 133.064 245.462 132.181C245.984 131.283 246.693 130.581 247.591 130.074C248.503 129.567 249.539 129.313 250.697 129.313C251.827 129.313 252.833 129.56 253.717 130.052C254.6 130.544 255.295 131.239 255.802 132.137C256.309 133.035 256.562 134.092 256.562 135.309C256.562 135.425 256.555 135.555 256.541 135.7C256.541 135.845 256.533 135.982 256.519 136.112H246.852V134.31H255.085L254.021 134.874C254.035 134.208 253.898 133.622 253.608 133.115C253.319 132.608 252.92 132.21 252.413 131.92C251.921 131.63 251.349 131.486 250.697 131.486C250.031 131.486 249.445 131.63 248.938 131.92C248.445 132.21 248.054 132.615 247.765 133.137C247.49 133.643 247.352 134.244 247.352 134.939V135.374C247.352 136.069 247.511 136.685 247.83 137.22C248.149 137.756 248.598 138.169 249.177 138.459C249.756 138.748 250.422 138.893 251.175 138.893C251.827 138.893 252.413 138.792 252.935 138.589C253.456 138.386 253.92 138.068 254.325 137.633L255.78 139.306C255.259 139.914 254.6 140.385 253.804 140.718C253.022 141.036 252.124 141.196 251.11 141.196ZM270.81 141.043V125.838H273.634V141.043H270.81ZM286.756 129.313C287.683 129.313 288.508 129.494 289.232 129.856C289.971 130.218 290.55 130.776 290.97 131.529C291.39 132.268 291.6 133.223 291.6 134.396V141.043H288.885V134.744C288.885 133.716 288.639 132.948 288.146 132.441C287.668 131.935 286.995 131.681 286.126 131.681C285.489 131.681 284.924 131.811 284.432 132.072C283.939 132.333 283.556 132.724 283.28 133.245C283.02 133.752 282.889 134.396 282.889 135.178V141.043H280.174V129.444H282.759V132.572L282.303 131.616C282.708 130.877 283.295 130.313 284.062 129.922C284.844 129.516 285.742 129.313 286.756 129.313ZM298.102 141.043V128.792C298.102 127.576 298.456 126.605 299.166 125.881C299.89 125.143 300.918 124.773 302.251 124.773C302.729 124.773 303.177 124.824 303.597 124.925C304.032 125.027 304.394 125.186 304.684 125.403L303.945 127.445C303.742 127.286 303.511 127.17 303.25 127.098C302.989 127.011 302.721 126.967 302.446 126.967C301.881 126.967 301.454 127.127 301.165 127.445C300.875 127.749 300.73 128.213 300.73 128.835V130.139L300.817 131.355V141.043H298.102ZM296.19 131.703V129.531H303.923V131.703H296.19ZM313.482 141.196C312.295 141.196 311.238 140.942 310.311 140.435C309.384 139.914 308.653 139.204 308.117 138.306C307.581 137.409 307.313 136.388 307.313 135.244C307.313 134.085 307.581 133.064 308.117 132.181C308.653 131.283 309.384 130.581 310.311 130.074C311.238 129.567 312.295 129.313 313.482 129.313C314.684 129.313 315.749 129.567 316.676 130.074C317.617 130.581 318.348 131.276 318.87 132.159C319.405 133.042 319.673 134.071 319.673 135.244C319.673 136.388 319.405 137.409 318.87 138.306C318.348 139.204 317.617 139.914 316.676 140.435C315.749 140.942 314.684 141.196 313.482 141.196ZM313.482 138.871C314.149 138.871 314.742 138.726 315.264 138.437C315.785 138.147 316.191 137.727 316.48 137.177C316.784 136.627 316.936 135.982 316.936 135.244C316.936 134.491 316.784 133.846 316.48 133.31C316.191 132.76 315.785 132.34 315.264 132.05C314.742 131.761 314.156 131.616 313.504 131.616C312.838 131.616 312.244 131.761 311.723 132.05C311.216 132.34 310.811 132.76 310.506 133.31C310.202 133.846 310.05 134.491 310.05 135.244C310.05 135.982 310.202 136.627 310.506 137.177C310.811 137.727 311.216 138.147 311.723 138.437C312.244 138.726 312.831 138.871 313.482 138.871ZM324.958 141.043V129.444H327.543V132.637L327.238 131.703C327.586 130.921 328.129 130.327 328.868 129.922C329.621 129.516 330.555 129.313 331.67 129.313V131.898C331.554 131.869 331.445 131.855 331.344 131.855C331.243 131.84 331.141 131.833 331.04 131.833C330.012 131.833 329.194 132.137 328.585 132.746C327.977 133.339 327.673 134.23 327.673 135.417V141.043H324.958ZM351.302 129.313C352.229 129.313 353.047 129.494 353.757 129.856C354.481 130.218 355.046 130.776 355.451 131.529C355.856 132.268 356.059 133.223 356.059 134.396V141.043H353.344V134.744C353.344 133.716 353.119 132.948 352.671 132.441C352.222 131.935 351.577 131.681 350.737 131.681C350.143 131.681 349.615 131.811 349.151 132.072C348.703 132.333 348.348 132.717 348.087 133.223C347.841 133.73 347.718 134.375 347.718 135.157V141.043H345.002V134.744C345.002 133.716 344.778 132.948 344.329 132.441C343.88 131.935 343.236 131.681 342.396 131.681C341.802 131.681 341.273 131.811 340.81 132.072C340.361 132.333 340.006 132.717 339.746 133.223C339.499 133.73 339.376 134.375 339.376 135.157V141.043H336.661V129.444H339.246V132.528L338.79 131.616C339.181 130.863 339.746 130.291 340.484 129.9C341.237 129.509 342.092 129.313 343.047 129.313C344.134 129.313 345.075 129.581 345.871 130.117C346.682 130.653 347.218 131.464 347.479 132.55L346.414 132.181C346.791 131.312 347.414 130.617 348.283 130.095C349.151 129.574 350.158 129.313 351.302 129.313ZM369.363 141.043V138.697L369.211 138.198V134.092C369.211 133.296 368.972 132.68 368.495 132.246C368.017 131.797 367.293 131.572 366.322 131.572C365.671 131.572 365.026 131.674 364.389 131.877C363.766 132.079 363.238 132.362 362.803 132.724L361.739 130.747C362.362 130.269 363.1 129.914 363.955 129.683C364.823 129.436 365.721 129.313 366.648 129.313C368.328 129.313 369.624 129.719 370.537 130.53C371.463 131.326 371.927 132.564 371.927 134.244V141.043H369.363ZM365.714 141.196C364.845 141.196 364.085 141.051 363.433 140.761C362.782 140.457 362.275 140.044 361.913 139.523C361.565 138.987 361.391 138.386 361.391 137.72C361.391 137.068 361.543 136.482 361.848 135.96C362.166 135.439 362.68 135.026 363.39 134.722C364.099 134.418 365.041 134.266 366.214 134.266H369.581V136.069H366.409C365.482 136.069 364.86 136.221 364.541 136.525C364.223 136.815 364.063 137.177 364.063 137.611C364.063 138.104 364.259 138.495 364.65 138.784C365.041 139.074 365.584 139.219 366.279 139.219C366.945 139.219 367.539 139.067 368.06 138.763C368.596 138.459 368.98 138.01 369.211 137.416L369.668 139.045C369.407 139.726 368.936 140.254 368.256 140.631C367.589 141.007 366.742 141.196 365.714 141.196ZM383.442 141.196C382.226 141.196 381.14 140.942 380.184 140.435C379.243 139.914 378.504 139.204 377.968 138.306C377.433 137.409 377.165 136.388 377.165 135.244C377.165 134.085 377.433 133.064 377.968 132.181C378.504 131.283 379.243 130.581 380.184 130.074C381.14 129.567 382.226 129.313 383.442 129.313C384.572 129.313 385.564 129.545 386.418 130.008C387.287 130.457 387.946 131.124 388.395 132.007L386.31 133.223C385.962 132.673 385.535 132.268 385.028 132.007C384.536 131.746 384 131.616 383.421 131.616C382.755 131.616 382.154 131.761 381.618 132.05C381.082 132.34 380.662 132.76 380.358 133.31C380.054 133.846 379.902 134.491 379.902 135.244C379.902 135.997 380.054 136.648 380.358 137.199C380.662 137.734 381.082 138.147 381.618 138.437C382.154 138.726 382.755 138.871 383.421 138.871C384 138.871 384.536 138.741 385.028 138.48C385.535 138.22 385.962 137.814 386.31 137.264L388.395 138.48C387.946 139.349 387.287 140.023 386.418 140.5C385.564 140.964 384.572 141.196 383.442 141.196ZM393.324 141.043V129.444H396.039V141.043H393.324ZM394.693 127.532C394.186 127.532 393.766 127.373 393.433 127.054C393.114 126.736 392.955 126.352 392.955 125.903C392.955 125.44 393.114 125.056 393.433 124.752C393.766 124.433 394.186 124.274 394.693 124.274C395.199 124.274 395.612 124.426 395.931 124.73C396.264 125.02 396.43 125.389 396.43 125.838C396.43 126.316 396.271 126.721 395.953 127.054C395.634 127.373 395.214 127.532 394.693 127.532ZM407.504 141.196C406.317 141.196 405.26 140.942 404.333 140.435C403.406 139.914 402.675 139.204 402.139 138.306C401.603 137.409 401.335 136.388 401.335 135.244C401.335 134.085 401.603 133.064 402.139 132.181C402.675 131.283 403.406 130.581 404.333 130.074C405.26 129.567 406.317 129.313 407.504 129.313C408.706 129.313 409.771 129.567 410.698 130.074C411.639 130.581 412.37 131.276 412.892 132.159C413.427 133.042 413.695 134.071 413.695 135.244C413.695 136.388 413.427 137.409 412.892 138.306C412.37 139.204 411.639 139.914 410.698 140.435C409.771 140.942 408.706 141.196 407.504 141.196ZM407.504 138.871C408.171 138.871 408.764 138.726 409.286 138.437C409.807 138.147 410.212 137.727 410.502 137.177C410.806 136.627 410.958 135.982 410.958 135.244C410.958 134.491 410.806 133.846 410.502 133.31C410.212 132.76 409.807 132.34 409.286 132.05C408.764 131.761 408.178 131.616 407.526 131.616C406.86 131.616 406.266 131.761 405.745 132.05C405.238 132.34 404.833 132.76 404.528 133.31C404.224 133.846 404.072 134.491 404.072 135.244C404.072 135.982 404.224 136.627 404.528 137.177C404.833 137.727 405.238 138.147 405.745 138.437C406.266 138.726 406.853 138.871 407.504 138.871ZM405.658 127.858L408.591 124.882H411.784L408.004 127.858H405.658ZM425.561 129.313C426.488 129.313 427.314 129.494 428.038 129.856C428.776 130.218 429.356 130.776 429.776 131.529C430.196 132.268 430.406 133.223 430.406 134.396V141.043H427.69V134.744C427.69 133.716 427.444 132.948 426.952 132.441C426.474 131.935 425.8 131.681 424.932 131.681C424.294 131.681 423.73 131.811 423.237 132.072C422.745 132.333 422.361 132.724 422.086 133.245C421.825 133.752 421.695 134.396 421.695 135.178V141.043H418.98V129.444H421.565V132.572L421.108 131.616C421.514 130.877 422.1 130.313 422.868 129.922C423.65 129.516 424.548 129.313 425.561 129.313Z" fill="#13B8EC"/>
<defs>
<linearGradient id="paint0_linear_606_24156" x1="44.1018" y1="136.863" x2="46.3059" y2="25.866" gradientUnits="userSpaceOnUse">
<stop offset="0.15" stop-color="#0A5DA8"/>
<stop offset="0.34" stop-color="#0B64AD"/>
<stop offset="0.61" stop-color="#1076BC"/>
<stop offset="0.93" stop-color="#1694D3"/>
<stop offset="1" stop-color="#189CD9"/>
</linearGradient>
<linearGradient id="paint1_linear_606_24156" x1="146.574" y1="138.898" x2="148.778" y2="27.9015" gradientUnits="userSpaceOnUse">
<stop offset="0.15" stop-color="#0A5DA8"/>
<stop offset="0.34" stop-color="#0B64AD"/>
<stop offset="0.61" stop-color="#1076BC"/>
<stop offset="0.93" stop-color="#1694D3"/>
<stop offset="1" stop-color="#189CD9"/>
</linearGradient>
<linearGradient id="paint2_linear_606_24156" x1="263.879" y1="141.226" x2="266.083" y2="30.2354" gradientUnits="userSpaceOnUse">
<stop offset="0.15" stop-color="#0A5DA8"/>
<stop offset="0.34" stop-color="#0B64AD"/>
<stop offset="0.61" stop-color="#1076BC"/>
<stop offset="0.93" stop-color="#1694D3"/>
<stop offset="1" stop-color="#189CD9"/>
</linearGradient>
<clipPath id="clip0_606_24156">
<rect width="541.5" height="118.043" fill="white"/>
</clipPath>
</defs>
</svg>
