<svg width="554" height="322" viewBox="0 0 554 322" fill="none" xmlns="http://www.w3.org/2000/svg">
<g clip-path="url(#clip0_658_23149)">
<g style="mix-blend-mode:multiply" opacity="0.1">
<path d="M214.106 2.72253L0 126.894L337.924 322L554 195.861L214.106 2.72253Z" fill="#D1D3D4"/>
</g>
<g style="mix-blend-mode:multiply" opacity="0.12">
<path d="M214.218 3.04428L0.644531 126.907L337.726 321.542L553.282 195.712L214.218 3.04428Z" fill="#D0D2D3"/>
</g>
<g style="mix-blend-mode:multiply" opacity="0.14">
<path d="M214.342 3.36603L1.28906 126.919L337.54 321.072L552.563 195.551L214.342 3.36603Z" fill="#CFD1D2"/>
</g>
<g style="mix-blend-mode:multiply" opacity="0.16">
<path d="M214.454 3.67542L1.9209 126.931L337.354 320.602L551.844 195.403L214.454 3.67542Z" fill="#CED0D1"/>
</g>
<g style="mix-blend-mode:multiply" opacity="0.19">
<path d="M214.564 3.99716L2.56445 126.944L337.167 320.144L551.113 195.242L214.564 3.99716Z" fill="#CDCFD0"/>
</g>
<g style="mix-blend-mode:multiply" opacity="0.21">
<path d="M214.689 4.31891L3.20898 126.956L336.969 319.673L550.394 195.081L214.689 4.31891Z" fill="#CCCECF"/>
</g>
<g style="mix-blend-mode:multiply" opacity="0.23">
<path d="M214.8 4.64069L3.85352 126.981L336.784 319.203L549.676 194.933L214.8 4.64069Z" fill="#CBCDCE"/>
</g>
<g style="mix-blend-mode:multiply" opacity="0.25">
<path d="M214.912 4.96243L4.49805 126.993L336.598 318.745L548.957 194.772L214.912 4.96243Z" fill="#CACCCD"/>
</g>
<g style="mix-blend-mode:multiply" opacity="0.27">
<path d="M215.035 5.28418L5.1416 127.006L336.412 318.275L548.238 194.623L215.035 5.28418Z" fill="#C9CBCC"/>
</g>
<g style="mix-blend-mode:multiply" opacity="0.29">
<path d="M215.148 5.59357L5.77441 127.018L336.214 317.805L547.52 194.462L215.148 5.59357Z" fill="#C8CACB"/>
</g>
<g style="mix-blend-mode:multiply" opacity="0.31">
<path d="M215.258 5.91531L6.41797 127.03L336.028 317.347L546.789 194.314L215.258 5.91531Z" fill="#C7C9CA"/>
</g>
<g style="mix-blend-mode:multiply" opacity="0.34">
<path d="M215.382 6.23706L7.0625 127.043L335.842 316.877L546.07 194.153L215.382 6.23706Z" fill="#C6C8C9"/>
</g>
<g style="mix-blend-mode:multiply" opacity="0.36">
<path d="M215.494 6.55881L7.70703 127.055L335.644 316.419L545.352 194.004L215.494 6.55881Z" fill="#C5C7C8"/>
</g>
<g style="mix-blend-mode:multiply" opacity="0.38">
<path d="M215.606 6.88055L8.35156 127.08L335.458 315.949L544.633 193.844L215.606 6.88055Z" fill="#C4C6C7"/>
</g>
<g style="mix-blend-mode:multiply" opacity="0.4">
<path d="M215.73 7.20233L8.9834 127.092L335.272 315.478L543.915 193.683L215.73 7.20233Z" fill="#C3C5C6"/>
</g>
<g style="mix-blend-mode:multiply" opacity="0.42">
<path d="M215.841 7.51169L9.62695 127.105L335.086 315.02L543.195 193.534L215.841 7.51169Z" fill="#C2C4C5"/>
</g>
<g style="mix-blend-mode:multiply" opacity="0.44">
<path d="M215.952 7.83344L10.2715 127.117L334.888 314.55L542.464 193.373L215.952 7.83344Z" fill="#C1C3C4"/>
</g>
<g style="mix-blend-mode:multiply" opacity="0.46">
<path d="M216.064 8.15521L10.916 127.129L334.702 314.08L541.746 193.225L216.064 8.15521Z" fill="#C0C2C3"/>
</g>
<g style="mix-blend-mode:multiply" opacity="0.49">
<path d="M216.188 8.47696L11.5605 127.142L334.517 313.622L541.028 193.064L216.188 8.47696Z" fill="#BFC1C2"/>
</g>
<g style="mix-blend-mode:multiply" opacity="0.51">
<path d="M216.299 8.79871L12.2041 127.154L334.33 313.152L540.308 192.915L216.299 8.79871Z" fill="#BEC0C1"/>
</g>
<g style="mix-blend-mode:multiply" opacity="0.53">
<path d="M216.411 9.12045L12.8369 127.179L334.133 312.682L539.59 192.755L216.411 9.12045Z" fill="#BDBFC0"/>
</g>
<g style="mix-blend-mode:multiply" opacity="0.55">
<path d="M216.535 9.42984L13.4805 127.191L333.946 312.224L538.859 192.594L216.535 9.42984Z" fill="#BDBFC0"/>
</g>
<g style="mix-blend-mode:multiply" opacity="0.57">
<path d="M216.646 9.75159L14.125 127.204L333.76 311.753L538.14 192.445L216.646 9.75159Z" fill="#BCBEBF"/>
</g>
<g style="mix-blend-mode:multiply" opacity="0.59">
<path d="M216.758 10.0733L14.7695 127.216L333.562 311.283L537.422 192.284L216.758 10.0733Z" fill="#BBBDBE"/>
</g>
<g style="mix-blend-mode:multiply" opacity="0.61">
<path d="M216.882 10.3951L15.4141 127.228L333.377 310.825L536.703 192.136L216.882 10.3951Z" fill="#BABCBD"/>
</g>
<g style="mix-blend-mode:multiply" opacity="0.64">
<path d="M216.993 10.7169L16.0576 127.241L333.19 310.355L535.984 191.975L216.993 10.7169Z" fill="#B9BBBC"/>
</g>
<g style="mix-blend-mode:multiply" opacity="0.66">
<path d="M217.104 11.0386L16.6895 127.253L333.004 309.897L535.265 191.826L217.104 11.0386Z" fill="#B8BABB"/>
</g>
<g style="mix-blend-mode:multiply" opacity="0.68">
<path d="M217.228 11.348L17.334 127.278L332.806 309.427L534.534 191.665L217.228 11.348Z" fill="#B7B9BA"/>
</g>
<g style="mix-blend-mode:multiply" opacity="0.7">
<path d="M217.34 11.6697L17.9785 127.29L332.621 308.957L533.816 191.505L217.34 11.6697Z" fill="#B6B8B9"/>
</g>
<g style="mix-blend-mode:multiply" opacity="0.72">
<path d="M217.452 11.9915L18.623 127.303L332.435 308.499L533.098 191.356L217.452 11.9915Z" fill="#B5B7B8"/>
</g>
<g style="mix-blend-mode:multiply" opacity="0.74">
<path d="M217.575 12.3132L19.2666 127.315L332.248 308.029L532.378 191.195L217.575 12.3132Z" fill="#B4B6B7"/>
</g>
<g style="mix-blend-mode:multiply" opacity="0.76">
<path d="M217.688 12.635L19.8994 127.327L332.051 307.558L531.661 191.047L217.688 12.635Z" fill="#B3B5B6"/>
</g>
<g style="mix-blend-mode:multiply" opacity="0.79">
<path d="M217.798 12.9444L20.543 127.34L331.864 307.1L530.941 190.886L217.798 12.9444Z" fill="#B2B4B5"/>
</g>
<g style="mix-blend-mode:multiply" opacity="0.81">
<path d="M217.91 13.2661L21.1875 127.352L331.679 306.63L530.21 190.737L217.91 13.2661Z" fill="#B1B3B4"/>
</g>
<g style="mix-blend-mode:multiply" opacity="0.83">
<path d="M218.034 13.5879L21.832 127.377L331.493 306.16L529.492 190.576L218.034 13.5879Z" fill="#B0B2B3"/>
</g>
<g style="mix-blend-mode:multiply" opacity="0.85">
<path d="M218.146 13.9096L22.4766 127.389L331.295 305.702L528.773 190.416L218.146 13.9096Z" fill="#AFB1B2"/>
</g>
<g style="mix-blend-mode:multiply" opacity="0.87">
<path d="M218.257 14.2314L23.1201 127.402L331.109 305.232L528.054 190.267L218.257 14.2314Z" fill="#AEB0B1"/>
</g>
<g style="mix-blend-mode:multiply" opacity="0.89">
<path d="M218.381 14.5531L23.752 127.414L330.923 304.774L527.335 190.106L218.381 14.5531Z" fill="#ADAFB0"/>
</g>
<g style="mix-blend-mode:multiply" opacity="0.91">
<path d="M218.492 14.8625L24.3965 127.426L330.725 304.304L526.617 189.958L218.492 14.8625Z" fill="#ACAEAF"/>
</g>
<g style="mix-blend-mode:multiply" opacity="0.94">
<path d="M218.604 15.1843L25.041 127.439L330.539 303.833L525.886 189.797L218.604 15.1843Z" fill="#ABADAE"/>
</g>
<g style="mix-blend-mode:multiply" opacity="0.96">
<path d="M218.728 15.506L25.6855 127.451L330.353 303.375L525.168 189.648L218.728 15.506Z" fill="#AAACAD"/>
</g>
<g style="mix-blend-mode:multiply" opacity="0.98">
<path d="M218.84 15.8278L26.3301 127.476L330.168 302.905L524.449 189.487L218.84 15.8278Z" fill="#A9ABAC"/>
</g>
<g style="mix-blend-mode:multiply">
<path d="M218.951 16.1495L26.9619 127.488L329.969 302.435L523.731 189.339L218.951 16.1495Z" fill="#A8AAAB"/>
</g>
<path d="M337.924 319.277L554 193.138L474.949 128.651L393.507 101.501L313.676 39.6622L214.106 0L0 124.172L97.9214 163.834L178.992 227.095L258.848 254.061L337.924 319.277Z" fill="white"/>
<path d="M261.908 248.554L181.978 221.576L101.056 158.426L14.0381 123.182L214.614 6.86816L310.565 45.0825L390.533 107.032L471.913 134.158L543.171 192.297L338.531 311.753L261.908 248.554Z" fill="url(#paint0_linear_658_23149)"/>
<path d="M221.083 71.2434L213.648 75.7851L222.731 86.5143L235.951 79.906L221.083 71.2434Z" fill="#D1D3D4"/>
<path d="M170.926 212.951L216.473 184.389L231.936 195.873C232.098 195.984 232.271 196.083 232.457 196.145L242.022 199.375L218.691 213L220.562 216.205L247.412 200.526C248.044 200.155 248.391 199.462 248.329 198.732C248.255 198.014 247.759 197.395 247.078 197.16L233.931 192.717L219.856 182.26L233.213 173.882L231.23 170.739L167.804 210.525L170.914 212.951H170.926Z" fill="#D1D3D4"/>
<path d="M70.5265 104.867L29.1797 129.307L33.5163 131.065L74.7888 106.673L74.6277 106.401L93.424 113.405L94.725 109.928L59.5238 96.798L55.3606 99.2111L70.5265 104.867Z" fill="#D1D3D4"/>
<path d="M178.087 112.341C178.335 112.452 178.583 112.502 178.843 112.502C179.19 112.502 179.525 112.403 179.834 112.217L195.273 102.54L201.059 105.003L234.278 135.718L236.805 132.995L229.024 125.805L269.752 100.882C270.26 100.572 270.582 100.04 270.631 99.4586C270.681 98.877 270.445 98.2954 270.012 97.9117L247.3 77.9012C247.226 77.8393 247.151 77.7775 247.065 77.728L222.693 62.2591L220.698 65.39L244.946 80.7846L256.395 90.8579L217.154 114.828L203.351 102.057C203.19 101.909 203.017 101.798 202.819 101.711L150.779 79.5347L149.317 82.9502L191.11 100.758L178.694 108.53L114.45 79.9184L139.528 64.8826L137.62 61.7022L110.312 78.0745L99.8419 73.409L95.877 75.7108L178.087 112.329V112.341ZM259.306 93.432L265.663 99.0379L226.187 123.194L219.979 117.452L259.306 93.432Z" fill="#D1D3D4"/>
<path d="M405.328 243.987L402.751 246.66L420.655 263.812L423.988 261.869L405.328 243.987Z" fill="#D1D3D4"/>
<path d="M267.522 235.325L265.49 232.219L247.771 243.789L252.257 245.299L267.522 235.325Z" fill="#D1D3D4"/>
<path d="M429.056 174.687C429.18 175.392 429.688 175.961 430.382 176.159L459.288 184.414L460.304 180.85L432.525 172.917L430.939 163.586L476.189 137.661L473.104 135.148L430.27 159.688L429.415 154.689C429.316 154.107 428.957 153.612 428.424 153.352L419.639 148.872L455.001 128.54L450.281 126.968L415.674 146.855L388.762 133.131L387.077 136.435L425.896 156.223L429.043 174.687H429.056Z" fill="#D1D3D4"/>
<path d="M329.672 59.8831L315.56 67.9888L317.406 71.2063L332.844 62.3333L329.672 59.8831Z" fill="#D1D3D4"/>
<path d="M268.575 127.352L318.967 125.285L364.811 115.794L387.114 127.352L348.283 151.273L334.244 147.561L270.644 170.244L251.229 134.356L268.575 127.352Z" fill="#CFE4BD"/>
<path d="M213.227 4.83865L133.309 52.4828L163.046 67.3329L196.5 53.7203L220.041 55.5765L259.691 33.9201L255.974 22.1638L213.227 4.83865Z" fill="#CFE4BD"/>
<path d="M288.189 181.184L249.159 194.796L249.779 202.84L255.354 218.309L286.33 231.922L291.906 235.634L295.004 238.109L352 250.484L365.629 259.766L394.127 242.44L380.498 219.547L394.127 192.94L381.117 182.421L335.892 162.002L288.189 181.184Z" fill="#CFE4BD"/>
<path d="M297.94 278.279L331.555 305.999C334.925 288.364 340.934 251.833 342.929 225.932C344.8 201.652 324.096 189.76 313.192 178.078C306.489 170.9 303.961 164.081 301.223 155.679C297.717 144.925 299.761 135.049 302.115 123.615C304.544 111.871 310.628 97.0826 306.576 82.381C302.029 65.885 279.106 57.4699 256.419 46.023C238.59 37.0263 222.99 22.6217 212.942 7.83344L182.35 25.5793C197.875 44.2533 226.435 52.9778 248.75 64.2391C262.454 71.1568 277.719 84.4971 279.342 90.4124C281.807 99.3844 279.974 108.307 277.843 118.628C275.154 131.634 268.265 147.264 273.803 164.255C278.239 177.867 287.148 187.408 295.016 195.824C305.907 207.481 315.869 213.805 314.877 226.638C313.527 244.148 304.705 264.74 297.94 278.279V278.279Z" fill="url(#paint1_linear_658_23149)"/>
<path d="M372.121 270.309L464.231 213.421C465.359 212.728 466.028 211.49 465.991 210.166L464.801 165.789L489.867 148.811L483.858 143.91L458.953 160.777C457.9 161.483 457.293 162.683 457.317 163.945L458.495 208.223L366.149 265.26L366.223 265.372L353.151 254.432C352.668 254.024 352.086 253.751 351.466 253.628L291.868 242.082L285.859 236.08C285.487 235.696 285.029 235.411 284.521 235.226L208.332 206.998L146.417 153.253L219.471 109.482C221.02 108.554 221.677 106.661 221.032 104.978L208.952 73.1615L261.822 43.5727L289.415 54.4752L367.673 116.017C367.846 116.153 368.045 116.276 368.243 116.388L389.554 127.562L345.692 155.122L349.657 161.408L420.394 116.957L411.275 113.913L396.171 123.404L396.493 122.798L372.009 109.965L293.603 48.3C293.318 48.0772 293.008 47.8916 292.674 47.7679L262.937 36.0115C261.896 35.6031 260.731 35.6774 259.752 36.2219L204.107 67.37L161.992 70.3277L131.834 54.8588L124.201 59.2891L153.616 74.3867L49.5986 137.574L58.1852 141.051L162.351 77.7651L201.703 74.9931L212.991 104.706L138.215 149.516C137.199 150.122 136.53 151.187 136.431 152.375C136.332 153.563 136.79 154.726 137.694 155.505L203.983 213.05C204.318 213.347 204.714 213.569 205.123 213.73L227.884 222.17L212.917 232.021L221.85 235.04L236.533 225.388L281.175 241.933L287.42 248.17C287.941 248.69 288.61 249.049 289.341 249.185L349.112 260.756L380.67 287.164L387.485 283.179L372.109 270.322L372.121 270.309Z" fill="#FEE2A6"/>
<path d="M391.252 173.165C390.868 172.818 390.422 172.534 389.939 172.323L337.899 149.429C336.746 148.922 335.445 148.872 334.256 149.293L248.898 179.315L221.912 157.399C223.709 155.307 224.7 152.857 224.7 150.283C224.7 149.083 224.465 147.907 224.043 146.769L260.533 126.647L316.451 122.402C317.207 122.34 317.95 122.117 318.607 121.721L370.077 91.1921L361.664 84.6704L314.543 112.613L258.699 116.858C257.993 116.908 257.299 117.118 256.68 117.464L216.968 139.368C213.437 137.524 209.026 136.51 204.405 136.51C201.914 136.51 199.486 136.807 197.218 137.364L174.841 119.197C174.469 118.9 174.073 118.652 173.627 118.479L85.7044 81.6385L74.9619 87.8755L169.141 127.34L187.727 142.425C185.534 144.652 184.307 147.35 184.307 150.197C184.307 152.053 184.84 153.835 185.807 155.481L135.972 185.713L144.323 192.235L194.046 162.064C197.181 163.314 200.824 163.995 204.59 163.995C207.477 163.995 210.29 163.586 212.855 162.844L244.797 188.782C246.135 189.871 247.944 190.18 249.568 189.611L335.693 159.329L385.218 181.11L455.062 243.789L464.046 238.542L391.252 173.214V173.165ZM212.83 152.164C210.748 153.365 207.75 154.058 204.603 154.058C201.456 154.058 198.37 153.352 196.252 152.127C194.74 151.261 194.232 150.419 194.232 150.172C194.232 149.924 194.728 149.12 196.177 148.278C198.259 147.078 201.257 146.385 204.405 146.385C207.552 146.385 210.637 147.09 212.756 148.316C214.267 149.182 214.775 150.023 214.775 150.283C214.775 150.543 214.28 151.335 212.83 152.177V152.164Z" fill="url(#paint2_linear_658_23149)"/>
<path d="M465.371 236.872L452.361 223.878L469.708 212.74L490.152 159.527L497.586 156.434L541.572 192.321L465.371 236.872Z" fill="#CFE4BD"/>
<path d="M135.167 182.421L103.572 158.909L100.474 135.396L86.8447 126.733L116.582 108.171L162.426 126.115L159.329 134.777L135.167 149.009L124.635 155.815L140.743 160.146L145.699 178.09L135.167 182.421Z" fill="#CFE4BD"/>
<path d="M400.124 146.843C399.913 146.843 399.703 146.793 399.492 146.707L397.225 145.692C396.444 145.345 396.097 144.43 396.444 143.65C396.791 142.87 397.708 142.524 398.488 142.87L400.756 143.885C401.537 144.232 401.883 145.147 401.537 145.927C401.276 146.496 400.719 146.843 400.124 146.843Z" fill="url(#paint3_linear_658_23149)"/>
<path d="M393.42 143.848C393.21 143.848 392.999 143.799 392.788 143.712L388.353 141.732C387.572 141.385 387.225 140.47 387.572 139.69C387.919 138.91 388.836 138.564 389.616 138.91L394.052 140.89C394.833 141.237 395.18 142.153 394.833 142.932C394.573 143.502 394.015 143.848 393.42 143.848Z" fill="url(#paint4_linear_658_23149)"/>
<path d="M380.175 140.173C379.654 140.173 379.146 139.913 378.849 139.43C378.403 138.7 378.638 137.747 379.369 137.302L381.488 136.015C381.922 135.755 382.455 135.718 382.925 135.928L385.193 136.943C385.973 137.289 386.32 138.205 385.974 138.985C385.627 139.764 384.71 140.111 383.929 139.764L382.405 139.084L380.98 139.95C380.732 140.098 380.447 140.173 380.175 140.173V140.173Z" fill="url(#paint5_linear_658_23149)"/>
<path d="M354.13 155.926C353.609 155.926 353.101 155.666 352.804 155.184C352.358 154.454 352.593 153.501 353.325 153.055L357.661 150.432C358.392 149.986 359.346 150.221 359.792 150.951C360.238 151.682 360.003 152.634 359.272 153.08L354.935 155.703C354.687 155.852 354.402 155.926 354.13 155.926V155.926ZM362.816 150.679C362.295 150.679 361.787 150.419 361.49 149.937C361.044 149.207 361.279 148.254 362.01 147.808L366.347 145.185C367.078 144.739 368.032 144.974 368.478 145.704C368.924 146.434 368.689 147.387 367.958 147.833L363.621 150.456C363.373 150.605 363.088 150.679 362.816 150.679V150.679ZM371.501 145.432C370.981 145.432 370.473 145.172 370.175 144.69C369.729 143.959 369.965 143.007 370.696 142.561L375.032 139.938C375.764 139.492 376.718 139.727 377.164 140.457C377.61 141.187 377.374 142.14 376.643 142.586L372.307 145.209C372.059 145.358 371.774 145.432 371.501 145.432V145.432Z" fill="url(#paint6_linear_658_23149)"/>
<path d="M347.662 159.837C347.476 159.837 347.303 159.8 347.129 159.738L344.8 158.884C343.995 158.587 343.586 157.696 343.883 156.891C344.181 156.087 345.073 155.679 345.878 155.976L347.501 156.57L348.988 155.679C349.719 155.233 350.673 155.468 351.119 156.198C351.565 156.929 351.33 157.881 350.599 158.327L348.48 159.614C348.232 159.762 347.96 159.837 347.675 159.837H347.662Z" fill="url(#paint7_linear_658_23149)"/>
<path d="M254.796 184.018C254.152 184.018 253.557 183.622 253.334 182.991C253.049 182.186 253.47 181.295 254.276 181.023L258.811 179.427C259.616 179.142 260.496 179.563 260.781 180.367C261.066 181.171 260.645 182.062 259.839 182.335L255.304 183.931C255.131 183.993 254.957 184.018 254.784 184.018H254.796ZM263.854 180.825C263.209 180.825 262.615 180.429 262.392 179.798C262.107 178.993 262.528 178.102 263.333 177.83L267.868 176.234C268.674 175.949 269.553 176.37 269.838 177.174C270.123 177.979 269.702 178.87 268.897 179.142L264.362 180.738C264.188 180.8 264.015 180.825 263.841 180.825H263.854ZM272.911 177.644C272.267 177.644 271.672 177.248 271.449 176.617C271.164 175.813 271.585 174.922 272.391 174.65L276.926 173.053C277.731 172.769 278.623 173.189 278.896 173.994C279.181 174.798 278.759 175.689 277.954 175.961L273.419 177.558C273.246 177.62 273.072 177.644 272.899 177.644H272.911ZM281.968 174.452C281.324 174.452 280.729 174.056 280.506 173.425C280.221 172.62 280.643 171.729 281.448 171.457L285.983 169.861C286.788 169.576 287.68 169.997 287.953 170.801C288.238 171.605 287.817 172.496 287.011 172.769L282.476 174.365C282.303 174.427 282.13 174.452 281.956 174.452H281.968ZM291.026 171.271C290.382 171.271 289.787 170.875 289.564 170.244C289.279 169.44 289.7 168.549 290.505 168.277L295.04 166.68C295.846 166.396 296.738 166.816 297.01 167.621C297.295 168.425 296.874 169.316 296.069 169.588L291.534 171.185C291.36 171.247 291.187 171.271 291.026 171.271V171.271ZM300.083 168.079C299.439 168.079 298.844 167.683 298.621 167.051C298.336 166.247 298.757 165.356 299.563 165.084L304.098 163.487C304.903 163.203 305.795 163.623 306.068 164.428C306.353 165.232 305.931 166.123 305.126 166.396L300.591 167.992C300.418 168.054 300.244 168.079 300.071 168.079H300.083ZM309.141 164.898C308.496 164.898 307.902 164.502 307.679 163.871C307.394 163.067 307.815 162.176 308.62 161.903L313.155 160.307C313.96 160.022 314.84 160.443 315.125 161.247C315.41 162.052 314.989 162.943 314.184 163.215L309.649 164.812C309.475 164.873 309.302 164.898 309.141 164.898V164.898ZM318.198 161.705C317.554 161.705 316.959 161.309 316.736 160.666C316.451 159.861 316.872 158.97 317.678 158.698L322.212 157.102C323.018 156.817 323.898 157.238 324.183 158.042C324.468 158.847 324.046 159.738 323.241 160.01L318.706 161.606C318.533 161.668 318.359 161.693 318.186 161.693L318.198 161.705ZM327.255 158.525C326.611 158.525 326.016 158.129 325.793 157.498C325.508 156.693 325.93 155.802 326.735 155.53L331.27 153.934C332.075 153.649 332.967 154.07 333.24 154.874C333.525 155.679 333.104 156.57 332.298 156.842L327.763 158.438C327.59 158.5 327.416 158.525 327.243 158.525H327.255ZM340.823 157.312C340.649 157.312 340.464 157.287 340.29 157.213L335.78 155.555C334.975 155.258 334.566 154.367 334.863 153.563C335.16 152.758 336.053 152.35 336.858 152.647L341.368 154.305C342.173 154.602 342.582 155.493 342.285 156.285C342.05 156.916 341.467 157.3 340.835 157.3L340.823 157.312Z" fill="url(#paint8_linear_658_23149)"/>
<path d="M247.92 186.443C247.573 186.443 247.226 186.319 246.941 186.097L245.02 184.537C244.351 183.993 244.252 183.028 244.797 182.359C245.342 181.691 246.309 181.592 246.978 182.137L248.229 183.151L249.753 182.619C250.559 182.335 251.438 182.755 251.723 183.56C252.008 184.364 251.587 185.255 250.782 185.527L248.44 186.344C248.266 186.406 248.093 186.431 247.932 186.431L247.92 186.443Z" fill="url(#paint9_linear_658_23149)"/>
<path d="M242.58 182.1C242.233 182.1 241.886 181.988 241.601 181.753L238.181 178.981C237.512 178.436 237.413 177.471 237.958 176.803C238.503 176.135 239.47 176.036 240.139 176.58L243.559 179.352C244.228 179.897 244.327 180.862 243.782 181.53C243.472 181.902 243.026 182.1 242.58 182.1ZM235.74 176.543C235.393 176.543 235.046 176.432 234.762 176.197L231.342 173.425C230.673 172.88 230.574 171.915 231.119 171.247C231.664 170.578 232.63 170.479 233.299 171.024L236.719 173.796C237.388 174.34 237.487 175.306 236.942 175.974C236.632 176.345 236.186 176.543 235.74 176.543ZM228.901 170.999C228.554 170.999 228.207 170.888 227.922 170.653L224.502 167.881C223.833 167.336 223.734 166.371 224.279 165.703C224.824 165.034 225.791 164.935 226.46 165.48L229.88 168.252C230.549 168.796 230.648 169.762 230.103 170.43C229.793 170.801 229.347 170.999 228.901 170.999ZM222.061 165.443C221.714 165.443 221.367 165.331 221.082 165.096L217.663 162.324C216.994 161.78 216.895 160.814 217.44 160.146C217.985 159.478 218.951 159.379 219.62 159.923L223.04 162.695C223.709 163.24 223.808 164.205 223.263 164.873C222.953 165.245 222.507 165.443 222.061 165.443Z" fill="url(#paint10_linear_658_23149)"/>
<path d="M215.246 159.899C214.899 159.899 214.552 159.787 214.267 159.552L212.347 157.993C211.975 157.696 211.764 157.238 211.777 156.768C211.777 156.297 212.012 155.852 212.384 155.567C212.384 155.567 213.127 154.998 213.958 154.058C214.528 153.414 215.506 153.365 216.138 153.921C216.783 154.491 216.832 155.468 216.275 156.099C216.076 156.322 215.89 156.533 215.705 156.718L216.237 157.151C216.907 157.683 217.006 158.661 216.46 159.329C216.151 159.701 215.705 159.899 215.259 159.899H215.246Z" fill="url(#paint11_linear_658_23149)"/>
<path d="M217.427 152.808C217.266 152.808 217.105 152.783 216.944 152.733C216.126 152.474 215.692 151.595 215.952 150.778C216.138 150.221 216.225 149.689 216.225 149.169C216.225 148.575 216.113 148.019 215.878 147.449C215.543 146.657 215.915 145.754 216.708 145.42C217.501 145.086 218.406 145.457 218.74 146.249C219.137 147.177 219.335 148.167 219.335 149.157C219.335 149.999 219.186 150.865 218.914 151.719C218.703 152.375 218.096 152.783 217.439 152.783L217.427 152.808ZM214.49 144.949C214.156 144.949 213.821 144.838 213.549 144.628C212.582 143.885 211.393 143.291 210.03 142.858C209.212 142.598 208.766 141.732 209.014 140.915C209.274 140.098 210.141 139.653 210.959 139.9C212.669 140.445 214.181 141.2 215.444 142.177C216.126 142.697 216.25 143.675 215.729 144.343C215.42 144.739 214.961 144.949 214.503 144.949H214.49ZM206.065 142.091C206.065 142.091 205.978 142.091 205.941 142.091C204.566 141.979 203.042 141.979 201.666 142.066C200.787 142.14 200.08 141.472 200.018 140.618C199.969 139.764 200.613 139.034 201.468 138.972C202.992 138.873 204.677 138.873 206.201 138.997C207.056 139.071 207.688 139.814 207.614 140.668C207.552 141.472 206.87 142.091 206.065 142.091V142.091Z" fill="url(#paint12_linear_658_23149)"/>
<path d="M194.641 143.13C194.282 143.13 193.923 143.007 193.65 142.771L191.754 141.175C191.097 140.631 191.011 139.653 191.568 138.997C192.114 138.341 193.092 138.255 193.749 138.811L195.05 139.9C195.484 139.801 196.078 139.678 196.797 139.554C197.64 139.393 198.445 139.962 198.594 140.804C198.742 141.645 198.185 142.45 197.342 142.598C195.942 142.846 195.062 143.081 195.05 143.081C194.914 143.118 194.777 143.13 194.641 143.13V143.13Z" fill="url(#paint13_linear_658_23149)"/>
<path d="M188.842 138.267C188.495 138.267 188.136 138.143 187.851 137.908L183.948 134.641C183.291 134.097 183.204 133.119 183.762 132.463C184.307 131.807 185.286 131.721 185.942 132.277L189.845 135.544C190.502 136.089 190.589 137.067 190.031 137.722C189.721 138.081 189.288 138.279 188.842 138.279V138.267Z" fill="url(#paint14_linear_658_23149)"/>
<path d="M181.049 131.721C180.702 131.721 180.342 131.597 180.057 131.362L178.162 129.765C177.778 129.443 177.567 128.948 177.617 128.441C177.666 127.934 177.951 127.488 178.385 127.241L180.528 126.003C181.259 125.57 182.213 125.83 182.647 126.56C183.081 127.303 182.821 128.243 182.089 128.676L181.854 128.812L182.065 128.986C182.721 129.53 182.808 130.508 182.251 131.164C181.941 131.523 181.507 131.721 181.061 131.721H181.049Z" fill="url(#paint15_linear_658_23149)"/>
<path d="M185.088 126.684C184.555 126.684 184.035 126.412 183.75 125.917C183.316 125.174 183.576 124.234 184.307 123.8L188.099 121.598C188.842 121.165 189.784 121.424 190.218 122.155C190.651 122.897 190.391 123.838 189.66 124.271L185.868 126.473C185.621 126.61 185.36 126.684 185.088 126.684ZM192.671 122.291C192.138 122.291 191.618 122.018 191.333 121.523C190.899 120.781 191.159 119.84 191.89 119.407L195.682 117.205C196.425 116.771 197.367 117.031 197.8 117.761C198.234 118.504 197.974 119.444 197.243 119.878L193.451 122.08C193.204 122.216 192.943 122.291 192.671 122.291ZM200.254 117.898C199.721 117.898 199.201 117.625 198.916 117.13C198.482 116.388 198.742 115.447 199.473 115.014L203.265 112.811C204.008 112.378 204.95 112.638 205.383 113.368C205.817 114.111 205.557 115.051 204.826 115.484L201.034 117.687C200.787 117.823 200.526 117.898 200.254 117.898ZM207.837 113.504C207.304 113.504 206.783 113.232 206.499 112.737C206.065 111.995 206.325 111.054 207.056 110.621L210.848 108.418C211.591 107.985 212.533 108.245 212.966 108.975C213.4 109.718 213.14 110.658 212.409 111.091L208.617 113.294C208.369 113.43 208.109 113.504 207.837 113.504Z" fill="url(#paint16_linear_658_23149)"/>
<path d="M215.42 109.099C214.887 109.099 214.367 108.827 214.082 108.332C213.648 107.589 213.908 106.649 214.639 106.215L215.742 105.572L215.395 104.334C215.16 103.518 215.643 102.664 216.473 102.429C217.291 102.206 218.146 102.676 218.381 103.505L219.05 105.894C219.236 106.574 218.951 107.292 218.332 107.651L216.188 108.888C215.94 109.025 215.68 109.099 215.408 109.099H215.42Z" fill="url(#paint17_linear_658_23149)"/>
<path d="M215.668 101.067C214.986 101.067 214.367 100.622 214.181 99.9413L212.954 95.5481C212.719 94.719 213.202 93.8775 214.032 93.6423C214.85 93.4072 215.705 93.8898 215.94 94.719L217.167 99.1121C217.402 99.9413 216.919 100.783 216.089 101.018C215.953 101.055 215.804 101.08 215.668 101.08V101.067Z" fill="url(#paint18_linear_658_23149)"/>
<path d="M213.214 92.2687C212.533 92.2687 211.913 91.8232 211.727 91.1426L211.058 88.7542C210.86 88.0488 211.182 87.3063 211.826 86.9722L214.019 85.8213C214.775 85.4253 215.717 85.7099 216.113 86.4648C216.51 87.2197 216.225 88.1602 215.469 88.5562L214.379 89.1254L214.713 90.3134C214.949 91.1302 214.465 91.9841 213.635 92.2192C213.499 92.2563 213.363 92.2811 213.214 92.2811V92.2687Z" fill="url(#paint19_linear_658_23149)"/>
<path d="M219.633 86.0688C219.075 86.0688 218.542 85.7718 218.257 85.2396C217.861 84.4848 218.146 83.5443 218.914 83.1483L222.012 81.6261C222.767 81.2301 223.709 81.5147 224.106 82.282C224.502 83.0369 224.217 83.9774 223.449 84.3734L220.351 85.8955C220.116 86.0193 219.88 86.0688 219.633 86.0688V86.0688Z" fill="url(#paint20_linear_658_23149)"/>
<path d="M227.649 83.7918C226.15 84.658 223.709 84.6456 222.209 83.7918C220.698 82.9255 220.698 81.5147 222.197 80.6485C223.696 79.7822 226.137 79.7946 227.636 80.6485C229.148 81.5147 229.148 82.9255 227.649 83.7918Z" fill="url(#paint21_linear_658_23149)"/>
<path d="M406.938 236.661L429.241 223.457L402.391 198.707L394.548 204.078L409.416 220.574L399.504 226.761L406.938 236.661Z" fill="#D1D3D4"/>
<path d="M352.421 299.366L374.723 286.162L354.279 268.218L346.424 273.576L344.986 289.466L352.421 299.366Z" fill="#D1D3D4"/>
<path d="M385.875 143.44L368.107 154.577L379.866 161.161L391.067 157.844L403.631 164.886L417.26 157.052L385.875 143.44Z" fill="#D1D3D4"/>
<path d="M177.295 80.3268L172.339 83.6185L195.881 93.9394L200.837 88.9893L196.302 80.3268H177.295Z" fill="#D1D3D4"/>
<path d="M194.641 188.398L212.409 177.261L205.384 170.244L197.949 174.377L190.924 167.769L177.716 175.615L194.641 188.398Z" fill="#D1D3D4"/>
<path d="M316.067 106.314L333.005 94.7561L316.067 79.906L310.293 85.2768L319.375 92.2811L311.532 98.8894L316.067 106.314Z" fill="#D1D3D4"/>
<path d="M441.21 212.32L453.6 204.486L453.192 184.686L443.688 183.04L441.21 195.824L436.675 199.128L416.429 181.382L409.825 185.094L441.21 212.32Z" fill="#D1D3D4"/>
<path d="M249.159 175.615L262.789 168.598L247.102 137.661L234.712 144.256L234.291 153.34L227.687 158.29L249.159 175.615Z" fill="#D1D3D4"/>
<g style="mix-blend-mode:multiply">
<path d="M393.507 101.501L313.676 39.6622L97.9219 163.834L178.992 227.095L393.507 101.501Z" fill="#C8CACC"/>
</g>
<g style="mix-blend-mode:multiply">
<path d="M258.848 254.061L337.923 319.277L554 193.138L474.949 128.651L258.848 254.061Z" fill="#C8CACC"/>
</g>
<path style="mix-blend-mode:multiply" d="M407.199 160.814C425.011 160.814 439.451 153.457 439.451 144.38C439.451 135.304 425.011 127.946 407.199 127.946C389.386 127.946 374.946 135.304 374.946 144.38C374.946 153.457 389.386 160.814 407.199 160.814Z" fill="url(#paint22_radial_658_23149)"/>
<path d="M407.694 21.5451C397.187 15.4813 387.77 15.308 381.24 19.8373L373.682 23.3518L374.611 28.1905C372.988 31.9278 372.071 36.4818 372.071 41.8155C372.071 57.2596 380.336 81.6138 388.91 102.726L397.843 149.306L407.694 144.38C407.694 144.38 443.304 114.94 443.304 82.8884C443.304 60.341 427.357 32.8806 407.694 21.5327V21.5451Z" fill="url(#paint23_linear_658_23149)"/>
<path d="M433.453 87.8137C433.453 119.865 397.843 149.306 397.843 149.306C397.843 149.306 362.233 78.7923 362.233 46.7408C362.233 24.1933 378.18 15.1224 397.843 26.458C417.507 37.8059 433.453 65.2663 433.453 87.8137Z" fill="url(#paint24_linear_658_23149)"/>
<path style="mix-blend-mode:color-dodge" d="M400.098 25.2328C389.827 19.3052 380.596 18.9958 374.091 23.2281C380.398 20.3818 388.699 21.1985 397.843 26.458C417.507 37.8059 433.453 65.2663 433.453 87.8137C433.453 115.286 407.322 140.804 399.838 147.561C399.987 147.87 400.098 148.08 400.098 148.08C400.098 148.08 435.708 118.64 435.708 86.5886C435.708 64.0411 419.762 36.5808 400.098 25.2328Z" fill="url(#paint25_radial_658_23149)"/>
<path d="M413.331 76.2058C413.331 86.0069 406.393 89.9546 397.843 85.0293C389.294 80.0916 382.355 68.1497 382.355 58.3486C382.355 48.5475 389.294 44.5998 397.843 49.5251C406.393 54.4628 413.331 66.4048 413.331 76.2058V76.2058Z" fill="url(#paint26_linear_658_23149)"/>
<g style="mix-blend-mode:multiply">
<path d="M402.626 82.8265C394.077 77.8889 387.138 65.9469 387.138 56.1458C387.138 52.26 388.241 49.3148 390.087 47.4585C385.478 47.8669 382.368 51.7898 382.368 58.3486C382.368 68.1497 389.307 80.0916 397.856 85.0293C403.023 88.0117 407.583 87.7271 410.395 84.8932C408.115 85.1035 405.464 84.46 402.626 82.8265Z" fill="#D1D3D4"/>
</g>
</g>
<defs>
<linearGradient id="paint0_linear_658_23149" x1="408.512" y1="407.165" x2="185.09" y2="-22.885" gradientUnits="userSpaceOnUse">
<stop offset="0.08" stop-color="#F0EFF2"/>
<stop offset="1" stop-color="white"/>
</linearGradient>
<linearGradient id="paint1_linear_658_23149" x1="182.87" y1="327.544" x2="341.972" y2="-20.7658" gradientUnits="userSpaceOnUse">
<stop offset="0.04" stop-color="#138BBD"/>
<stop offset="0.23" stop-color="#169AC6"/>
<stop offset="0.59" stop-color="#1EC2DF"/>
<stop offset="1" stop-color="#2AF6FF"/>
</linearGradient>
<linearGradient id="paint2_linear_658_23149" x1="300.319" y1="158.364" x2="-29.5641" y2="19.0501" gradientUnits="userSpaceOnUse">
<stop offset="0.04" stop-color="#FFA98C"/>
<stop offset="0.32" stop-color="#FEB892"/>
<stop offset="0.86" stop-color="#FEE0A3"/>
<stop offset="1" stop-color="#FEECA8"/>
</linearGradient>
<linearGradient id="paint3_linear_658_23149" x1="401.574" y1="146.496" x2="185.215" y2="2.69809" gradientUnits="userSpaceOnUse">
<stop offset="0.04" stop-color="#9F19AB"/>
<stop offset="0.24" stop-color="#AE24B0"/>
<stop offset="0.65" stop-color="#D643BF"/>
<stop offset="1" stop-color="#FF63CE"/>
</linearGradient>
<linearGradient id="paint4_linear_658_23149" x1="400.793" y1="147.672" x2="184.434" y2="3.87381" gradientUnits="userSpaceOnUse">
<stop offset="0.04" stop-color="#9F19AB"/>
<stop offset="0.24" stop-color="#AE24B0"/>
<stop offset="0.65" stop-color="#D643BF"/>
<stop offset="1" stop-color="#FF63CE"/>
</linearGradient>
<linearGradient id="paint5_linear_658_23149" x1="399.392" y1="149.776" x2="183.034" y2="5.97789" gradientUnits="userSpaceOnUse">
<stop offset="0.04" stop-color="#9F19AB"/>
<stop offset="0.24" stop-color="#AE24B0"/>
<stop offset="0.65" stop-color="#D643BF"/>
<stop offset="1" stop-color="#FF63CE"/>
</linearGradient>
<linearGradient id="paint6_linear_658_23149" x1="389.765" y1="164.255" x2="173.406" y2="20.4445" gradientUnits="userSpaceOnUse">
<stop offset="0.04" stop-color="#9F19AB"/>
<stop offset="0.24" stop-color="#AE24B0"/>
<stop offset="0.65" stop-color="#D643BF"/>
<stop offset="1" stop-color="#FF63CE"/>
</linearGradient>
<linearGradient id="paint7_linear_658_23149" x1="380.1" y1="178.795" x2="163.742" y2="34.9979" gradientUnits="userSpaceOnUse">
<stop offset="0.04" stop-color="#9F19AB"/>
<stop offset="0.24" stop-color="#AE24B0"/>
<stop offset="0.65" stop-color="#D643BF"/>
<stop offset="1" stop-color="#FF63CE"/>
</linearGradient>
<linearGradient id="paint8_linear_658_23149" x1="359.396" y1="209.956" x2="143.038" y2="66.1582" gradientUnits="userSpaceOnUse">
<stop offset="0.04" stop-color="#9F19AB"/>
<stop offset="0.24" stop-color="#AE24B0"/>
<stop offset="0.65" stop-color="#D643BF"/>
<stop offset="1" stop-color="#FF63CE"/>
</linearGradient>
<linearGradient id="paint9_linear_658_23149" x1="337.403" y1="243.035" x2="121.044" y2="99.2371" gradientUnits="userSpaceOnUse">
<stop offset="0.04" stop-color="#9F19AB"/>
<stop offset="0.24" stop-color="#AE24B0"/>
<stop offset="0.65" stop-color="#D643BF"/>
<stop offset="1" stop-color="#FF63CE"/>
</linearGradient>
<linearGradient id="paint10_linear_658_23149" x1="338.048" y1="242.069" x2="121.689" y2="98.2715" gradientUnits="userSpaceOnUse">
<stop offset="0.04" stop-color="#9F19AB"/>
<stop offset="0.24" stop-color="#AE24B0"/>
<stop offset="0.65" stop-color="#D643BF"/>
<stop offset="1" stop-color="#FF63CE"/>
</linearGradient>
<linearGradient id="paint11_linear_658_23149" x1="339.844" y1="239.372" x2="123.485" y2="95.5739" gradientUnits="userSpaceOnUse">
<stop offset="0.04" stop-color="#9F19AB"/>
<stop offset="0.24" stop-color="#AE24B0"/>
<stop offset="0.65" stop-color="#D643BF"/>
<stop offset="1" stop-color="#FF63CE"/>
</linearGradient>
<linearGradient id="paint12_linear_658_23149" x1="344.429" y1="232.479" x2="128.07" y2="88.6807" gradientUnits="userSpaceOnUse">
<stop offset="0.04" stop-color="#9F19AB"/>
<stop offset="0.24" stop-color="#AE24B0"/>
<stop offset="0.65" stop-color="#D643BF"/>
<stop offset="1" stop-color="#FF63CE"/>
</linearGradient>
<linearGradient id="paint13_linear_658_23149" x1="341.034" y1="237.577" x2="124.675" y2="93.7796" gradientUnits="userSpaceOnUse">
<stop offset="0.04" stop-color="#9F19AB"/>
<stop offset="0.24" stop-color="#AE24B0"/>
<stop offset="0.65" stop-color="#D643BF"/>
<stop offset="1" stop-color="#FF63CE"/>
</linearGradient>
<linearGradient id="paint14_linear_658_23149" x1="341.169" y1="237.367" x2="124.823" y2="93.5691" gradientUnits="userSpaceOnUse">
<stop offset="0.04" stop-color="#9F19AB"/>
<stop offset="0.24" stop-color="#AE24B0"/>
<stop offset="0.65" stop-color="#D643BF"/>
<stop offset="1" stop-color="#FF63CE"/>
</linearGradient>
<linearGradient id="paint15_linear_658_23149" x1="342.335" y1="235.609" x2="125.988" y2="91.8119" gradientUnits="userSpaceOnUse">
<stop offset="0.04" stop-color="#9F19AB"/>
<stop offset="0.24" stop-color="#AE24B0"/>
<stop offset="0.65" stop-color="#D643BF"/>
<stop offset="1" stop-color="#FF63CE"/>
</linearGradient>
<linearGradient id="paint16_linear_658_23149" x1="352.817" y1="219.844" x2="136.458" y2="76.0459" gradientUnits="userSpaceOnUse">
<stop offset="0.04" stop-color="#9F19AB"/>
<stop offset="0.24" stop-color="#AE24B0"/>
<stop offset="0.65" stop-color="#D643BF"/>
<stop offset="1" stop-color="#FF63CE"/>
</linearGradient>
<linearGradient id="paint17_linear_658_23149" x1="363.659" y1="203.533" x2="147.3" y2="59.7358" gradientUnits="userSpaceOnUse">
<stop offset="0.04" stop-color="#9F19AB"/>
<stop offset="0.24" stop-color="#AE24B0"/>
<stop offset="0.65" stop-color="#D643BF"/>
<stop offset="1" stop-color="#FF63CE"/>
</linearGradient>
<linearGradient id="paint18_linear_658_23149" x1="367.203" y1="198.2" x2="150.844" y2="54.4015" gradientUnits="userSpaceOnUse">
<stop offset="0.04" stop-color="#9F19AB"/>
<stop offset="0.24" stop-color="#AE24B0"/>
<stop offset="0.65" stop-color="#D643BF"/>
<stop offset="1" stop-color="#FF63CE"/>
</linearGradient>
<linearGradient id="paint19_linear_658_23149" x1="370.733" y1="192.891" x2="154.375" y2="49.0805" gradientUnits="userSpaceOnUse">
<stop offset="0.04" stop-color="#9F19AB"/>
<stop offset="0.24" stop-color="#AE24B0"/>
<stop offset="0.65" stop-color="#D643BF"/>
<stop offset="1" stop-color="#FF63CE"/>
</linearGradient>
<linearGradient id="paint20_linear_658_23149" x1="375.343" y1="185.961" x2="158.984" y2="42.163" gradientUnits="userSpaceOnUse">
<stop offset="0.04" stop-color="#9F19AB"/>
<stop offset="0.24" stop-color="#AE24B0"/>
<stop offset="0.65" stop-color="#D643BF"/>
<stop offset="1" stop-color="#FF63CE"/>
</linearGradient>
<linearGradient id="paint21_linear_658_23149" x1="377.189" y1="183.176" x2="160.83" y2="39.3785" gradientUnits="userSpaceOnUse">
<stop offset="0.04" stop-color="#9F19AB"/>
<stop offset="0.24" stop-color="#AE24B0"/>
<stop offset="0.65" stop-color="#D643BF"/>
<stop offset="1" stop-color="#FF63CE"/>
</linearGradient>
<radialGradient id="paint22_radial_658_23149" cx="0" cy="0" r="1" gradientUnits="userSpaceOnUse" gradientTransform="translate(406.454 153.545) scale(32.224 16.3648)">
<stop stop-color="#C7C8C9"/>
<stop offset="1" stop-color="white"/>
</radialGradient>
<linearGradient id="paint23_linear_658_23149" x1="431.459" y1="134.53" x2="380.256" y2="18.0581" gradientUnits="userSpaceOnUse">
<stop offset="0.04" stop-color="#9F19AB"/>
<stop offset="0.16" stop-color="#AE24B0"/>
<stop offset="0.41" stop-color="#D643BF"/>
<stop offset="0.63" stop-color="#FF63CE"/>
<stop offset="0.87" stop-color="#DC48C1"/>
</linearGradient>
<linearGradient id="paint24_linear_658_23149" x1="341.219" y1="122.278" x2="440.864" y2="41.0018" gradientUnits="userSpaceOnUse">
<stop offset="0.04" stop-color="#9F19AB"/>
<stop offset="0.24" stop-color="#AE24B0"/>
<stop offset="0.65" stop-color="#D643BF"/>
<stop offset="1" stop-color="#FF63CE"/>
</linearGradient>
<radialGradient id="paint25_radial_658_23149" cx="0" cy="0" r="1" gradientUnits="userSpaceOnUse" gradientTransform="translate(415.574 65.3653) scale(50.1811 50.1191)">
<stop stop-color="white"/>
<stop offset="1"/>
</radialGradient>
<linearGradient id="paint26_linear_658_23149" x1="-934.676" y1="-689.31" x2="-948.049" y2="-720.985" gradientUnits="userSpaceOnUse">
<stop stop-color="#D4D1D8"/>
<stop offset="1" stop-color="white"/>
</linearGradient>
<clipPath id="clip0_658_23149">
<rect width="554" height="322" fill="white"/>
</clipPath>
</defs>
</svg>
