<svg width="605" height="76" viewBox="0 0 605 76" fill="none" xmlns="http://www.w3.org/2000/svg">
<path d="M53.7273 29.9091C53.7273 36.178 52.553 41.5473 50.2045 46.017C47.875 50.4678 44.6932 53.8769 40.6591 56.2443C36.6439 58.6117 32.089 59.7955 26.9943 59.7955C21.8996 59.7955 17.3352 58.6117 13.3011 56.2443C9.28599 53.858 6.10417 50.4394 3.75568 45.9886C1.42614 41.5189 0.261364 36.1591 0.261364 29.9091C0.261364 23.6402 1.42614 18.2803 3.75568 13.8295C6.10417 9.35985 9.28599 5.94129 13.3011 3.57386C17.3352 1.20644 21.8996 0.0227251 26.9943 0.0227251C32.089 0.0227251 36.6439 1.20644 40.6591 3.57386C44.6932 5.94129 47.875 9.35985 50.2045 13.8295C52.553 18.2803 53.7273 23.6402 53.7273 29.9091ZM43.1307 29.9091C43.1307 25.4962 42.4394 21.7746 41.0568 18.7443C39.6932 15.6951 37.7992 13.3939 35.375 11.8409C32.9508 10.2689 30.1572 9.48295 26.9943 9.48295C23.8314 9.48295 21.0379 10.2689 18.6136 11.8409C16.1894 13.3939 14.286 15.6951 12.9034 18.7443C11.5398 21.7746 10.858 25.4962 10.858 29.9091C10.858 34.322 11.5398 38.053 12.9034 41.1023C14.286 44.1326 16.1894 46.4337 18.6136 48.0057C21.0379 49.5587 23.8314 50.3352 26.9943 50.3352C30.1572 50.3352 32.9508 49.5587 35.375 48.0057C37.7992 46.4337 39.6932 44.1326 41.0568 41.1023C42.4394 38.053 43.1307 34.322 43.1307 29.9091ZM61.4696 75.3636V15.3636H71.5832V22.5795H72.1798C72.7101 21.5189 73.4582 20.392 74.4241 19.1989C75.39 17.9867 76.6969 16.9545 78.3446 16.1023C79.9923 15.2311 82.0946 14.7955 84.6514 14.7955C88.0226 14.7955 91.0624 15.6572 93.7707 17.3807C96.498 19.0852 98.6571 21.6136 100.248 24.9659C101.858 28.2992 102.663 32.3902 102.663 37.2386C102.663 42.0303 101.877 46.1023 100.305 49.4545C98.7328 52.8068 96.5927 55.3636 93.8844 57.125C91.176 58.8864 88.1078 59.767 84.6798 59.767C82.1798 59.767 80.1059 59.3504 78.4582 58.517C76.8105 57.6837 75.4847 56.6799 74.4809 55.5057C73.4961 54.3125 72.7291 53.1856 72.1798 52.125H71.7537V75.3636H61.4696ZM71.5548 37.1818C71.5548 40.0038 71.9525 42.4754 72.748 44.5966C73.5624 46.7178 74.7272 48.375 76.2423 49.5682C77.7764 50.7424 79.6325 51.3295 81.8105 51.3295C84.0832 51.3295 85.9866 50.7235 87.5207 49.5114C89.0548 48.2803 90.2101 46.6042 90.9866 44.483C91.7821 42.3428 92.1798 39.9091 92.1798 37.1818C92.1798 34.4735 91.7916 32.0682 91.015 29.9659C90.2385 27.8636 89.0832 26.2159 87.5491 25.0227C86.015 23.8295 84.1022 23.233 81.8105 23.233C79.6135 23.233 77.748 23.8106 76.2139 24.9659C74.6798 26.1212 73.515 27.7405 72.7196 29.8239C71.9431 31.9072 71.5548 34.3598 71.5548 37.1818ZM129.02 59.8523C124.645 59.8523 120.867 58.9432 117.685 57.125C114.522 55.2879 112.088 52.6932 110.384 49.3409C108.679 45.9697 107.827 42.0019 107.827 37.4375C107.827 32.9489 108.679 29.0095 110.384 25.6193C112.107 22.2102 114.513 19.5587 117.6 17.6648C120.687 15.7519 124.314 14.7955 128.48 14.7955C131.17 14.7955 133.708 15.2311 136.094 16.1023C138.499 16.9545 140.621 18.2803 142.458 20.0795C144.314 21.8788 145.772 24.1705 146.833 26.9545C147.893 29.7197 148.424 33.0152 148.424 36.8409V39.9943H112.656V33.0625H138.566C138.547 31.0928 138.121 29.3409 137.287 27.8068C136.454 26.2538 135.289 25.0322 133.793 24.142C132.316 23.2519 130.592 22.8068 128.622 22.8068C126.52 22.8068 124.674 23.3182 123.083 24.3409C121.492 25.3447 120.251 26.6705 119.361 28.3182C118.49 29.947 118.045 31.7367 118.026 33.6875V39.7386C118.026 42.2765 118.49 44.4545 119.418 46.2727C120.346 48.072 121.643 49.4545 123.31 50.4205C124.977 51.3674 126.927 51.8409 129.162 51.8409C130.658 51.8409 132.013 51.6326 133.225 51.2159C134.437 50.7803 135.488 50.1458 136.378 49.3125C137.268 48.4792 137.941 47.447 138.395 46.2159L147.997 47.2955C147.391 49.8333 146.236 52.0492 144.532 53.9432C142.846 55.8182 140.687 57.2765 138.054 58.3182C135.422 59.3409 132.41 59.8523 129.02 59.8523ZM165.64 33.4318V59H155.356V15.3636H165.186V22.7784H165.697C166.701 20.3352 168.301 18.3939 170.498 16.9545C172.714 15.5152 175.451 14.7955 178.708 14.7955C181.72 14.7955 184.343 15.4394 186.578 16.7273C188.832 18.0152 190.574 19.8807 191.805 22.3239C193.055 24.767 193.671 27.7311 193.652 31.2159V59H183.368V32.8068C183.368 29.8902 182.61 27.608 181.095 25.9602C179.599 24.3125 177.525 23.4886 174.873 23.4886C173.074 23.4886 171.474 23.8864 170.072 24.6818C168.69 25.4583 167.601 26.5852 166.805 28.0625C166.029 29.5398 165.64 31.3295 165.64 33.4318ZM234.412 16.8125C234.147 14.3314 233.03 12.3996 231.06 11.017C229.109 9.63447 226.572 8.94318 223.447 8.94318C221.25 8.94318 219.365 9.27462 217.793 9.9375C216.221 10.6004 215.018 11.5 214.185 12.6364C213.352 13.7727 212.926 15.0701 212.907 16.5284C212.907 17.7405 213.181 18.7917 213.731 19.6818C214.299 20.572 215.066 21.3295 216.032 21.9545C216.998 22.5606 218.068 23.072 219.242 23.4886C220.416 23.9053 221.6 24.2557 222.793 24.5398L228.248 25.9034C230.445 26.4148 232.556 27.1061 234.583 27.9773C236.628 28.8485 238.456 29.947 240.066 31.2727C241.695 32.5985 242.983 34.1989 243.929 36.0739C244.876 37.9489 245.35 40.1458 245.35 42.6648C245.35 46.0739 244.479 49.0758 242.736 51.6705C240.994 54.2462 238.475 56.2633 235.179 57.7216C231.903 59.161 227.935 59.8807 223.276 59.8807C218.75 59.8807 214.82 59.1799 211.486 57.7784C208.172 56.3769 205.577 54.3314 203.702 51.642C201.846 48.9527 200.842 45.6761 200.691 41.8125H211.06C211.212 43.839 211.837 45.5246 212.935 46.8693C214.034 48.214 215.464 49.2178 217.225 49.8807C219.005 50.5436 220.994 50.875 223.191 50.875C225.483 50.875 227.49 50.5341 229.214 49.8523C230.956 49.1515 232.32 48.1856 233.304 46.9545C234.289 45.7045 234.791 44.2462 234.81 42.5795C234.791 41.0644 234.346 39.8144 233.475 38.8295C232.604 37.8258 231.382 36.9924 229.81 36.3295C228.257 35.6477 226.439 35.0417 224.356 34.5114L217.736 32.8068C212.945 31.5758 209.157 29.7102 206.373 27.2102C203.608 24.6913 202.225 21.3485 202.225 17.1818C202.225 13.7538 203.153 10.7519 205.009 8.17614C206.884 5.60038 209.431 3.60227 212.651 2.18182C215.871 0.742422 219.517 0.0227251 223.589 0.0227251C227.717 0.0227251 231.335 0.742422 234.441 2.18182C237.566 3.60227 240.018 5.58144 241.799 8.11932C243.579 10.6383 244.498 13.536 244.554 16.8125H234.412ZM274.314 15.3636V23.3182H249.229V15.3636H274.314ZM255.422 4.90909H265.706V45.875C265.706 47.2576 265.914 48.3182 266.331 49.0568C266.766 49.7765 267.335 50.2689 268.035 50.5341C268.736 50.7992 269.513 50.9318 270.365 50.9318C271.009 50.9318 271.596 50.8845 272.126 50.7898C272.676 50.6951 273.092 50.6098 273.376 50.5341L275.109 58.5739C274.56 58.7633 273.774 58.9716 272.751 59.1989C271.748 59.4261 270.516 59.5587 269.058 59.5966C266.482 59.6723 264.162 59.2841 262.098 58.4318C260.034 57.5606 258.395 56.2159 257.183 54.3977C255.99 52.5795 255.403 50.3068 255.422 47.5795V4.90909ZM281.147 59V15.3636H291.119V22.6364H291.573C292.369 20.1174 293.732 18.1761 295.664 16.8125C297.615 15.4299 299.84 14.7386 302.34 14.7386C302.908 14.7386 303.543 14.767 304.244 14.8239C304.963 14.8617 305.56 14.928 306.033 15.0227V24.483C305.598 24.3314 304.907 24.1989 303.96 24.0852C303.032 23.9527 302.132 23.8864 301.261 23.8864C299.386 23.8864 297.7 24.2936 296.204 25.108C294.727 25.9034 293.562 27.0114 292.71 28.4318C291.857 29.8523 291.431 31.4905 291.431 33.3466V59H281.147ZM328.619 59.8523C324.244 59.8523 320.466 58.9432 317.284 57.125C314.121 55.2879 311.688 52.6932 309.983 49.3409C308.279 45.9697 307.426 42.0019 307.426 37.4375C307.426 32.9489 308.279 29.0095 309.983 25.6193C311.707 22.2102 314.112 19.5587 317.199 17.6648C320.286 15.7519 323.913 14.7955 328.08 14.7955C330.769 14.7955 333.307 15.2311 335.693 16.1023C338.099 16.9545 340.22 18.2803 342.057 20.0795C343.913 21.8788 345.371 24.1705 346.432 26.9545C347.493 29.7197 348.023 33.0152 348.023 36.8409V39.9943H312.256V33.0625H338.165C338.146 31.0928 337.72 29.3409 336.887 27.8068C336.053 26.2538 334.888 25.0322 333.392 24.142C331.915 23.2519 330.191 22.8068 328.222 22.8068C326.119 22.8068 324.273 23.3182 322.682 24.3409C321.091 25.3447 319.851 26.6705 318.96 28.3182C318.089 29.947 317.644 31.7367 317.625 33.6875V39.7386C317.625 42.2765 318.089 44.4545 319.017 46.2727C319.945 48.072 321.243 49.4545 322.909 50.4205C324.576 51.3674 326.527 51.8409 328.762 51.8409C330.258 51.8409 331.612 51.6326 332.824 51.2159C334.036 50.7803 335.087 50.1458 335.977 49.3125C336.868 48.4792 337.54 47.447 337.994 46.2159L347.597 47.2955C346.991 49.8333 345.835 52.0492 344.131 53.9432C342.445 55.8182 340.286 57.2765 337.654 58.3182C335.021 59.3409 332.01 59.8523 328.619 59.8523ZM374.274 59.8523C369.899 59.8523 366.12 58.9432 362.938 57.125C359.776 55.2879 357.342 52.6932 355.637 49.3409C353.933 45.9697 353.081 42.0019 353.081 37.4375C353.081 32.9489 353.933 29.0095 355.637 25.6193C357.361 22.2102 359.766 19.5587 362.853 17.6648C365.94 15.7519 369.567 14.7955 373.734 14.7955C376.423 14.7955 378.961 15.2311 381.348 16.1023C383.753 16.9545 385.874 18.2803 387.711 20.0795C389.567 21.8788 391.026 24.1705 392.086 26.9545C393.147 29.7197 393.677 33.0152 393.677 36.8409V39.9943H357.91V33.0625H383.819C383.8 31.0928 383.374 29.3409 382.541 27.8068C381.707 26.2538 380.543 25.0322 379.046 24.142C377.569 23.2519 375.846 22.8068 373.876 22.8068C371.774 22.8068 369.927 23.3182 368.336 24.3409C366.745 25.3447 365.505 26.6705 364.615 28.3182C363.743 29.947 363.298 31.7367 363.279 33.6875V39.7386C363.279 42.2765 363.743 44.4545 364.671 46.2727C365.599 48.072 366.897 49.4545 368.563 50.4205C370.23 51.3674 372.181 51.8409 374.416 51.8409C375.912 51.8409 377.266 51.6326 378.478 51.2159C379.69 50.7803 380.742 50.1458 381.632 49.3125C382.522 48.4792 383.194 47.447 383.649 46.2159L393.251 47.2955C392.645 49.8333 391.49 52.0492 389.785 53.9432C388.099 55.8182 385.94 57.2765 383.308 58.3182C380.675 59.3409 377.664 59.8523 374.274 59.8523ZM400.61 75.3636V15.3636H410.723V22.5795H411.32C411.85 21.5189 412.598 20.392 413.564 19.1989C414.53 17.9867 415.837 16.9545 417.485 16.1023C419.133 15.2311 421.235 14.7955 423.792 14.7955C427.163 14.7955 430.203 15.6572 432.911 17.3807C435.638 19.0852 437.797 21.6136 439.388 24.9659C440.998 28.2992 441.803 32.3902 441.803 37.2386C441.803 42.0303 441.017 46.1023 439.445 49.4545C437.873 52.8068 435.733 55.3636 433.025 57.125C430.316 58.8864 427.248 59.767 423.82 59.767C421.32 59.767 419.246 59.3504 417.598 58.517C415.951 57.6837 414.625 56.6799 413.621 55.5057C412.636 54.3125 411.869 53.1856 411.32 52.125H410.894V75.3636H400.61ZM410.695 37.1818C410.695 40.0038 411.093 42.4754 411.888 44.5966C412.703 46.7178 413.867 48.375 415.383 49.5682C416.917 50.7424 418.773 51.3295 420.951 51.3295C423.223 51.3295 425.127 50.7235 426.661 49.5114C428.195 48.2803 429.35 46.6042 430.127 44.483C430.922 42.3428 431.32 39.9091 431.32 37.1818C431.32 34.4735 430.932 32.0682 430.155 29.9659C429.379 27.8636 428.223 26.2159 426.689 25.0227C425.155 23.8295 423.242 23.233 420.951 23.233C418.754 23.233 416.888 23.8106 415.354 24.9659C413.82 26.1212 412.655 27.7405 411.86 29.8239C411.083 31.9072 410.695 34.3598 410.695 37.1818ZM449.297 0.81818H462.194L479.467 42.9773H480.149L497.422 0.81818H510.319V59H500.206V19.0284H499.666L483.586 58.8295H476.03L459.95 18.9432H459.41V59H449.297V0.81818ZM532.131 59.8807C529.366 59.8807 526.876 59.3883 524.66 58.4034C522.463 57.3996 520.72 55.9223 519.433 53.9716C518.164 52.0208 517.529 49.6155 517.529 46.7557C517.529 44.2936 517.984 42.2576 518.893 40.6477C519.802 39.0379 521.042 37.75 522.614 36.7841C524.186 35.8182 525.957 35.089 527.927 34.5966C529.915 34.0852 531.97 33.7159 534.092 33.4886C536.648 33.2235 538.722 32.9867 540.313 32.7784C541.904 32.5511 543.059 32.2102 543.779 31.7557C544.518 31.2822 544.887 30.553 544.887 29.5682V29.3977C544.887 27.2576 544.253 25.6004 542.984 24.4261C541.715 23.2519 539.887 22.6648 537.501 22.6648C534.982 22.6648 532.984 23.214 531.506 24.3125C530.048 25.411 529.063 26.7083 528.552 28.2045L518.95 26.8409C519.707 24.1894 520.957 21.9735 522.7 20.1932C524.442 18.3939 526.573 17.0492 529.092 16.1591C531.611 15.25 534.395 14.7955 537.444 14.7955C539.546 14.7955 541.639 15.0417 543.722 15.5341C545.806 16.0265 547.709 16.8409 549.433 17.9773C551.156 19.0947 552.539 20.6193 553.58 22.5511C554.641 24.483 555.171 26.8977 555.171 29.7955V59H545.285V53.0057H544.944C544.319 54.2178 543.438 55.3542 542.302 56.4148C541.184 57.4564 539.773 58.2992 538.069 58.9432C536.383 59.5682 534.404 59.8807 532.131 59.8807ZM534.802 52.3239C536.866 52.3239 538.656 51.9167 540.171 51.1023C541.686 50.2689 542.851 49.1705 543.665 47.8068C544.499 46.4432 544.915 44.9564 544.915 43.3466V38.2045C544.593 38.4697 544.044 38.7159 543.268 38.9432C542.51 39.1705 541.658 39.3693 540.711 39.5398C539.764 39.7102 538.826 39.8617 537.898 39.9943C536.97 40.1269 536.165 40.2405 535.484 40.3352C533.95 40.5436 532.576 40.8845 531.364 41.358C530.152 41.8314 529.196 42.4943 528.495 43.3466C527.794 44.1799 527.444 45.2595 527.444 46.5852C527.444 48.4792 528.135 49.9091 529.518 50.875C530.9 51.8409 532.662 52.3239 534.802 52.3239ZM563.744 75.3636V15.3636H573.858V22.5795H574.455C574.985 21.5189 575.733 20.392 576.699 19.1989C577.665 17.9867 578.972 16.9545 580.619 16.1023C582.267 15.2311 584.369 14.7955 586.926 14.7955C590.297 14.7955 593.337 15.6572 596.046 17.3807C598.773 19.0852 600.932 21.6136 602.523 24.9659C604.133 28.2992 604.938 32.3902 604.938 37.2386C604.938 42.0303 604.152 46.1023 602.58 49.4545C601.008 52.8068 598.868 55.3636 596.159 57.125C593.451 58.8864 590.383 59.767 586.955 59.767C584.455 59.767 582.381 59.3504 580.733 58.517C579.085 57.6837 577.76 56.6799 576.756 55.5057C575.771 54.3125 575.004 53.1856 574.455 52.125H574.029V75.3636H563.744ZM573.83 37.1818C573.83 40.0038 574.227 42.4754 575.023 44.5966C575.837 46.7178 577.002 48.375 578.517 49.5682C580.051 50.7424 581.907 51.3295 584.085 51.3295C586.358 51.3295 588.261 50.7235 589.796 49.5114C591.33 48.2803 592.485 46.6042 593.261 44.483C594.057 42.3428 594.455 39.9091 594.455 37.1818C594.455 34.4735 594.066 32.0682 593.29 29.9659C592.513 27.8636 591.358 26.2159 589.824 25.0227C588.29 23.8295 586.377 23.233 584.085 23.233C581.888 23.233 580.023 23.8106 578.489 24.9659C576.955 26.1212 575.79 27.7405 574.994 29.8239C574.218 31.9072 573.83 34.3598 573.83 37.1818Z" fill="#121212"/>
</svg>
