<svg width="527" height="168" viewBox="0 0 527 168" fill="none" xmlns="http://www.w3.org/2000/svg">
<path d="M499.371 123.267C497.37 128.493 492.862 133.592 489.202 137.65C471.216 157.579 448.586 165.759 422.042 162.791C405.509 160.942 391.334 153.688 379.319 142.236C373.593 136.779 368.798 130.589 364.836 123.745C364.506 123.176 363.448 122.437 363.108 122.596C362.415 122.918 361.731 123.726 361.52 124.467C361.36 125.028 361.844 125.852 362.198 126.468C366.322 133.644 371.356 140.151 377.464 145.718C392.906 159.794 411.051 167.248 432.076 167.358C439.703 167.391 447.196 166.363 454.477 164.162C472.09 158.837 488.254 146.542 498.187 131.103C501.333 126.212 501.756 124.355 502.209 123.234" fill="#25562D"/>
<path d="M355.948 62.7345C356.744 62.4268 357.555 61.4404 357.827 60.5914C360.838 51.2302 365.004 42.4983 371.016 34.6346C378.508 24.8283 387.729 17.0964 398.725 11.6149C410.642 5.67456 423.333 2.95991 436.681 4.17161C441.641 4.62222 446.677 5.13603 451.455 6.43291C458.67 8.38647 465.715 10.9802 471.977 15.283C473.788 16.5277 475.414 15.9534 477.066 14.2609C476.329 13.6372 475.739 13.0217 475.046 12.5656C458.387 1.60533 440.014 -1.77425 420.5 0.838741C409.018 2.37466 398.354 6.49336 388.611 12.8788C371.024 24.4079 359.808 40.5639 353.78 60.509C353.252 62.2564 354.255 63.383 355.945 62.7345H355.948Z" fill="#25562D"/>
<path d="M417.571 66.8594C415.293 66.8044 413.826 67.9062 412.861 69.8516C409.243 77.1493 405.632 84.4524 401.997 91.7419C401.596 92.5469 401.035 93.2778 400.296 94.4401C399.634 93.3025 399.164 92.5937 398.791 91.8408C395.164 84.5431 391.559 77.2372 387.937 69.9395C387.066 68.1837 385.772 66.9363 383.698 66.9006C380.758 66.8511 377.815 66.8759 374.875 66.8951C373.207 66.9061 372.045 67.6892 371.652 69.3405C371.419 70.3269 371.254 71.3545 371.254 72.3629C371.262 88.3678 371.301 104.375 371.334 120.38C371.334 120.82 371.32 121.265 371.367 121.702C371.644 124.364 372.658 125.381 375.315 125.447C378.032 125.513 380.758 125.518 383.475 125.433C386.132 125.351 386.935 124.615 386.998 121.982C387.11 117.432 387.163 112.879 387.061 108.329C386.987 104.999 386.624 101.675 386.388 98.3472C388.402 101.71 390.366 105.062 391.77 108.632C393.449 112.896 396.018 114.632 400.788 114.413C404.706 114.231 406.852 112.929 408.275 109.382C409.869 105.406 411.93 101.617 413.699 97.935C413.606 105.774 413.474 113.66 413.441 121.548C413.427 124.623 414.295 125.411 417.414 125.461C420.134 125.502 422.857 125.513 425.575 125.447C428.539 125.376 429.366 124.562 429.374 121.584C429.421 104.623 429.44 87.6644 429.44 70.7033C429.44 67.9887 428.413 66.9611 425.734 66.9006C423.014 66.8374 420.291 66.9281 417.573 66.8621L417.571 66.8594Z" fill="#25562D"/>
<path d="M293.646 110.92C289.025 113.412 281.578 111.563 278.6 107.337C277.512 105.793 276.204 105.279 274.421 105.95C271.671 106.986 268.887 107.942 266.162 109.038C264.142 109.851 263.414 111.39 264.04 113.481C265.035 116.797 266.826 119.603 269.629 121.718C274.874 125.683 280.919 126.801 287.31 126.659C288.486 126.659 289.667 126.73 290.838 126.648C296.297 126.257 301.455 124.831 305.821 121.435C311.124 117.314 312.72 111.657 312.088 105.164C311.525 99.3691 309.269 94.4893 303.746 92.1319C299.883 90.4805 295.635 89.7002 291.53 88.6451C288.906 87.9692 286.2 87.6065 283.587 86.9004C282.026 86.48 281.186 85.1886 281.334 83.5428C281.485 81.8557 282.488 80.7979 284.153 80.3281C284.735 80.1632 285.164 80.1138 285.749 80.089C289.777 79.9242 293.495 80.9875 295.77 84.5374C296.732 86.0349 297.963 87.0103 299.814 86.252C302.941 84.9743 306.074 83.6884 309.118 82.2294C310.857 81.3969 311.621 79.817 310.596 78.0063C309.376 75.8522 308.156 73.6101 306.499 71.8104C303.331 68.3676 299.07 66.9938 294.509 66.3894C286.928 65.3837 279.584 65.7684 272.657 69.4859C262.653 74.852 262.21 89.3815 267.939 96.2039C271.525 100.474 276.592 101.798 281.724 102.908C285.45 103.713 289.206 104.381 292.94 105.153C294.47 105.469 295.262 106.672 295.132 108.046C295.036 109.065 294.448 110.486 293.646 110.92Z" fill="#25562D"/>
<path d="M317.251 110.406C318.804 117.379 322.807 122.388 329.596 125.059C334.971 127.172 340.543 127.265 346.107 126.562C350.833 125.966 355.163 124.183 358.702 120.778C363.321 116.335 364.766 110.672 364.942 104.589C365.096 99.2369 364.975 93.8762 364.975 88.5184C365 88.5184 365.024 88.5184 365.052 88.5184C365.052 82.7209 365.085 76.9234 365.038 71.1259C365.016 68.5239 364.008 67.2627 361.614 67.1446C358.389 66.988 355.149 67.0292 351.918 67.1171C349.745 67.1775 348.571 68.4937 348.412 70.6231C348.308 72.0106 348.365 73.4092 348.349 74.805C348.228 84.9987 348.209 95.1978 347.934 105.389C347.813 109.906 347.091 110.793 342.535 111.206C335.35 111.859 333.646 110.738 333.352 104.499C333.325 103.913 333.267 103.325 333.264 102.74C333.204 92.3953 333.127 82.0505 333.108 71.7056C333.102 68.3893 332.009 67.1171 328.703 67.0704C326.351 67.0347 323.999 67.0841 321.65 67.1446C317.38 67.2572 316.471 68.1832 316.468 72.3871C316.463 82.589 316.419 92.7909 316.498 102.99C316.518 105.468 316.716 107.996 317.251 110.409V110.406Z" fill="#25562D"/>
<path d="M56.4531 125.481C58.1978 125.453 58.4616 124.34 58.4643 122.961C58.5001 109.086 58.5523 95.2073 58.5687 81.3318C58.5687 79.6063 58.4011 77.8808 58.3132 76.1526C58.5083 76.1031 58.7006 76.0564 58.8957 76.0069C60.8383 79.0925 62.6929 82.2385 64.7372 85.2554C71.0759 94.6084 77.4807 103.915 83.8661 113.237C86.3555 116.872 88.8586 120.497 91.3562 124.126C92.2794 125.467 93.6862 125.898 95.0188 125.261C95.6919 124.939 96.2772 123.667 96.2827 122.824C96.4146 105.203 96.4585 87.5827 96.5245 69.9594C96.53 68.2201 96.1068 66.8958 93.9692 66.926C91.7766 66.9562 91.793 68.4949 91.804 70.0061C91.9249 84.6894 92.0623 99.37 92.186 114.053C92.1942 114.889 92.1173 115.727 92.0788 116.562C91.1171 116.109 90.6308 115.521 90.2296 114.883C88.7404 112.526 87.3419 110.11 85.7922 107.794C80.1211 99.315 74.4143 90.8606 68.6937 82.4144C65.523 77.7352 62.289 73.0972 59.0935 68.4317C58.1951 67.1184 56.8707 66.4424 55.5079 67.1211C54.7935 67.4783 54.189 68.8219 54.1863 69.7231C54.1368 87.492 54.1945 105.261 54.1863 123.03C54.1863 124.678 54.7303 125.511 56.4531 125.486V125.481Z" fill="#25562D"/>
<path d="M176.073 125.484C186.223 125.506 196.373 125.495 206.52 125.486C207.031 125.486 207.715 125.607 208.02 125.335C208.613 124.805 209.355 124.038 209.358 123.368C209.361 122.695 208.663 121.851 208.039 121.395C207.588 121.065 206.761 121.203 206.105 121.203C196.79 121.195 187.248 121.192 177.722 121.192C177.675 119.878 177.716 118.95 177.714 118.029C177.705 112.523 177.758 107.014 177.722 101.508C177.7 98.3535 177.782 98.2051 181.049 98.1996C188.111 98.1914 195.169 98.2161 202.231 98.1832C204.453 98.1722 205.585 96.7104 204.572 94.9767C204.159 94.2733 202.799 93.7924 201.862 93.7787C194.804 93.6798 187.742 93.6496 180.684 93.7677C178.541 93.8034 177.843 93.0671 177.865 90.9981C177.909 86.742 177.738 82.4832 177.716 78.2244C177.681 71.4048 177.703 71.4048 184.519 71.4048C191.581 71.4048 198.639 71.4158 205.701 71.3911C207.789 71.3828 208.913 70.009 207.99 68.3522C207.588 67.6323 206.253 67.0608 205.338 67.0498C195.631 66.9536 185.923 66.9674 176.216 66.9949C173.628 67.0031 173.087 67.5636 173.084 70.1134C173.065 87.5911 173.059 105.071 173.07 122.549C173.07 125.047 173.504 125.467 176.076 125.473L176.073 125.484Z" fill="#25562D"/>
<path d="M0.519113 110.313C1.01094 117.22 4.91532 122.306 11.5069 125.04C16.3592 127.051 21.4368 127.145 26.4842 126.383C31.331 125.653 35.5816 123.548 38.582 119.443C41.4615 115.503 42.665 111.013 42.7364 106.219C42.7584 104.751 42.7694 103.281 42.7749 101.814C42.7941 97.407 42.7556 93.0025 42.7556 88.5953C42.7556 85.5098 42.7529 82.4269 42.7529 79.3413C42.7529 76.2557 42.7529 73.1729 42.7639 70.0873C42.7694 68.3755 42.4699 66.9495 40.3377 66.9166C38.2166 66.8836 38.1121 68.3398 38.0902 69.9252C37.9198 82.9902 37.7797 96.0551 37.5214 109.12C37.4225 114.121 33.9825 119.432 28.8994 120.995C24.3548 122.391 19.8075 122.41 15.2436 121.435C10.9079 120.506 8.19323 117.75 6.29737 113.725C4.8219 110.596 5.16535 107.397 5.09391 104.268C4.83289 92.8184 4.88234 81.3608 4.82739 69.906C4.81915 68.2656 4.4702 66.9688 2.45344 66.9275C0.425694 66.8863 0.0162978 68.142 0.0190454 69.8098C0.0272883 74.4368 -0.0276642 79.0638 0.0190454 83.6881C0.115212 92.5684 -0.115587 101.473 0.513619 110.318L0.519113 110.313Z" fill="#25562D"/>
<path d="M123.186 78.4602C128.86 93.4787 134.476 108.516 140.224 123.505C140.551 124.359 141.81 125.12 142.785 125.395C144.079 125.758 145.173 125.112 145.695 123.689C146.481 121.557 147.393 119.471 148.198 117.347C152.116 106.992 156.015 96.6275 159.919 86.2662C161.988 80.7737 164.079 75.2894 166.113 69.7859C166.852 67.7829 166.22 67.0053 164.197 67.0768C162.351 67.1399 161.749 68.4258 161.216 69.8519C156.74 81.8782 152.273 93.9046 147.778 105.923C146.324 109.811 144.791 113.671 143.148 117.919C142.719 117.295 142.554 117.133 142.48 116.935C137.795 104.516 133.119 92.0966 128.443 79.6746C127.047 75.9681 125.7 72.245 124.252 68.5605C123.535 66.7333 121.892 66.5684 120.365 67.1207C118.595 67.7637 119.477 69.1979 119.897 70.297C120.944 73.0364 122.145 75.718 123.181 78.4602H123.186Z" fill="#25562D"/>
<path d="M259.538 123.097C255.34 115.398 252.79 106.803 246.696 99.6457C248.284 99.0385 249.702 98.6538 250.966 97.9862C255.67 95.4996 257.86 91.3204 258.406 86.2291C259.434 76.6756 255.238 67.6386 243.399 67.1825C235.763 66.8885 228.108 67.0589 220.459 67.0067C219.189 66.9984 218.165 68.0233 218.184 69.2927C218.214 71.2737 218.209 73.2548 218.206 75.2331C218.2 91.0951 218.184 106.957 218.189 122.819C218.189 125.094 219.269 126.133 221.055 125.306C221.811 124.957 222.445 123.525 222.476 122.566C222.684 115.967 222.734 109.361 222.792 102.756C222.803 101.368 223.388 100.728 224.77 100.748C229.089 100.813 233.414 101.039 237.725 100.871C241.385 100.728 243.86 102.468 245.46 105.344C248.133 110.147 250.471 115.137 252.966 120.039C253.73 121.542 254.255 123.341 255.433 124.405C256.013 124.927 256.997 125.004 257.989 125.07C258.904 125.13 259.711 124.385 259.637 123.473C259.626 123.333 259.593 123.204 259.533 123.094L259.538 123.097ZM245.284 95.1259C238.536 95.3704 231.787 95.5435 225.042 95.8293C223.121 95.9089 222.434 95.2138 222.511 93.285C222.638 90.062 222.544 86.8335 222.544 83.6078C222.564 83.6078 222.583 83.6078 222.599 83.6078C222.599 80.3821 222.654 77.1564 222.577 73.9334C222.536 72.2162 223.022 71.3424 224.938 71.4194C231.757 71.6886 238.585 71.7875 245.402 72.1063C249.067 72.2766 252.689 75.6589 253.125 79.4452C253.455 82.3082 253.491 85.2646 253.197 88.1304C252.818 91.8232 249.009 94.994 245.281 95.1286L245.284 95.1259Z" fill="#25562D"/>
<path d="M108.372 123.258C108.482 125.135 109.924 126.154 111.515 125.239C112.205 124.841 112.666 123.48 112.675 122.552C112.76 113.825 112.724 105.096 112.719 96.3669C112.719 91.2316 112.705 86.099 112.724 80.9637C112.738 77.0044 112.801 73.045 112.823 69.0857C112.831 67.6542 112.103 66.9426 110.644 66.9261C109.125 66.9096 108.281 67.5663 108.254 69.1297C108.237 70.0831 108.226 71.0365 108.229 71.99C108.259 87.6872 108.292 103.382 108.325 119.079C108.328 120.472 108.289 121.87 108.372 123.258Z" fill="#25562D"/>
<path d="M476.358 92.5015C476.238 92.8147 475.861 93.0291 475.608 93.2956C473.226 95.7932 470.786 98.2385 468.517 100.832C468.085 101.324 467.951 102.778 468.322 103.154C471.503 106.366 476.534 106.501 479.903 103.357C485.659 97.9858 490.869 92.2267 494.581 85.0994C497.828 78.8623 499.818 72.5565 499.293 65.5006C499.167 63.7833 498.754 63.1184 496.886 63.6047C488.882 65.6929 480.953 65.8468 473.243 62.3051C471.784 61.6347 471.039 61.9974 470.959 63.6899C470.8 67.0585 470.784 70.4573 470.27 73.7764C469.973 75.697 469.234 77.8402 467.989 79.2689C464.568 83.1925 460.793 86.8084 457.114 90.5012C456.631 90.9876 455.836 91.5948 455.279 91.5124C452.603 91.1167 449.957 90.5067 447.3 89.9709C445.717 89.6522 444.145 89.2346 442.546 89.0395C440.914 88.8389 440.079 89.666 440.142 91.3667C440.189 92.6142 440.15 93.8643 440.15 95.1117C440.15 96.2135 440.159 97.3153 440.148 98.4171C440.128 99.9366 440.186 101.492 441.944 102.039C443.678 102.577 444.571 101.489 445.45 100.126C446.047 99.2057 446.778 97.9445 448.412 98.7084C451.27 100.041 454.136 101.363 457.062 102.53C459.595 103.539 462.156 103.467 464.357 101.659C465.992 100.316 467.517 98.8348 469.017 97.3401C471.045 95.3206 472.971 93.1967 475.023 91.2046M493.108 80.3213C492.899 80.945 492.069 81.6346 491.404 81.7913C487.195 82.7859 482.947 82.5523 478.735 81.75C478.144 81.6374 477.392 80.9642 477.205 80.39C476.262 77.4692 476.389 74.4688 477.161 71.5426C477.323 70.9354 478.197 70.2073 478.845 70.0919C481.007 69.7072 483.214 69.5753 485.014 69.3885C487.313 69.6055 489.242 69.644 491.1 70.0342C491.891 70.199 492.954 70.9739 493.163 71.6827C493.993 74.5293 494.061 77.4775 493.105 80.3213H493.108Z" fill="#25562D"/>
<path d="M467.988 56.0869C468.477 56.5705 468.978 57.0239 469.491 57.447C474.451 61.5382 480.518 62.8241 486.972 62.8708C497.116 63.1456 506.538 57.9141 510.044 49.064C510.544 47.8001 510.926 46.462 511.17 45.0552C512.764 35.8781 510.123 26.6818 501.474 21.6674C493.995 17.3316 486.076 16.5788 477.699 19.0159C461.479 23.7336 456.012 44.1979 467.988 56.0869ZM491.351 22.2829C502.477 22.2856 509.109 31.0258 508.953 40.7359C508.771 52.6496 500.056 58.8483 491.283 58.6834C479.861 58.4719 473.676 50.4076 473.676 40.1837C473.676 29.4322 481.279 22.2774 491.354 22.2801L491.351 22.2829ZM468.956 37.9828C468.956 40.0435 468.983 41.7938 468.903 43.5413C468.898 43.6374 466.87 44.3051 466.801 43.7693C466.554 41.8432 466.648 40.1589 466.887 38.4856C466.928 38.1916 468.104 37.8454 468.956 37.9828Z" fill="#25562D"/>
<path d="M486.975 62.8732C480.52 62.8293 474.536 61.0818 469.494 57.4494C474.709 61.2082 480.52 62.8293 486.975 62.876C497.122 63.148 506.318 57.8258 510.046 49.0664C506.43 57.5593 497.119 63.148 486.975 62.8732Z" fill="#25562D"/>
<path d="M444.59 35.0589C442.241 35.0589 439.889 35.0534 437.54 35.0589C430.382 35.0781 423.588 40.0183 421.263 46.761C419.9 50.7149 419.598 54.7621 419.686 58.9C419.774 63.0764 419.98 63.321 424.261 63.0709C424.481 63.0572 424.7 63.0352 424.92 63.0325C426.266 63.027 426.874 62.395 426.951 61.0157C427.129 57.8724 427.445 54.7401 427.665 51.5996C427.956 47.4369 431.413 43.5573 435.573 43.1616C440.538 42.6918 445.522 42.3923 450.506 42.2027C454.625 42.0461 454.63 42.167 455.581 46.2445C455.614 46.3873 455.655 46.5275 455.691 46.6703C456.213 48.7283 457.87 48.3217 459.276 48.22C460.87 48.1046 460.631 47.1677 460.406 46.184C459.738 43.2441 459.691 40.4882 459.919 38.3588C460.26 35.1908 460.999 33.0641 461.744 29.951C462.057 28.6404 461.686 28.1816 460.381 28.2145C456.466 28.3107 455.586 29.0471 455.485 32.8141C455.438 34.4736 454.718 34.9847 453.179 34.9517L444.585 35.0589H444.59Z" fill="#25562D"/>
<path d="M457.321 53.7023C454.31 53.1033 451.285 52.4494 448.235 52.2076C445.46 51.9851 443.457 54.076 443.338 57.1231C443.314 58.758 444.053 60.7005 445.88 61.2528C450.911 62.7695 456.049 63.94 461.173 65.1297C462.456 65.4264 463.171 64.8055 462.514 63.352C461.245 60.5549 460.039 57.7276 458.717 54.9552C458.464 54.4222 457.86 53.8095 457.321 53.7023Z" fill="#25562D"/>
<path d="M512.645 74.7814C514.184 74.7814 515.728 74.8748 517.259 74.7621C520.012 74.5588 521.103 73.5394 521.386 71.1243C521.713 68.3437 520.776 66.5962 518.256 65.8159C516.165 65.1674 514.014 64.6619 511.854 64.3322C511.184 64.2305 510.041 64.7058 509.722 65.2663C508.384 67.6101 507.244 70.0719 506.098 72.5228C505.513 73.7702 506.065 74.5286 507.381 74.6412" fill="#25562D"/>
<path d="M466.471 72.4309C467.021 72.3265 467.518 71.9418 468.015 71.5516C468.403 71.2466 468.48 70.6944 468.191 70.2932C467.796 69.7437 467.403 69.1914 466.878 69.0073C464.397 68.1336 461.828 67.4824 459.267 66.8559C455.931 66.0399 455.368 66.6196 455.643 70.0102C455.766 71.5296 456.387 72.3347 457.907 72.3622C459.446 72.3897 460.984 72.3677 462.523 72.3677" fill="#25562D"/>
<path d="M463.36 54.9197C462.885 54.7713 462.077 54.8235 461.799 55.1285C461.519 55.4362 461.527 56.2495 461.725 56.7002C462.956 59.5055 464.198 62.3108 465.616 65.0227C465.847 65.4678 466.33 65.7811 466.833 66.0833C466.951 66.1547 467.072 66.2262 467.19 66.2976C467.476 66.4707 467.85 66.3663 468.003 66.0668C468.003 66.0668 468.003 66.0641 468.006 66.0613C468.306 65.4816 468.611 64.9073 468.819 64.2973C468.976 63.8385 468.841 63.2835 468.847 63.3274C468.319 60.088 466.083 55.7687 463.357 54.9197H463.36Z" fill="#25562D"/>
<path d="M502.214 73.1552C502.228 73.3833 502.478 73.4245 502.651 73.2761C503.321 72.6909 503.684 72.1413 504.03 71.4847C505.091 69.4734 506.094 67.4347 507.096 65.3959C508.168 63.2143 507.973 62.8077 505.646 62.2142C502.079 61.3047 502.024 61.3432 502.008 64.9261C502 66.5389 501.98 68.1518 502.011 69.7646C502.033 70.8967 502.153 72.0259 502.217 73.1552H502.214Z" fill="#25562D"/>
<path d="M518.847 100.008C517.474 100.008 516.897 100.695 516.872 102.016C516.844 103.316 517.49 103.808 518.729 103.854C520.067 103.904 520.823 103.426 520.765 102.014C520.867 100.634 520.216 100.008 518.85 100.008H518.847Z" fill="#25562D"/>
<path d="M495.789 104.836C494.415 104.836 493.838 105.523 493.813 106.844C493.786 108.144 494.432 108.636 495.671 108.683C497.009 108.732 497.764 108.254 497.707 106.842C497.808 105.462 497.157 104.836 495.792 104.836H495.789Z" fill="#25562D"/>
<path d="M525.07 79.4004C523.696 79.4004 523.119 80.0873 523.095 81.4089C523.067 82.7085 523.713 83.2004 524.952 83.2471C526.29 83.2965 527.046 82.8184 526.988 81.4062C527.09 80.0268 526.438 79.4004 525.073 79.4004H525.07Z" fill="#25562D"/>
<path d="M519.373 51.7148C517.999 51.7148 517.422 52.4017 517.397 53.7234C517.37 55.023 518.016 55.5148 519.255 55.5615C520.593 55.611 521.348 55.1329 521.291 53.7206C521.392 52.3413 520.741 51.7148 519.376 51.7148H519.373Z" fill="#25562D"/>
<path d="M489.092 71.617C486.534 71.5456 483.968 71.5099 481.413 71.639C480.63 71.6802 479.269 72.2408 479.214 72.6941C478.959 74.7603 478.78 76.9392 479.223 78.9312C479.357 79.544 481.533 79.7802 482.806 80.0413C482.998 80.0797 483.196 80.1017 483.394 80.1127C483.99 80.1429 484.611 80.0715 485.213 80.0715C485.798 80.0715 486.383 80.0852 486.968 80.0715C491.878 79.9369 492.244 79.489 491.933 74.5405C491.815 72.6666 490.911 71.672 489.087 71.6198L489.092 71.617Z" fill="#25562D"/>
<path d="M485.213 80.0684C484.609 80.0684 483.991 80.1398 483.395 80.1096C483.991 80.1398 484.612 80.0684 485.213 80.0684C485.799 80.0684 486.384 80.0821 486.969 80.0684C486.384 80.0848 485.799 80.0684 485.213 80.0684Z" fill="#25562D"/>
<path d="M491.225 56.3813C499.369 56.9665 505.444 50.4876 506.79 43.3465C506.958 42.4618 506.76 41.0193 506.167 40.5577C501.674 37.06 496.778 34.653 490.785 35.3399C485.925 35.8977 481.699 38.115 477.344 40.0384C475.753 40.7418 475.663 41.9645 475.805 43.5004C476.435 50.3557 483.971 57.0599 491.222 56.3868L491.225 56.3813Z" fill="#25562D"/>
<path d="M478.487 37.0979C480.361 36.4632 482.191 35.6938 484.059 35.0289C490.728 32.6605 497.245 32.7511 503.592 36.1692C504.268 36.5319 505.469 37.3754 506.271 37.5045C506.411 36.6775 506.122 34.8311 505.856 34.0727C503.79 28.2258 498.044 24.3626 491.376 23.8516C488.692 23.8516 486.177 24.2857 483.826 25.3435C480.034 27.0471 477.737 30.9844 476.319 34.8256C476.05 35.5537 475.709 37.1089 475.761 37.9551C476.448 37.8809 477.847 37.3149 478.487 37.0979Z" fill="#25562D"/>
<path d="M509.057 87.4648H506.928C506.838 87.4648 506.766 87.5374 506.766 87.627V89.7564C506.766 89.8459 506.838 89.9185 506.928 89.9185H509.057C509.147 89.9185 509.219 89.8459 509.219 89.7564V87.627C509.219 87.5374 509.147 87.4648 509.057 87.4648Z" fill="#25562D"/>
<path d="M506.604 89.9219H504.475C504.385 89.9219 504.312 89.9945 504.312 90.084V92.2134C504.312 92.3029 504.385 92.3755 504.475 92.3755H506.604C506.694 92.3755 506.766 92.3029 506.766 92.2134V90.084C506.766 89.9945 506.694 89.9219 506.604 89.9219Z" fill="#25562D"/>
<path d="M509.057 92.375H506.928C506.838 92.375 506.766 92.4476 506.766 92.5371V94.6665C506.766 94.7561 506.838 94.8286 506.928 94.8286H509.057C509.147 94.8286 509.219 94.7561 509.219 94.6665V92.5371C509.219 92.4476 509.147 92.375 509.057 92.375Z" fill="#25562D"/>
<path d="M511.163 89.9219H509.033C508.944 89.9219 508.871 89.9945 508.871 90.084V92.2134C508.871 92.3029 508.944 92.3755 509.033 92.3755H511.163C511.252 92.3755 511.325 92.3029 511.325 92.2134V90.084C511.325 89.9945 511.252 89.9219 511.163 89.9219Z" fill="#25562D"/>
<path d="M443.124 68.8789H440.994C440.905 68.8789 440.832 68.9515 440.832 69.041V71.1704C440.832 71.26 440.905 71.3325 440.994 71.3325H443.124C443.213 71.3325 443.286 71.26 443.286 71.1704V69.041C443.286 68.9515 443.213 68.8789 443.124 68.8789Z" fill="#25562D"/>
<path d="M440.67 71.332H438.541C438.451 71.332 438.379 71.4046 438.379 71.4941V73.6236C438.379 73.7131 438.451 73.7857 438.541 73.7857H440.67C440.76 73.7857 440.833 73.7131 440.833 73.6236V71.4941C440.833 71.4046 440.76 71.332 440.67 71.332Z" fill="#25562D"/>
<path d="M443.124 73.4375H440.994C440.905 73.4375 440.832 73.5101 440.832 73.5996V75.729C440.832 75.8186 440.905 75.8911 440.994 75.8911H443.124C443.213 75.8911 443.286 75.8186 443.286 75.729V73.5996C443.286 73.5101 443.213 73.4375 443.124 73.4375Z" fill="#25562D"/>
<path d="M445.581 71.332H443.451C443.362 71.332 443.289 71.4046 443.289 71.4941V73.6236C443.289 73.7131 443.362 73.7857 443.451 73.7857H445.581C445.67 73.7857 445.743 73.7131 445.743 73.6236V71.4941C445.743 71.4046 445.67 71.332 445.581 71.332Z" fill="#25562D"/>
<path d="M502.212 117.125H499.379C499.289 117.125 499.217 117.198 499.217 117.287V120.12C499.217 120.209 499.289 120.282 499.379 120.282H502.212C502.301 120.282 502.374 120.209 502.374 120.12V117.287C502.374 117.198 502.301 117.125 502.212 117.125Z" fill="#25562D"/>
<path d="M496.408 120.082H499.241C499.329 120.082 499.403 120.153 499.403 120.244V123.239H496.408C496.32 123.239 496.246 123.168 496.246 123.077V120.244C496.246 120.156 496.318 120.082 496.408 120.082Z" fill="#25562D"/>
<path d="M502.369 120.082H505.202C505.29 120.082 505.364 120.153 505.364 120.244V123.077C505.364 123.165 505.293 123.239 505.202 123.239H502.207V120.244C502.207 120.156 502.278 120.082 502.369 120.082Z" fill="#25562D"/>
</svg>
