<svg width="300" height="167" viewBox="0 0 300 167" fill="none" xmlns="http://www.w3.org/2000/svg">
<rect width="300" height="167" rx="10" fill="white"/>
<g clip-path="url(#clip0_658_21483)">
<path d="M23.4432 66.0909H31.1818L41.5455 91.3864H41.9545L52.3182 66.0909H60.0568V101H53.9886V77.017H53.6648L44.017 100.898H39.483L29.8352 76.9659H29.5114V101H23.4432V66.0909ZM79.4937 101.511C76.8687 101.511 74.6017 100.966 72.6926 99.875C70.7949 98.7727 69.3346 97.2159 68.3119 95.2045C67.2892 93.1818 66.7778 90.8011 66.7778 88.0625C66.7778 85.3693 67.2892 83.0057 68.3119 80.9716C69.346 78.9261 70.7892 77.3352 72.6415 76.1989C74.4937 75.0511 76.6699 74.4773 79.1699 74.4773C80.7835 74.4773 82.3062 74.7386 83.7381 75.2614C85.1812 75.7727 86.454 76.5682 87.5562 77.6477C88.6699 78.7273 89.5449 80.1023 90.1812 81.7727C90.8176 83.4318 91.1358 85.4091 91.1358 87.7045V89.5966H69.6756V85.4375H85.221C85.2096 84.2557 84.954 83.2045 84.454 82.2841C83.954 81.3523 83.2551 80.6193 82.3574 80.0852C81.471 79.5511 80.4369 79.2841 79.2551 79.2841C77.9937 79.2841 76.8858 79.5909 75.9312 80.2045C74.9767 80.8068 74.2324 81.6023 73.6983 82.5909C73.1756 83.5682 72.9085 84.642 72.8971 85.8125V89.4432C72.8971 90.9659 73.1756 92.2727 73.7324 93.3636C74.2892 94.4432 75.0676 95.2727 76.0676 95.8523C77.0676 96.4205 78.2381 96.7045 79.579 96.7045C80.4767 96.7045 81.2892 96.5795 82.0165 96.3295C82.7437 96.0682 83.3744 95.6875 83.9085 95.1875C84.4426 94.6875 84.846 94.0682 85.1187 93.3295L90.8801 93.9773C90.5165 95.5 89.8233 96.8295 88.8006 97.9659C87.7892 99.0909 86.4937 99.9659 84.9142 100.591C83.3346 101.205 81.5278 101.511 79.4937 101.511ZM107.304 101.46C105.247 101.46 103.406 100.932 101.781 99.875C100.156 98.8182 98.8724 97.2841 97.9292 95.2727C96.986 93.2614 96.5145 90.8182 96.5145 87.9432C96.5145 85.0341 96.9917 82.5795 97.9463 80.5795C98.9122 78.5682 100.213 77.0511 101.85 76.0284C103.486 74.9943 105.31 74.4773 107.321 74.4773C108.855 74.4773 110.117 74.7386 111.105 75.2614C112.094 75.7727 112.878 76.392 113.458 77.1193C114.037 77.8352 114.486 78.5114 114.804 79.1477H115.06V66.0909H121.247V101H115.179V96.875H114.804C114.486 97.5114 114.026 98.1875 113.424 98.9034C112.821 99.608 112.026 100.21 111.037 100.71C110.049 101.21 108.804 101.46 107.304 101.46ZM109.026 96.3977C110.333 96.3977 111.446 96.0455 112.367 95.3409C113.287 94.625 113.986 93.6307 114.463 92.358C114.941 91.0852 115.179 89.6023 115.179 87.9091C115.179 86.2159 114.941 84.7443 114.463 83.4943C113.997 82.2443 113.304 81.2727 112.384 80.5795C111.475 79.8864 110.355 79.5398 109.026 79.5398C107.651 79.5398 106.503 79.8977 105.583 80.6136C104.662 81.3295 103.969 82.3182 103.503 83.5795C103.037 84.8409 102.804 86.2841 102.804 87.9091C102.804 89.5455 103.037 91.0057 103.503 92.2898C103.98 93.5625 104.679 94.5682 105.6 95.3068C106.531 96.0341 107.674 96.3977 109.026 96.3977ZM129.055 101V74.8182H135.226V101H129.055ZM132.157 71.1023C131.18 71.1023 130.339 70.7784 129.635 70.1307C128.93 69.4716 128.578 68.6818 128.578 67.7614C128.578 66.8295 128.93 66.0398 129.635 65.392C130.339 64.733 131.18 64.4034 132.157 64.4034C133.146 64.4034 133.987 64.733 134.68 65.392C135.385 66.0398 135.737 66.8295 135.737 67.7614C135.737 68.6818 135.385 69.4716 134.68 70.1307C133.987 70.7784 133.146 71.1023 132.157 71.1023ZM150.337 101.528C148.678 101.528 147.184 101.233 145.854 100.642C144.536 100.04 143.491 99.1534 142.718 97.983C141.956 96.8125 141.576 95.3693 141.576 93.6534C141.576 92.1761 141.849 90.9545 142.394 89.9886C142.939 89.0227 143.684 88.25 144.627 87.6705C145.57 87.0909 146.633 86.6534 147.814 86.358C149.008 86.0511 150.241 85.8295 151.513 85.6932C153.047 85.5341 154.292 85.392 155.246 85.267C156.201 85.1307 156.894 84.9261 157.326 84.6534C157.769 84.3693 157.991 83.9318 157.991 83.3409V83.2386C157.991 81.9545 157.61 80.9602 156.849 80.2557C156.087 79.5511 154.991 79.1989 153.559 79.1989C152.047 79.1989 150.849 79.5284 149.962 80.1875C149.087 80.8466 148.496 81.625 148.189 82.5227L142.428 81.7045C142.883 80.1136 143.633 78.7841 144.678 77.7159C145.724 76.6364 147.002 75.8295 148.513 75.2955C150.025 74.75 151.695 74.4773 153.525 74.4773C154.786 74.4773 156.042 74.625 157.292 74.9205C158.542 75.2159 159.684 75.7045 160.718 76.3864C161.752 77.0568 162.581 77.9716 163.206 79.1307C163.843 80.2898 164.161 81.7386 164.161 83.4773V101H158.229V97.4034H158.025C157.65 98.1307 157.121 98.8125 156.439 99.4489C155.769 100.074 154.922 100.58 153.9 100.966C152.888 101.341 151.701 101.528 150.337 101.528ZM151.939 96.9943C153.178 96.9943 154.252 96.75 155.161 96.2614C156.07 95.7614 156.769 95.1023 157.258 94.2841C157.758 93.4659 158.008 92.5739 158.008 91.608V88.5227C157.814 88.6818 157.485 88.8295 157.019 88.9659C156.564 89.1023 156.053 89.2216 155.485 89.3239C154.917 89.4261 154.354 89.517 153.797 89.5966C153.241 89.6761 152.758 89.7443 152.349 89.8011C151.428 89.9261 150.604 90.1307 149.877 90.4148C149.15 90.6989 148.576 91.0966 148.155 91.608C147.735 92.108 147.525 92.7557 147.525 93.5511C147.525 94.6875 147.939 95.5455 148.769 96.125C149.599 96.7045 150.655 96.9943 151.939 96.9943ZM188.491 101.24C185.995 101.24 183.675 100.824 181.531 99.992C179.419 99.128 177.579 97.928 176.011 96.392C174.443 94.856 173.227 93.064 172.363 91.016C171.499 88.936 171.067 86.664 171.067 84.2C171.067 81.736 171.499 79.48 172.363 77.432C173.227 75.352 174.443 73.544 176.011 72.008C177.611 70.472 179.467 69.288 181.579 68.456C183.691 67.592 185.995 67.16 188.491 67.16C190.859 67.16 193.067 67.544 195.115 68.312C197.195 69.08 198.971 70.248 200.443 71.816L198.907 73.4C197.467 71.992 195.867 70.984 194.107 70.376C192.379 69.736 190.539 69.416 188.587 69.416C186.443 69.416 184.443 69.784 182.587 70.52C180.763 71.256 179.163 72.296 177.787 73.64C176.443 74.984 175.387 76.552 174.619 78.344C173.883 80.136 173.515 82.088 173.515 84.2C173.515 86.312 173.883 88.264 174.619 90.056C175.387 91.848 176.443 93.416 177.787 94.76C179.163 96.104 180.763 97.144 182.587 97.88C184.443 98.616 186.443 98.984 188.587 98.984C190.539 98.984 192.379 98.68 194.107 98.072C195.867 97.432 197.467 96.392 198.907 94.952L200.443 96.536C198.971 98.104 197.195 99.288 195.115 100.088C193.067 100.856 190.859 101.24 188.491 101.24ZM209.875 101V67.4H211.939L227.539 94.328H226.435L241.987 67.4H244.003L244.051 101H241.651L241.603 71.096H242.275L227.539 96.536H226.339L211.555 71.096H212.275V101H209.875ZM265.83 101.24C263.334 101.24 260.966 100.824 258.726 99.992C256.518 99.128 254.806 98.024 253.59 96.68L254.694 94.856C255.846 96.04 257.414 97.048 259.398 97.88C261.414 98.68 263.542 99.08 265.782 99.08C268.022 99.08 269.846 98.792 271.254 98.216C272.694 97.608 273.75 96.808 274.422 95.816C275.126 94.824 275.478 93.72 275.478 92.504C275.478 91.064 275.094 89.912 274.326 89.048C273.558 88.184 272.55 87.496 271.302 86.984C270.054 86.472 268.694 86.04 267.222 85.688C265.75 85.336 264.262 84.968 262.758 84.584C261.254 84.168 259.878 83.64 258.63 83C257.382 82.36 256.374 81.496 255.606 80.408C254.87 79.288 254.502 77.848 254.502 76.088C254.502 74.488 254.918 73.016 255.75 71.672C256.582 70.328 257.878 69.24 259.638 68.408C261.398 67.576 263.654 67.16 266.406 67.16C268.262 67.16 270.086 67.432 271.878 67.976C273.702 68.52 275.254 69.256 276.534 70.184L275.622 72.152C274.214 71.192 272.694 70.488 271.062 70.04C269.462 69.56 267.91 69.32 266.406 69.32C264.262 69.32 262.486 69.624 261.078 70.232C259.67 70.84 258.63 71.656 257.958 72.68C257.286 73.672 256.95 74.792 256.95 76.04C256.95 77.48 257.318 78.632 258.054 79.496C258.822 80.36 259.83 81.048 261.078 81.56C262.326 82.072 263.702 82.504 265.206 82.856C266.71 83.208 268.198 83.592 269.67 84.008C271.142 84.392 272.502 84.904 273.75 85.544C274.998 86.184 276.006 87.048 276.774 88.136C277.542 89.224 277.926 90.632 277.926 92.36C277.926 93.928 277.494 95.4 276.63 96.776C275.766 98.12 274.438 99.208 272.646 100.04C270.886 100.84 268.614 101.24 265.83 101.24Z" fill="#058454"/>
</g>
<defs>
<clipPath id="clip0_658_21483">
<rect width="256" height="134" fill="white" transform="translate(22 16.5)"/>
</clipPath>
</defs>
</svg>
