<svg width="750" height="500" viewBox="0 0 750 500" fill="none" xmlns="http://www.w3.org/2000/svg">
<path d="M439.359 406.29C439.299 406.29 440.56 402.23 440.67 401.99C441.93 399.14 446.08 394.36 449.52 394.73C450.058 394.801 450.578 394.978 451.048 395.251C451.518 395.523 451.93 395.886 452.26 396.318C452.59 396.75 452.831 397.243 452.97 397.768C453.109 398.294 453.143 398.841 453.07 399.38C453.053 399.525 453.027 399.669 452.99 399.81C452.49 402.23 450.08 404.08 447.99 405.08C445.5 406.24 439.359 406.29 439.359 406.29Z" fill="#263238"/>
<path d="M700.999 359.87C698.499 358.78 694.419 354.19 694.409 354.18C694.399 354.17 698.249 352.43 698.509 352.34C701.509 351.41 707.779 351.34 709.799 354.22C710.404 355.131 710.623 356.245 710.407 357.318C710.191 358.39 709.559 359.333 708.649 359.94C708.526 360.028 708.396 360.105 708.259 360.17C706.109 361.39 703.139 360.8 700.999 359.87Z" fill="#263238"/>
<path d="M636.5 385.44C634.95 386.55 633.5 387.62 632.26 388.6L629.88 387.96C631.49 386.75 633.38 385.41 635.45 383.96C636.66 383.12 637.97 382.24 639.33 381.36C638.71 379.944 638.169 378.495 637.71 377.02C635.4 377.15 631.12 375.77 630.57 375.6C630.02 376.95 629.51 378.26 629.04 379.52C627.97 382.34 627.11 384.87 626.4 387.01L624.4 386.48C625.17 384.3 626.12 381.73 627.27 378.85C627.82 377.48 628.43 376.02 629.07 374.54C628.57 374.22 624.51 371.62 623.27 369.74C622.15 368.03 621.2 365.52 621.94 363.48C622.085 363.026 622.319 362.604 622.627 362.24C622.936 361.876 623.313 361.577 623.738 361.36C624.163 361.142 624.626 361.011 625.102 360.973C625.578 360.935 626.056 360.992 626.51 361.14L626.87 361.27C629.64 362.6 630.53 368.06 630.16 370.78C630.16 370.93 629.71 372.65 629.43 373.72C629.7 373.1 629.94 372.53 630.22 371.91C630.77 370.66 631.35 369.46 631.95 368.14L632.95 366.26C633.25 365.65 633.67 365 634.04 364.36C634.91 362.88 635.86 361.44 636.86 360.01C635.78 359.52 631.97 357.75 630.6 356.23C629.23 354.71 627.92 352.37 628.33 350.23C628.475 349.277 628.993 348.421 629.769 347.849C630.545 347.277 631.516 347.037 632.47 347.18C632.61 347.18 632.75 347.23 632.88 347.27C635.82 348.16 637.5 353.44 637.58 356.17C637.58 356.34 637.39 358.31 637.27 359.39C637.88 358.53 638.48 357.67 639.12 356.83C640.97 354.37 642.91 351.95 644.84 349.53L646.6 347.29C646.21 347.13 641.6 345.12 640.1 343.42C638.74 341.89 637.42 339.56 637.83 337.42C637.984 336.468 638.51 335.615 639.291 335.049C640.073 334.484 641.047 334.25 642 334.4C642.13 334.4 642.27 334.45 642.4 334.49C645.34 335.38 647.02 340.66 647.1 343.39C647.1 343.59 646.83 346.39 646.73 347.15C648.02 345.51 649.28 343.86 650.46 342.15C652.071 339.894 653.534 337.536 654.84 335.09C654.65 335.04 649.84 332.95 648.3 331.2C646.94 329.68 645.62 327.36 646.03 325.2C646.187 324.252 646.712 323.405 647.492 322.843C648.271 322.281 649.241 322.05 650.19 322.2C650.321 322.217 650.452 322.244 650.58 322.28C653.52 323.17 655.2 328.45 655.27 331.18C655.27 331.36 655.08 333.52 654.96 334.55H655.13C656.357 332.057 657.361 329.46 658.13 326.79C658.58 325.32 658.92 323.89 659.23 322.49C658.3 322.2 654.09 320.81 652.48 319.38C650.87 317.95 649.39 315.85 649.57 313.68C649.593 313.203 649.71 312.735 649.914 312.304C650.118 311.872 650.405 311.485 650.759 311.165C651.113 310.844 651.526 310.597 651.976 310.436C652.426 310.276 652.903 310.206 653.38 310.23H653.77C656.77 310.79 659.06 315.84 659.41 318.56C659.41 318.7 659.41 320.23 659.41 321.34C659.54 320.71 659.68 320.05 659.8 319.45C660.22 317.16 660.47 315.05 660.67 313.17C660.776 312.097 660.856 311.117 660.91 310.23C660.16 309.47 657.13 306.35 656.38 304.38C655.63 302.41 655.27 299.83 656.38 298C656.619 297.582 656.938 297.216 657.32 296.924C657.702 296.631 658.138 296.416 658.603 296.294C659.069 296.171 659.554 296.142 660.03 296.208C660.507 296.274 660.966 296.435 661.38 296.68L661.71 296.89C664.13 298.78 663.82 304.31 662.88 306.89C662.82 307.11 661.12 310.44 661.08 310.4C661.08 311.27 660.99 312.2 660.9 313.22C660.74 315.11 660.51 317.22 660.16 319.54C659.78 322.021 659.259 324.478 658.6 326.9C657.88 329.62 656.919 332.27 655.73 334.82V334.92C656.35 334.26 658.13 332.49 658.28 332.37C660.43 330.65 665.58 328.62 668.13 330.37C668.521 330.643 668.854 330.992 669.11 331.394C669.367 331.797 669.541 332.247 669.622 332.717C669.704 333.187 669.692 333.669 669.587 334.135C669.482 334.6 669.286 335.041 669.01 335.43L668.77 335.74C667.39 337.42 664.77 337.87 662.71 337.79C660.4 337.7 655.93 335.44 655.58 335.26C654.292 337.818 652.839 340.29 651.23 342.66C650.29 344.04 649.31 345.41 648.31 346.77C648.86 346.22 649.31 345.77 649.43 345.67C651.57 343.96 656.72 341.92 659.28 343.67C659.67 343.944 660.002 344.293 660.258 344.696C660.513 345.099 660.687 345.548 660.768 346.018C660.85 346.488 660.838 346.969 660.734 347.434C660.629 347.9 660.434 348.34 660.16 348.73C660.085 348.84 660.001 348.944 659.91 349.04C658.54 350.72 655.91 351.18 653.91 351.1C651.91 351.02 647.98 349.17 646.97 348.67C646.57 349.18 646.19 349.67 645.8 350.21C643.92 352.68 642.04 355.14 640.27 357.61C639.65 358.48 639.09 359.38 638.48 360.23L639.48 359.23C641.62 357.52 646.77 355.48 649.33 357.23C650.116 357.786 650.649 358.63 650.814 359.578C650.979 360.527 650.762 361.502 650.21 362.29C650.132 362.401 650.048 362.508 649.96 362.61C648.59 364.28 645.96 364.74 643.96 364.61C641.96 364.48 638.41 362.85 637.21 362.26C636.63 363.18 636.05 364.1 635.54 365.01C635.21 365.62 634.83 366.22 634.54 366.88L633.6 368.79C633.04 370.04 632.47 371.28 631.96 372.5C631.6 373.34 631.27 374.15 630.96 374.96C631.56 374.09 632.8 372.41 632.96 372.28C634.665 370.573 636.779 369.33 639.1 368.67C639.28 368.47 639.481 368.289 639.7 368.13C640.071 367.831 640.498 367.608 640.955 367.474C641.413 367.341 641.892 367.298 642.366 367.351C642.84 367.403 643.299 367.548 643.716 367.778C644.134 368.007 644.502 368.317 644.8 368.69C644.882 368.793 644.959 368.899 645.03 369.01C646.61 371.64 644.33 376.68 642.53 378.75C642.43 378.88 641.13 380.06 640.29 380.75C640.85 380.39 641.38 380.04 641.98 379.68C643.12 378.95 644.27 378.26 645.51 377.52L647.37 376.52C647.98 376.17 648.67 375.87 649.32 375.52C650.87 374.78 652.46 374.1 654.09 373.46C653.46 372.46 651.27 368.88 650.99 366.86C650.71 364.84 650.87 362.17 652.4 360.62C652.723 360.27 653.113 359.987 653.546 359.788C653.979 359.588 654.447 359.476 654.923 359.457C655.4 359.439 655.875 359.514 656.322 359.679C656.769 359.845 657.18 360.096 657.53 360.42L657.8 360.7C659.8 363.06 658.28 368.39 656.8 370.7C656.71 370.84 655.47 372.39 654.8 373.22C655.8 372.83 656.75 372.45 657.75 372.09C660.64 371.09 663.6 370.09 666.55 369.17L669.25 368.27C669.02 367.92 666.25 363.73 665.98 361.45C665.68 359.45 665.86 356.76 667.38 355.22C668.035 354.513 668.945 354.094 669.908 354.057C670.872 354.019 671.811 354.366 672.52 355.02L672.79 355.29C674.79 357.66 673.27 362.99 671.79 365.29C671.68 365.46 669.89 367.68 669.41 368.22C671.41 367.56 673.35 366.88 675.26 366.14C677.843 365.143 680.362 363.984 682.8 362.67C682.69 362.5 679.8 358.14 679.51 355.81C679.21 353.81 679.39 351.12 680.91 349.57C681.565 348.863 682.475 348.444 683.438 348.407C684.402 348.369 685.341 348.716 686.05 349.37C686.141 349.458 686.228 349.552 686.31 349.65C688.31 352.01 686.79 357.35 685.31 359.65C685.21 359.8 683.85 361.5 683.19 362.28L683.3 362.42C685.718 361.029 688.005 359.419 690.13 357.61C691.31 356.61 692.39 355.61 693.42 354.61C692.8 353.85 690.04 350.35 689.5 348.29C688.96 346.23 688.87 343.64 690.21 341.93C690.782 341.156 691.638 340.64 692.591 340.496C693.543 340.351 694.513 340.59 695.29 341.16C695.396 341.232 695.496 341.312 695.59 341.4C697.81 343.54 696.91 349 695.71 351.46C695.71 351.6 694.82 352.88 694.21 353.81C694.67 353.36 695.21 352.9 695.58 352.45C697.19 350.79 698.58 349.15 699.77 347.7C700.45 346.86 701.05 346.1 701.59 345.39C701.38 344.33 700.59 340.06 701.04 338.01C701.49 335.96 702.62 333.6 704.6 332.68C705.467 332.254 706.468 332.19 707.383 332.501C708.298 332.813 709.052 333.474 709.48 334.34C709.53 334.46 709.58 334.57 709.62 334.69C710.62 337.6 707.3 342.04 705.06 343.69C704.88 343.83 701.64 345.69 701.63 345.63V345.57C701.12 346.28 700.54 347.03 699.93 347.83C698.75 349.32 697.41 350.98 695.8 352.69C694.113 354.552 692.32 356.315 690.43 357.97C688.319 359.835 686.047 361.508 683.64 362.97H683.56C684.43 362.76 686.9 362.26 687.1 362.24C689.83 362 695.26 363.15 696.44 365.97C696.614 366.414 696.699 366.888 696.69 367.364C696.681 367.841 696.578 368.311 696.386 368.748C696.195 369.185 695.919 369.579 695.575 369.909C695.23 370.239 694.824 370.498 694.38 370.67L694 370.8C691.93 371.44 689.48 370.37 687.82 369.18C685.95 367.82 683.47 363.47 683.27 363.13C680.785 364.551 678.209 365.807 675.56 366.89C673.98 367.52 672.42 368.14 670.86 368.71C671.365 368.578 671.88 368.484 672.4 368.43C675.13 368.19 680.56 369.34 681.74 372.16C681.914 372.604 681.999 373.078 681.99 373.554C681.981 374.031 681.878 374.501 681.686 374.938C681.495 375.375 681.219 375.769 680.875 376.099C680.53 376.429 680.124 376.688 679.68 376.86L679.3 376.99C677.23 377.63 674.79 376.56 673.12 375.36C671.45 374.16 669.24 370.48 668.68 369.5L666.85 370.15C663.92 371.15 660.99 372.15 658.15 373.25C657.15 373.64 656.15 374.05 655.15 374.45L656.49 374.19C659.22 373.95 664.65 375.1 665.83 377.93C666.183 378.819 666.171 379.811 665.796 380.691C665.422 381.571 664.715 382.268 663.83 382.63L663.45 382.76C661.38 383.39 658.93 382.32 657.26 381.13C655.59 379.94 653.59 376.62 652.93 375.44C651.93 375.87 650.93 376.34 650.02 376.81C649.39 377.15 648.76 377.43 648.14 377.81L646.11 379C644.97 379.73 643.79 380.47 642.7 381.2C641.94 381.69 641.22 382.2 640.49 382.7C641.49 382.27 643.49 381.59 643.61 381.54C646.28 380.87 651.8 381.2 653.41 383.81C653.655 384.224 653.815 384.683 653.882 385.159C653.948 385.636 653.919 386.121 653.796 386.586C653.673 387.052 653.459 387.488 653.166 387.869C652.873 388.251 652.507 388.571 652.09 388.81C651.977 388.878 651.86 388.938 651.74 388.99C649.74 389.94 647.2 389.25 645.38 388.32C643.38 387.32 640.38 383.54 639.99 383.07C638.74 383.84 637.58 384.65 636.5 385.44Z" fill="#263238"/>
<path d="M53.0896 365.21C55.3596 364.33 59.0896 360.4 59.0896 360.4C59.0896 360.4 55.7396 358.7 55.5196 358.61C52.9096 357.68 47.3196 357.43 45.4096 359.9C45.1269 360.29 44.9241 360.733 44.8128 361.202C44.7015 361.67 44.6839 362.157 44.761 362.632C44.8381 363.108 45.0085 363.564 45.2622 363.974C45.5159 364.383 45.8481 364.739 46.2396 365.02C46.3418 365.101 46.4524 365.172 46.5696 365.23C48.4996 366.38 51.1696 366 53.0896 365.21Z" fill="#263238"/>
<path d="M91.53 332.62C91.53 332.62 89.67 329.36 89.53 329.16C87.87 326.96 83.35 323.66 80.41 324.67C79.9584 324.838 79.5445 325.093 79.1921 325.422C78.8397 325.75 78.5559 326.146 78.357 326.584C78.158 327.023 78.0479 327.497 78.033 327.978C78.0181 328.46 78.0986 328.94 78.27 329.39C78.313 329.518 78.3666 329.641 78.43 329.76C79.35 331.76 81.8 332.86 83.83 333.3C86.2 333.82 91.52 332.62 91.53 332.62Z" fill="#263238"/>
<path d="M109.47 390.14C110.8 391.14 112.03 392.14 113.13 393.14L115.26 392.65C113.87 391.52 112.26 390.25 110.46 388.9C109.46 388.11 108.27 387.29 107.11 386.45C107.719 385.218 108.26 383.952 108.73 382.66C110.73 382.88 114.61 381.78 115.12 381.66C115.55 382.88 115.96 384.07 116.33 385.19C117.18 387.74 117.87 390.01 118.42 391.94L120.14 391.54C119.55 389.6 118.79 387.26 117.85 384.67C117.41 383.43 116.92 382.11 116.41 380.77C116.86 380.51 120.56 378.34 121.71 376.71C122.76 375.23 123.71 373.04 123.12 371.21C123.008 370.798 122.815 370.412 122.552 370.075C122.29 369.738 121.963 369.457 121.591 369.247C121.219 369.038 120.808 368.905 120.384 368.855C119.96 368.806 119.53 368.842 119.12 368.96L118.79 369.07C116.26 370.15 115.3 374.98 115.53 377.4C115.53 377.54 115.86 379.08 116.09 380.05C115.87 379.5 115.67 378.96 115.44 378.41C115 377.3 114.52 376.2 114.01 375.01L113.21 373.31C112.94 372.74 112.61 372.16 112.31 371.58C111.59 370.24 110.79 368.92 109.95 367.58C110.95 367.2 114.39 365.76 115.64 364.45C116.89 363.14 118.15 361.12 117.89 359.21C117.839 358.788 117.705 358.381 117.497 358.011C117.288 357.641 117.009 357.315 116.675 357.053C116.34 356.791 115.957 356.598 115.548 356.484C115.139 356.37 114.711 356.338 114.29 356.39L113.96 356.45C111.34 357.14 109.63 361.75 109.5 364.18C109.5 364.34 109.59 366.09 109.66 367.05C109.16 366.27 108.66 365.49 108.11 364.71C106.56 362.47 104.92 360.26 103.29 358.03C102.79 357.36 102.29 356.68 101.8 356.03C102.15 355.89 106.26 354.3 107.7 352.81C108.97 351.5 110.22 349.48 109.96 347.57C109.857 346.72 109.421 345.946 108.748 345.417C108.075 344.888 107.22 344.648 106.37 344.75C106.255 344.759 106.141 344.78 106.03 344.81C103.41 345.49 101.71 350.11 101.58 352.54C101.58 352.73 101.71 355.26 101.78 355.89C100.69 354.39 99.6196 352.89 98.6396 351.35C97.2866 349.271 96.0707 347.107 94.9996 344.87C95.1596 344.87 99.4596 343.14 100.93 341.63C102.2 340.32 103.45 338.31 103.19 336.4C103.087 335.548 102.65 334.771 101.975 334.24C101.3 333.709 100.442 333.468 99.5896 333.57L99.2596 333.63C96.6396 334.31 94.9296 338.93 94.7996 341.37C94.7996 341.52 94.8896 343.43 94.9696 344.37H94.8196C93.735 342.119 92.8516 339.777 92.1796 337.37C91.8296 336.06 91.5796 334.77 91.3496 333.52C92.1896 333.32 95.9896 332.2 97.4496 330.99C98.9096 329.78 100.32 327.99 100.24 326.05C100.211 325.209 99.8575 324.412 99.2533 323.826C98.649 323.241 97.8411 322.912 96.9996 322.91H96.6596C93.9796 323.31 91.7696 327.71 91.3896 330.1C91.3896 330.23 91.2896 331.59 91.2696 332.57C91.1796 332.01 91.0696 331.42 90.9996 330.88C90.6996 328.88 90.5496 326.95 90.4396 325.27C90.3796 324.27 90.3496 323.46 90.3296 322.66C91.0296 322 93.8196 319.34 94.5496 317.66C95.2796 315.98 95.6996 313.66 94.7396 311.99C94.54 311.616 94.2686 311.284 93.941 311.015C93.6133 310.746 93.2358 310.543 92.8301 310.42C92.4243 310.296 91.9981 310.254 91.5759 310.295C91.1538 310.336 90.7439 310.46 90.3696 310.66L90.0796 310.83C87.8596 312.42 87.9396 317.35 88.6596 319.67C88.6596 319.87 90.0996 322.89 90.0896 322.86H90.1496C90.1496 323.64 90.1496 324.46 90.1496 325.38C90.2296 327.05 90.3396 328.95 90.5896 331.01C90.8388 333.227 91.2195 335.428 91.7296 337.6C92.2808 340.03 93.0472 342.406 94.0196 344.7V344.78C93.4996 344.21 92.0196 342.54 91.8496 342.43C89.9996 340.84 85.4696 338.85 83.1696 340.28C82.8102 340.505 82.499 340.799 82.2539 341.145C82.0089 341.492 81.8348 341.883 81.7418 342.297C81.6488 342.71 81.6388 343.138 81.7122 343.556C81.7856 343.974 81.9411 344.373 82.1696 344.73C82.2305 344.833 82.3008 344.93 82.3796 345.02C83.5396 346.56 85.8596 347.02 87.7096 347.02C89.7796 347.02 93.8096 345.16 94.1296 345.02C95.1908 347.334 96.4035 349.576 97.7596 351.73C98.5396 352.99 99.3696 354.23 100.21 355.47C99.8832 355.152 99.5728 354.819 99.2796 354.47C97.4296 352.87 92.9296 350.89 90.5996 352.31C90.2409 352.537 89.9304 352.832 89.686 353.18C89.4416 353.527 89.268 353.918 89.1751 354.333C89.0822 354.747 89.0719 355.175 89.1447 355.594C89.2176 356.012 89.3721 356.412 89.5996 356.77L89.8096 357.06C90.9696 358.59 93.2896 359.06 95.1396 359.06C96.9896 359.06 100.46 357.54 101.38 357.13L102.38 358.55C103.97 360.81 105.56 363.05 107.04 365.3C107.57 366.1 108.04 366.9 108.56 367.73C108.15 367.28 107.79 366.9 107.73 366.85C105.88 365.26 101.35 363.28 99.0596 364.7C98.6999 364.926 98.3884 365.221 98.1433 365.568C97.8981 365.915 97.724 366.307 97.631 366.722C97.5381 367.136 97.5281 367.565 97.6016 367.984C97.6752 368.402 97.8308 368.802 98.0596 369.16L98.2696 369.45C99.4296 370.98 101.76 371.45 103.6 371.45C105.44 371.45 108.6 370.09 109.68 369.6C110.16 370.44 110.68 371.27 111.06 372.1C111.34 372.67 111.65 373.21 111.9 373.79C112.15 374.37 112.41 374.95 112.67 375.52C113.11 376.63 113.58 377.78 113.99 378.87C114.28 379.63 114.54 380.36 114.81 381.1C114.29 380.3 113.25 378.77 113.15 378.65C111.674 377.045 109.806 375.853 107.73 375.19C107.577 375.006 107.406 374.839 107.22 374.69C106.572 374.13 105.728 373.849 104.874 373.909C104.019 373.969 103.223 374.365 102.66 375.01L102.45 375.28C100.96 377.57 102.8 382.14 104.33 384.03C104.43 384.14 105.53 385.24 106.26 385.93C105.77 385.59 105.31 385.25 104.8 384.88C103.8 384.2 102.8 383.54 101.73 382.81L100.12 381.81C99.5896 381.46 98.9896 381.18 98.4096 380.86C97.0696 380.15 95.6796 379.48 94.2596 378.86C94.8696 378.02 96.9296 374.86 97.2596 373.1C97.5896 371.34 97.5296 368.94 96.2596 367.51C95.7032 366.857 94.9108 366.452 94.0561 366.383C93.2013 366.313 92.3539 366.586 91.6996 367.14L91.4496 367.38C89.6196 369.38 90.7596 374.2 91.9696 376.28C92.0496 376.41 93.0996 377.82 93.6996 378.59C92.8396 378.21 91.9896 377.83 91.1096 377.49C88.5796 376.49 85.9896 375.49 83.3996 374.58L81.0496 373.78C81.2596 373.47 83.8096 369.84 84.1896 367.78C84.5196 366 84.4596 363.62 83.1896 362.2C82.6193 361.617 81.8489 361.272 81.034 361.235C80.2192 361.198 79.4206 361.471 78.7996 362C78.7094 362.069 78.6257 362.146 78.5496 362.23C76.7296 364.23 77.8496 369.05 79.0796 371.13C79.1696 371.29 80.6796 373.32 81.0796 373.81C79.3396 373.16 77.6296 372.49 75.9496 371.76C73.6892 370.795 71.4945 369.682 69.3796 368.43C69.4796 368.29 72.1596 364.52 72.5396 362.43C72.8896 360.64 72.8096 358.26 71.5396 356.84C70.9832 356.187 70.1908 355.782 69.3361 355.713C68.4813 355.643 67.6339 355.916 66.9796 356.47L66.7296 356.71C64.9096 358.71 66.0396 363.52 67.2596 365.61C67.3396 365.74 68.4896 367.29 69.0596 368.01L68.9496 368.13C66.8546 366.806 64.8802 365.3 63.0496 363.63C62.0496 362.73 61.1096 361.8 60.2296 360.88C60.7796 360.23 63.3796 357.22 63.9296 355.4C64.4796 353.58 64.6496 351.3 63.5196 349.74C63.2832 349.388 62.9796 349.086 62.6262 348.852C62.2728 348.617 61.8766 348.455 61.4603 348.374C61.0441 348.293 60.6159 348.296 60.2005 348.381C59.7851 348.466 59.3906 348.632 59.0396 348.87C58.9431 348.931 58.8526 349.001 58.7696 349.08C56.7696 350.9 57.3196 355.78 58.3096 358.01C58.3096 358.14 59.0496 359.3 59.5596 360.14C59.1696 359.73 58.7596 359.3 58.3896 358.89C57.0196 357.35 55.8596 355.89 54.8396 354.52C54.2596 353.76 53.7596 353.06 53.2896 352.4C53.5196 351.47 54.3796 347.7 54.0496 345.87C53.7196 344.04 52.7896 341.87 51.0496 341.01C50.2949 340.601 49.4087 340.508 48.5857 340.752C47.7626 340.996 47.0699 341.556 46.6596 342.31C46.6069 342.411 46.5602 342.514 46.5196 342.62C45.5196 345.17 48.3296 349.23 50.2396 350.78C50.4096 350.91 53.2396 352.67 53.2396 352.62V352.57C53.6796 353.22 54.1596 353.9 54.6896 354.63C55.6896 355.99 56.8096 357.52 58.1596 359.09C59.5938 360.804 61.1299 362.43 62.7596 363.96C64.5622 365.692 66.5167 367.258 68.5996 368.64H68.6796C67.9396 368.42 65.6796 367.89 65.5696 367.87C63.1496 367.56 58.2996 368.39 57.1396 370.87C56.7928 371.652 56.7707 372.541 57.0782 373.339C57.3857 374.138 57.9976 374.782 58.7796 375.13C58.8973 375.179 59.0175 375.223 59.1396 375.26C60.9596 375.9 63.1396 375.02 64.6896 374.04C66.3996 372.9 68.7496 369.13 68.9396 368.83C71.0955 370.184 73.3406 371.39 75.6596 372.44C76.9996 373.06 78.3696 373.65 79.7596 374.21L78.3996 373.89C75.9896 373.58 71.1296 374.41 69.9796 376.89C69.8068 377.278 69.7125 377.696 69.7019 378.121C69.6914 378.545 69.765 378.967 69.9183 379.363C70.0717 379.759 70.3018 380.121 70.5955 380.428C70.8892 380.734 71.2406 380.98 71.6296 381.15L71.9796 381.28C73.7996 381.91 75.9796 381.04 77.5196 380.05C79.0596 379.06 81.1296 375.85 81.6696 375L83.2696 375.64C85.8396 376.64 88.3996 377.64 90.9196 378.72C91.7996 379.09 92.6496 379.49 93.4996 379.88C92.9096 379.73 92.3996 379.62 92.3196 379.61C89.9096 379.3 85.0596 380.13 83.8996 382.61C83.7282 382.998 83.6349 383.416 83.625 383.84C83.6152 384.264 83.689 384.686 83.8422 385.082C83.9954 385.477 84.2251 385.839 84.518 386.146C84.811 386.453 85.1615 386.699 85.5496 386.87L85.8996 387C87.7096 387.63 89.8996 386.76 91.4496 385.77C92.9996 384.78 94.8496 381.87 95.4496 380.87C96.3196 381.3 97.1696 381.73 97.9896 382.19C98.5396 382.51 99.0896 382.78 99.5996 383.14L101.22 384.14C102.22 384.82 103.22 385.51 104.22 386.23C104.89 386.7 105.51 387.16 106.13 387.63C105.27 387.25 103.55 386.55 103.4 386.5C101.06 385.83 96.1396 385.91 94.6196 388.18C94.3924 388.538 94.238 388.937 94.1653 389.354C94.0926 389.771 94.103 390.199 94.1959 390.613C94.2888 391.026 94.4624 391.417 94.7067 391.763C94.951 392.109 95.2612 392.404 95.6196 392.63L95.9196 392.8C97.6196 393.7 99.9196 393.19 101.59 392.43C103.4 391.58 106.19 388.36 106.59 387.94C107.57 388.64 108.55 389.41 109.47 390.14Z" fill="#263238"/>
<path d="M555.91 49.14C496.84 14.14 418.25 26.48 362.91 68.45C323.32 98.45 286.57 133.45 241.39 154.13C206.65 170 167 177.64 141.06 207.79C100.51 254.99 105.91 321.52 134.06 373.49C166.74 433.8 226.06 460.9 292.17 469.49C358.04 478.08 427.42 468.21 485.22 434.3C562.22 389.12 603.51 302.77 618.22 217.3C629.26 152.92 615.73 84.55 555.91 49.14Z" fill="#40B688"/>
<path opacity="0.7" d="M555.91 49.14C496.84 14.14 418.25 26.48 362.91 68.45C323.32 98.45 286.57 133.45 241.39 154.13C206.65 170 167 177.64 141.06 207.79C100.51 254.99 105.91 321.52 134.06 373.49C166.74 433.8 226.06 460.9 292.17 469.49C358.04 478.08 427.42 468.21 485.22 434.3C562.22 389.12 603.51 302.77 618.22 217.3C629.26 152.92 615.73 84.55 555.91 49.14Z" fill="white"/>
<path d="M632.15 96.46V424.12C632.15 426.133 631.753 428.126 630.983 429.985C630.212 431.844 629.083 433.534 627.659 434.956C626.236 436.379 624.546 437.507 622.686 438.277C620.826 439.046 618.833 439.441 616.82 439.44H128.66C124.597 439.44 120.7 437.826 117.827 434.953C114.954 432.08 113.34 428.183 113.34 424.12V96.46C113.34 96.24 113.34 96.02 113.34 95.81C113.499 91.9969 115.076 88.3806 117.762 85.669C120.447 82.9575 124.048 81.346 127.86 81.15H128.64H616.82H617.61C621.421 81.346 625.022 82.9575 627.708 85.669C630.394 88.3806 631.971 91.9969 632.13 95.81C632.14 96 632.15 96.24 632.15 96.46Z" fill="white" stroke="#263238" stroke-linecap="round" stroke-linejoin="round"/>
<path d="M632.129 95.81H113.359C113.519 91.9969 115.096 88.3806 117.781 85.669C120.467 82.9575 124.068 81.346 127.879 81.15H128.659H616.819H617.609C621.421 81.346 625.022 82.9575 627.707 85.669C630.393 88.3806 631.97 91.9969 632.129 95.81V95.81Z" fill="#40B688" stroke="#263238" stroke-miterlimit="10"/>
<path d="M139.9 88.47C139.9 88.9447 139.759 89.4087 139.495 89.8034C139.231 90.198 138.857 90.5057 138.418 90.6873C137.98 90.869 137.497 90.9165 137.031 90.8239C136.566 90.7313 136.138 90.5027 135.803 90.1671C135.467 89.8314 135.238 89.4038 135.146 88.9382C135.053 88.4727 135.101 87.9901 135.282 87.5516C135.464 87.113 135.772 86.7382 136.166 86.4745C136.561 86.2108 137.025 86.07 137.5 86.07C137.815 86.0687 138.128 86.1298 138.42 86.25C138.711 86.3701 138.976 86.5469 139.2 86.77C139.423 86.9931 139.599 87.2582 139.72 87.55C139.84 87.8418 139.901 88.1545 139.9 88.47V88.47Z" fill="#263238"/>
<path d="M149.36 88.47C149.36 88.9447 149.219 89.4087 148.955 89.8034C148.691 90.198 148.317 90.5057 147.878 90.6873C147.439 90.869 146.957 90.9165 146.491 90.8239C146.026 90.7313 145.598 90.5027 145.263 90.1671C144.927 89.8314 144.698 89.4038 144.606 88.9382C144.513 88.4727 144.561 87.9901 144.742 87.5516C144.924 87.113 145.232 86.7382 145.626 86.4745C146.021 86.2108 146.485 86.07 146.96 86.07C147.275 86.0687 147.588 86.1298 147.88 86.25C148.171 86.3701 148.436 86.5469 148.66 86.77C148.883 86.9931 149.059 87.2582 149.18 87.55C149.3 87.8418 149.361 88.1545 149.36 88.47V88.47Z" fill="#263238"/>
<path d="M158.83 88.47C158.832 88.9471 158.692 89.414 158.428 89.8116C158.165 90.2093 157.789 90.5197 157.349 90.7037C156.909 90.8876 156.424 90.9368 155.956 90.8449C155.488 90.753 155.057 90.5243 154.719 90.1877C154.381 89.851 154.151 89.4216 154.057 88.9539C153.963 88.4861 154.01 88.001 154.192 87.5601C154.374 87.1191 154.683 86.7421 155.08 86.4769C155.476 86.2116 155.943 86.07 156.42 86.07C156.736 86.0687 157.049 86.1298 157.341 86.2498C157.634 86.3698 157.899 86.5464 158.123 86.7694C158.347 86.9924 158.525 87.2574 158.646 87.5492C158.767 87.8411 158.83 88.154 158.83 88.47V88.47Z" fill="#263238"/>
<path d="M139.52 255.04C146.319 255.04 151.83 249.529 151.83 242.73C151.83 235.931 146.319 230.42 139.52 230.42C132.721 230.42 127.21 235.931 127.21 242.73C127.21 249.529 132.721 255.04 139.52 255.04Z" fill="white" stroke="#263238" stroke-linecap="round" stroke-linejoin="round"/>
<path d="M141.82 235.46L135.74 242.73L141.82 248.63" fill="white"/>
<path d="M141.82 235.46L135.74 242.73L141.82 248.63" stroke="#263238" stroke-linecap="round" stroke-linejoin="round"/>
<path d="M389.56 402.19C389.412 403.042 389.441 403.915 389.645 404.754C389.85 405.594 390.226 406.383 390.75 407.07C392.53 409.46 394.16 409.76 394.16 409.76V420.26C394.16 420.26 384.81 422.08 382.58 420.75C381.07 419.84 381.13 415.09 381.33 412.14C381.372 411.479 381.65 410.855 382.115 410.382C382.58 409.91 383.2 409.622 383.86 409.57L386.86 409.32C386.86 409.32 386.14 401 389.56 402.19Z" fill="#263238"/>
<path d="M398.96 409.32H395.55V420.45H398.96V409.32Z" fill="#263238"/>
<path d="M408.59 416.29V417.17C408.61 417.485 408.566 417.802 408.46 418.1C408.353 418.397 408.187 418.67 407.971 418.901C407.755 419.131 407.494 419.315 407.204 419.441C406.914 419.567 406.601 419.632 406.285 419.632C405.968 419.632 405.656 419.567 405.366 419.441C405.076 419.315 404.814 419.131 404.598 418.901C404.382 418.67 404.216 418.397 404.109 418.1C404.003 417.802 403.959 417.485 403.98 417.17V416.89L405.37 416.75V417.07C405.37 417.83 405.7 418.16 406.26 418.16C406.82 418.16 407.14 417.83 407.14 417.16V416.16C407.14 415.4 406.81 415.07 406.05 415.07H405.48V413.71H406C406.76 413.71 407.09 413.38 407.09 412.62V411.88C407.105 411.767 407.095 411.652 407.06 411.543C407.025 411.435 406.965 411.335 406.887 411.253C406.808 411.17 406.711 411.106 406.605 411.066C406.498 411.026 406.383 411.01 406.27 411.02C405.75 411.02 405.45 411.32 405.45 412.02V412.23H404V412C403.979 411.694 404.022 411.387 404.125 411.098C404.228 410.809 404.389 410.544 404.599 410.32C404.808 410.096 405.062 409.918 405.343 409.796C405.624 409.673 405.928 409.61 406.235 409.61C406.541 409.61 406.845 409.673 407.126 409.796C407.408 409.918 407.661 410.096 407.871 410.32C408.08 410.544 408.241 410.809 408.344 411.098C408.447 411.387 408.49 411.694 408.47 412V412.62C408.148 412.816 407.885 413.094 407.705 413.424C407.525 413.755 407.436 414.128 407.446 414.504C407.456 414.88 407.565 415.247 407.763 415.568C407.96 415.888 408.238 416.151 408.57 416.33L408.59 416.29Z" fill="#263238"/>
<path d="M409.75 417.22V412C409.789 411.412 410.049 410.861 410.479 410.459C410.909 410.056 411.476 409.832 412.065 409.832C412.654 409.832 413.221 410.056 413.651 410.459C414.081 410.861 414.341 411.412 414.38 412V417.21C414.341 417.798 414.081 418.349 413.651 418.751C413.221 419.154 412.654 419.378 412.065 419.378C411.476 419.378 410.909 419.154 410.479 418.751C410.049 418.349 409.789 417.798 409.75 417.21V417.22ZM412.93 417.22V412C412.93 411.769 412.838 411.548 412.675 411.385C412.512 411.222 412.291 411.13 412.06 411.13C411.829 411.13 411.608 411.222 411.445 411.385C411.282 411.548 411.19 411.769 411.19 412V417.21C411.19 417.441 411.282 417.662 411.445 417.825C411.608 417.988 411.829 418.08 412.06 418.08C412.291 418.08 412.512 417.988 412.675 417.825C412.838 417.662 412.93 417.441 412.93 417.21V417.22Z" fill="#263238"/>
<path d="M420.53 415.46L419.98 416.51V419.38H418.54V409.85H420V413.72L421.91 409.85H423.46L421.46 413.85L423.64 419.34H422L420.53 415.46Z" fill="#263238"/>
<path d="M446.191 426.51C446.045 425.658 446.075 424.786 446.28 423.947C446.485 423.107 446.859 422.319 447.381 421.63C449.161 419.23 450.801 418.94 450.801 418.94V408.44C450.801 408.44 441.441 406.61 439.221 407.95C437.701 408.86 437.771 413.61 437.961 416.56C438.004 417.222 438.285 417.846 438.751 418.318C439.218 418.79 439.839 419.079 440.501 419.13L443.501 419.38C443.501 419.38 442.781 427.7 446.191 426.51Z" fill="#263238"/>
<path d="M456.09 408.25H452.68V419.38H456.09V408.25Z" fill="#263238"/>
<path d="M464.73 411.9H463.09V410.9C463.495 410.913 463.898 410.824 464.26 410.641C464.621 410.457 464.931 410.185 465.16 409.85H466.16V419.39H464.72L464.73 411.9Z" fill="#263238"/>
<path d="M469.06 418H471.92V419.37H467.35V418.11L469.46 414.75C470.053 413.988 470.402 413.064 470.46 412.1C470.46 411.44 470.15 411.1 469.59 411.1C469.03 411.1 468.72 411.47 468.72 412.1V412.66H467.33V412.21C467.286 411.891 467.313 411.566 467.408 411.258C467.503 410.951 467.664 410.668 467.881 410.429C468.097 410.191 468.364 410.003 468.661 409.879C468.958 409.754 469.279 409.697 469.6 409.71C469.913 409.685 470.228 409.729 470.521 409.839C470.815 409.949 471.081 410.122 471.301 410.346C471.52 410.571 471.688 410.84 471.791 411.136C471.895 411.433 471.932 411.748 471.9 412.06C471.839 413.305 471.392 414.501 470.62 415.48L469.06 418Z" fill="#263238"/>
<path d="M473.001 417.2V416.91L474.391 416.77V417.09C474.391 417.85 474.721 418.15 475.251 418.15C475.781 418.15 476.111 417.85 476.111 417.22V415C476.111 414.44 475.811 414.16 475.351 414.16C475.228 414.155 475.105 414.177 474.991 414.223C474.877 414.269 474.774 414.339 474.689 414.428C474.604 414.517 474.539 414.622 474.498 414.738C474.457 414.854 474.441 414.977 474.451 415.1V415.27H473.001V409.82H477.131V411.18H474.391V413.55C474.541 413.325 474.747 413.143 474.989 413.022C475.231 412.901 475.5 412.845 475.771 412.86C476.015 412.855 476.258 412.903 476.483 413.001C476.707 413.098 476.908 413.243 477.071 413.425C477.234 413.608 477.356 413.823 477.429 414.057C477.501 414.291 477.522 414.537 477.491 414.78V417.18C477.511 417.491 477.468 417.804 477.363 418.098C477.258 418.392 477.094 418.661 476.88 418.889C476.667 419.117 476.409 419.298 476.123 419.423C475.836 419.547 475.528 419.611 475.216 419.611C474.903 419.611 474.595 419.547 474.308 419.423C474.022 419.298 473.764 419.117 473.551 418.889C473.338 418.661 473.173 418.392 473.068 418.098C472.963 417.804 472.92 417.491 472.941 417.18L473.001 417.2Z" fill="#263238"/>
<path d="M268.78 420.14V412.8H272.52L278.22 407.25V424.64L273.5 419.84L268.78 420.14Z" fill="#263238"/>
<path d="M283.77 416C283.772 417.104 283.444 418.184 282.827 419.1C282.21 420.016 281.334 420.727 280.31 421.14V410.81C281.342 411.226 282.224 411.945 282.841 412.871C283.458 413.797 283.782 414.887 283.77 416V416Z" fill="#263238"/>
<path d="M279.74 407.24C281.741 407.591 283.561 408.62 284.892 410.155C286.223 411.689 286.985 413.636 287.05 415.666C287.114 417.697 286.477 419.688 285.246 421.304C284.015 422.92 282.265 424.063 280.29 424.54" stroke="#263238" stroke-miterlimit="10"/>
<path d="M206.68 424.15C206.247 424.15 205.833 423.978 205.527 423.673C205.222 423.367 205.05 422.952 205.05 422.52V410.43C205.05 409.998 205.222 409.583 205.527 409.277C205.833 408.972 206.247 408.8 206.68 408.8C207.112 408.8 207.527 408.972 207.832 409.277C208.138 409.583 208.31 409.998 208.31 410.43V422.52C208.31 422.952 208.138 423.367 207.832 423.673C207.527 423.978 207.112 424.15 206.68 424.15Z" fill="#263238"/>
<path d="M213.19 424.15C212.757 424.15 212.343 423.978 212.037 423.673C211.731 423.367 211.56 422.952 211.56 422.52V410.43C211.56 409.998 211.731 409.583 212.037 409.277C212.343 408.972 212.757 408.8 213.19 408.8C213.622 408.8 214.036 408.972 214.342 409.277C214.648 409.583 214.82 409.998 214.82 410.43V422.52C214.82 422.952 214.648 423.367 214.342 423.673C214.036 423.978 213.622 424.15 213.19 424.15Z" fill="#263238"/>
<path d="M174.23 409C174.664 409.003 175.08 409.176 175.387 409.483C175.694 409.79 175.867 410.206 175.87 410.64V422.83C175.87 423.265 175.697 423.682 175.39 423.99C175.082 424.297 174.665 424.47 174.23 424.47V424.47C174.014 424.471 173.8 424.43 173.601 424.348C173.401 424.266 173.22 424.145 173.067 423.993C172.915 423.84 172.794 423.659 172.712 423.459C172.63 423.26 172.589 423.046 172.59 422.83V410.59C172.603 410.164 172.781 409.759 173.088 409.463C173.394 409.166 173.803 409 174.23 409Z" fill="#263238"/>
<path d="M186.4 410.26V423C186.4 423.125 186.365 423.248 186.299 423.354C186.232 423.461 186.138 423.546 186.025 423.602C185.913 423.657 185.787 423.679 185.662 423.667C185.538 423.654 185.419 423.607 185.32 423.53L176.88 416.85C176.797 416.788 176.73 416.707 176.684 416.614C176.637 416.521 176.613 416.419 176.613 416.315C176.613 416.211 176.637 416.109 176.684 416.016C176.73 415.923 176.797 415.842 176.88 415.78L185.32 409.68C185.422 409.6 185.546 409.552 185.675 409.541C185.805 409.53 185.935 409.557 186.049 409.618C186.163 409.68 186.257 409.773 186.32 409.887C186.382 410.001 186.41 410.13 186.4 410.26Z" fill="#263238"/>
<path d="M245.46 423.78C245.026 423.772 244.612 423.593 244.309 423.283C244.006 422.972 243.837 422.554 243.84 422.12L243.99 409.93C243.991 409.714 244.035 409.501 244.12 409.302C244.204 409.104 244.327 408.924 244.481 408.773C244.636 408.622 244.819 408.504 245.019 408.424C245.22 408.345 245.434 408.306 245.65 408.31V408.31C245.866 408.311 246.079 408.355 246.278 408.44C246.476 408.524 246.656 408.647 246.807 408.802C246.957 408.956 247.076 409.139 247.155 409.339C247.235 409.54 247.274 409.754 247.27 409.97L247.13 422.16C247.119 422.595 246.939 423.009 246.626 423.312C246.314 423.615 245.895 423.783 245.46 423.78Z" fill="#263238"/>
<path d="M233.31 422.32L233.46 409.54C233.462 409.415 233.5 409.292 233.568 409.187C233.636 409.082 233.733 408.998 233.846 408.945C233.96 408.892 234.086 408.872 234.21 408.887C234.335 408.902 234.453 408.951 234.55 409.03L242.91 415.81C242.991 415.873 243.057 415.953 243.102 416.045C243.147 416.137 243.17 416.238 243.17 416.34C243.17 416.442 243.147 416.543 243.102 416.635C243.057 416.727 242.991 416.807 242.91 416.87L234.4 422.87C234.3 422.951 234.178 423.001 234.05 423.015C233.922 423.028 233.793 423.005 233.678 422.947C233.563 422.889 233.467 422.799 233.402 422.687C233.336 422.576 233.305 422.449 233.31 422.32Z" fill="#263238"/>
<path d="M460.81 374.85H175.7C170.779 374.85 166.79 378.839 166.79 383.76V386.71C166.79 391.631 170.779 395.62 175.7 395.62H460.81C465.731 395.62 469.72 391.631 469.72 386.71V383.76C469.72 378.839 465.731 374.85 460.81 374.85Z" fill="white" stroke="#263238" stroke-linecap="round" stroke-linejoin="round"/>
<path d="M459.89 385.2C459.893 385.507 459.834 385.811 459.718 386.095C459.602 386.379 459.431 386.637 459.214 386.854C458.997 387.07 458.739 387.242 458.455 387.358C458.171 387.474 457.867 387.533 457.56 387.53H180.07C179.452 387.53 178.86 387.285 178.423 386.848C177.986 386.411 177.74 385.818 177.74 385.2C177.74 384.582 177.986 383.989 178.423 383.552C178.86 383.115 179.452 382.87 180.07 382.87H457.56C458.178 382.87 458.771 383.115 459.208 383.552C459.645 383.989 459.89 384.582 459.89 385.2Z" fill="#263238"/>
<path d="M250.23 382.87L250.07 387.53H180.07C179.452 387.53 178.86 387.285 178.423 386.848C177.986 386.411 177.74 385.818 177.74 385.2C177.74 384.582 177.986 383.989 178.423 383.552C178.86 383.115 179.452 382.87 180.07 382.87H250.23Z" fill="#40B688"/>
<path d="M255.28 384.73C255.28 385.986 254.908 387.214 254.21 388.258C253.512 389.302 252.52 390.116 251.36 390.597C250.2 391.077 248.923 391.203 247.691 390.958C246.459 390.713 245.328 390.108 244.44 389.22C243.552 388.332 242.947 387.201 242.702 385.969C242.457 384.737 242.583 383.46 243.063 382.3C243.544 381.14 244.358 380.148 245.402 379.45C246.446 378.752 247.674 378.38 248.93 378.38C250.614 378.38 252.229 379.049 253.42 380.24C254.611 381.431 255.28 383.046 255.28 384.73Z" fill="#263238"/>
<path d="M251.49 384.65C251.492 385.161 251.342 385.66 251.06 386.086C250.778 386.512 250.376 386.844 249.904 387.041C249.433 387.238 248.914 387.29 248.413 387.192C247.912 387.093 247.451 386.848 247.089 386.488C246.727 386.127 246.481 385.668 246.38 385.167C246.28 384.666 246.331 384.147 246.526 383.675C246.72 383.203 247.051 382.799 247.476 382.516C247.9 382.232 248.399 382.08 248.91 382.08C249.593 382.08 250.247 382.35 250.731 382.832C251.214 383.314 251.487 383.967 251.49 384.65V384.65Z" fill="white"/>
<path d="M481 146.4V342.56C480.997 346.471 479.442 350.221 476.676 352.987C473.911 355.752 470.161 357.307 466.25 357.31H181.54C177.628 357.31 173.876 355.756 171.11 352.99C168.344 350.224 166.79 346.472 166.79 342.56V146.4C166.783 145.633 166.843 144.867 166.97 144.11C167.517 140.639 169.285 137.477 171.956 135.193C174.627 132.908 178.025 131.652 181.54 131.65H466.2C469.713 131.656 473.109 132.914 475.779 135.197C478.449 137.481 480.218 140.64 480.77 144.11C480.908 144.866 480.985 145.632 481 146.4V146.4Z" fill="white" stroke="#263238" stroke-linecap="round" stroke-linejoin="round"/>
<path d="M273.249 108.03H172.159V118.74H273.249V108.03Z" fill="#263238"/>
<path d="M232.58 258.79C232.58 258.79 237.58 278.35 246.21 290.42C257.99 301.42 265.42 302.03 274.41 302.03C283.4 302.03 287.73 297.52 287.73 297.52L289.28 286.87L284.63 270.41C284.63 270.41 268.21 251.69 262.32 246.85C256.43 242.01 243.74 227.49 240.02 208.77C236.3 190.05 230.41 181.34 230.41 181.34C230.41 181.34 228.33 162.92 225.59 163.16C222.85 163.4 219.88 173.63 220.59 180.16C220.59 180.16 213.4 174.93 211.23 172.91C209.06 170.89 200.61 161.13 199.12 162.44C197.63 163.75 202.64 177 210 183.14C210 183.14 204.41 182.31 200.87 178.74C197.33 175.17 190.59 167.8 187.51 169.11C186.666 169.421 185.961 170.023 185.521 170.808C185.081 171.592 184.935 172.508 185.11 173.39C185.11 173.39 181.8 174.39 182.83 179.46C182.83 179.46 179.74 183.98 184.08 190.4C188.42 196.82 196.87 203.4 204.41 206.93C211.95 210.46 215.02 212.64 217.76 218.93C220.5 225.22 232.58 258.79 232.58 258.79Z" fill="white"/>
<path opacity="0.2" d="M289.27 286.87L288.27 293.66L287.71 297.52C287.71 297.52 283.39 302 274.41 302C265.43 302 257.98 301.35 246.21 290.37C237.56 278.3 232.58 258.75 232.58 258.75C232.58 258.75 220.45 225.26 217.72 219C214.99 212.74 211.89 210.56 204.35 207C196.81 203.44 188.35 196.88 184.03 190.46C181.09 186.11 181.55 182.63 182.16 180.84C182.315 180.379 182.519 179.936 182.77 179.52C181.77 174.4 185.06 173.45 185.06 173.45C184.889 172.569 185.036 171.656 185.475 170.874C185.915 170.091 186.619 169.491 187.46 169.18C190.54 167.86 197.28 175.18 200.81 178.8C204.34 182.42 209.95 183.21 209.95 183.21C202.64 177.01 197.62 163.81 199.1 162.51C200.58 161.21 209.04 170.96 211.2 172.98C213.36 175 220.57 180.23 220.57 180.23C219.88 173.7 222.85 163.47 225.57 163.23C228.29 162.99 230.39 181.41 230.39 181.41C230.39 181.41 236.27 190.12 239.98 208.83C243.69 227.54 256.41 242.08 262.29 246.92C268.17 251.76 284.6 270.48 284.6 270.48L289.27 286.87Z" fill="#263238"/>
<path d="M259.16 242.39C259.16 242.39 271.27 225.39 273.29 220.39C275.31 215.39 284.49 200.13 294.4 198.98C300.794 198.144 307.037 196.404 312.94 193.81L365.63 196.87C365.63 196.87 376.75 201.03 386.85 204.87C396.37 208.49 406.97 214.55 407.3 224.03C407.59 232.32 423.4 262.53 434.47 272.03L391 285.25C391 285.25 389.49 297.87 382.77 302.91C382.77 302.91 397.48 337.29 391.42 357.75L271.8 357.32C271.8 357.32 267.11 310.42 287.85 293.97C287.85 293.97 282.45 281.97 282.08 271.45C282.1 271.45 278.43 261.51 259.16 242.39Z" fill="#40B688"/>
<path opacity="0.1" d="M288.28 293.66L283.68 298.54C283.68 298.54 281.78 301.54 273.76 301.78C264.76 302.07 257.98 301.39 246.21 290.41C237.56 278.34 232.58 258.79 232.58 258.79C232.58 258.79 220.45 225.26 217.72 219C214.99 212.74 211.89 210.56 204.35 207C196.81 203.44 188.35 196.88 184.03 190.46C181.09 186.11 181.55 182.63 182.16 180.84C185.76 182.84 190.02 186.36 193.16 188.65C199.36 192.39 203.67 195.29 209.99 198.73C222.53 205.58 229.1 220.16 233.86 234.05C238.62 247.94 242.86 262.85 253.16 272.97C259.117 278.618 266.412 282.658 274.36 284.71C279.08 285.99 284.44 287.07 287.17 291.26C287.653 292.003 288.027 292.811 288.28 293.66V293.66Z" fill="#263238"/>
<path d="M382.791 302.91C383.661 303.21 399.001 337.82 391.441 357.75L324.591 357.32L270.791 356.66C270.791 356.66 267.591 310.29 288.331 293.85C288.331 293.85 282.331 281.85 281.961 271.29C281.961 271.29 278.461 262.29 259.181 243.13C259.181 243.13 271.111 225.13 273.121 220.18C275.131 215.23 283.791 200.47 293.711 199.32C300.11 198.441 306.284 196.351 311.901 193.16L364.591 196.22C368.031 198.215 371.638 199.908 375.371 201.28C378.631 202.47 382.161 203.16 385.641 204.48C398.881 209.48 405.161 215.15 406.261 223.38C407.361 231.61 422.361 261.88 433.421 271.38L389.551 286.48C389.551 286.48 387.741 298.88 382.791 302.91Z" fill="#40B688"/>
<path opacity="0.1" d="M382.79 302.91C382.79 302.91 398.6 332.74 391.44 357.75L324.59 357.32C323.26 353.14 323.26 348.22 323.59 343.85C322.24 341.3 323.24 338.16 323.35 335.24C323.52 330.73 321.45 326.48 319.18 322.65C316.91 318.82 314.31 315.04 313.18 310.65C312.05 306.26 312.91 301.03 316.4 298.34C320.28 295.34 325.67 296.62 330.4 297.72C338.14 299.55 346.18 300.63 353.99 299.16C361.8 297.69 369.37 293.42 373.57 286.43C374.56 284.875 375.239 283.143 375.57 281.33C375.813 279.071 375.685 276.788 375.19 274.57C374.05 267.93 372.66 261.23 373.31 254.52C373.74 250.11 375.04 245.84 375.61 241.44C376.826 232.016 374.615 222.47 369.38 214.54C372.18 210.85 372.89 205.25 375.38 201.41C378.64 202.6 382.33 203.83 385.94 204.75C396.41 207.42 406.2 215.26 407.3 223.48C408.4 231.7 419.73 258.34 433.72 271.84L390.95 284.77C390.95 284.77 389.9 297.92 382.79 302.91Z" fill="black"/>
<path d="M425.94 271.85C425.94 271.85 429.04 268.05 431.94 268.85C431.94 268.85 438.87 278.16 441.79 281.58C444.15 284.35 446.28 290.74 445.64 296.3C445.515 297.38 445.155 298.42 444.585 299.346C444.015 300.272 443.248 301.062 442.34 301.66C438.6 304.13 431.03 308.44 424.11 308.16C414.44 307.78 398.22 300.16 392.57 288.22C386.92 276.28 385.64 260.69 385.64 260.69C385.64 260.69 378.17 252.52 379.26 244.55C380.35 236.58 385.33 225.7 386.49 222.55C387.65 219.4 389.1 215.07 391.11 215.64C393.12 216.21 395.77 223.25 391.76 235.03C391.76 235.03 395.12 235.03 397.67 230.83C400.22 226.63 408.1 208.11 413.04 213.83C413.04 213.83 417.58 210.68 419.49 213.77C419.49 213.77 422.91 211.5 423.01 214.47C423.16 218.85 421.72 229.33 421.72 229.33C421.72 229.33 425.34 226.61 425.34 232.69C425.34 238.77 423.24 249.76 415.41 256.41C415.42 256.44 419.56 266.54 425.94 271.85Z" fill="white"/>
<path opacity="0.2" d="M445.65 296.26C445.525 297.35 445.161 298.4 444.583 299.333C444.006 300.266 443.23 301.061 442.31 301.66C438.79 303.97 431.94 307.87 425.42 308.12H424.12C414.46 307.75 398.23 300.12 392.58 288.19C386.93 276.26 385.65 260.65 385.65 260.65C385.65 260.65 378.18 252.48 379.26 244.5C380.34 236.52 385.34 225.67 386.5 222.55C387.66 219.43 389.11 215.07 391.12 215.65C393.13 216.23 395.79 223.25 391.77 235.03C391.77 235.03 395.12 235.03 397.68 230.83C400.24 226.63 408.12 208.1 413.05 213.83C413.05 213.83 417.59 210.68 419.5 213.77C419.5 213.77 422.91 211.5 423.02 214.47C423.17 218.33 422.02 226.94 421.78 228.92C421.78 229.18 421.78 229.32 421.78 229.32C421.78 229.32 425.4 226.6 425.4 232.68C425.4 238.76 423.31 249.75 415.46 256.39C415.46 256.39 419.61 266.5 425.99 271.82C425.99 271.82 428.18 268.64 431.18 268.68C431.18 268.68 438.93 278.08 441.85 281.5C444.16 284.3 446.29 290.7 445.65 296.26Z" fill="#263238"/>
<path d="M355.82 150L367.07 137.72L366.53 122.1L356.62 114.84L306.27 96.47L285.11 132.18C285.11 132.18 292.34 175.98 298.5 180.18C304.66 184.38 304.13 196.92 304.13 196.92C304.13 196.92 312.21 228.13 340.33 230.36C366.33 232.08 375.24 201.36 375.24 201.36C375.24 201.36 359.8 195.89 356.59 187.24C353.38 178.59 355.82 150 355.82 150Z" fill="white"/>
<path opacity="0.2" d="M375.47 201.41C375.47 201.41 373.69 205.41 371.2 210.49C366.88 219.35 357.81 231.27 340.51 230.4C312.37 228.17 304.14 196.53 304.14 196.53C304.14 196.53 304.69 183.97 298.53 179.79C292.37 175.61 285.13 131.79 285.13 131.79L306.29 96.08L327.37 103.78L356.64 114.5L366.56 121.74L367.09 137.38L355.83 149.65C355.83 149.65 359.28 177.31 357.98 186.48C356.78 194.89 375.47 201.41 375.47 201.41Z" fill="#263238"/>
<path opacity="0.1" d="M375.3 201.48C375.3 201.48 373.69 205.38 371.2 210.48L370.2 212.39C352.92 199.9 344.83 180.62 344.11 158.66C344.03 156.43 345.95 128.77 346.85 128.79C320.85 128.39 305.37 102.96 305.37 102.96L327.37 103.78L356.64 114.5L366.56 121.74L367.09 137.38L355.83 149.65C355.83 149.65 356.05 177.43 357.98 186.48C359.72 194.73 375.3 201.48 375.3 201.48Z" fill="#263238"/>
<path d="M348.23 130.89C348.23 130.89 351.89 121.02 359.41 122.89C366.93 124.76 363.41 144.95 356.76 146.89C350.11 148.83 349.65 142.89 349.65 142.89" stroke="#263238" stroke-width="0.979779" stroke-linecap="round" stroke-linejoin="round"/>
<path d="M313.261 132.73C313.261 132.53 313.261 132.33 313.261 132.12C313.381 134.4 313.891 136.64 313.911 138.92C313.931 141.2 313.381 143.62 311.761 145.16C310.701 146.16 309.121 146.91 308.901 148.4C308.859 149.216 309.068 150.026 309.501 150.72C310.045 151.879 310.813 152.919 311.761 153.78C312.23 154.191 312.785 154.494 313.384 154.667C313.984 154.84 314.614 154.878 315.231 154.78" stroke="#263238" stroke-width="0.979779" stroke-linecap="round" stroke-linejoin="round"/>
<path d="M312.771 164C312.771 164 328.491 160.58 332.081 149.42C332.081 149.42 334.611 161.28 327.491 166.23C319.501 171.77 312.771 164 312.771 164Z" fill="white" stroke="#263238" stroke-width="0.979779" stroke-linecap="round" stroke-linejoin="round"/>
<path d="M290 120.57C291.8 134.83 293.18 149.03 297.51 162.8C300.51 172.26 306.96 181.57 317.7 180.95C330.7 180.19 340.61 177.95 349.12 167.45" stroke="#263238" stroke-width="0.979779" stroke-linecap="round" stroke-linejoin="round"/>
<path d="M319.891 124.72C319.891 124.72 324.601 120.02 330.601 124.47" stroke="#263238" stroke-width="0.979779" stroke-linecap="round" stroke-linejoin="round"/>
<path d="M306.74 126.39C304.39 125.39 300.42 124.85 296.74 129.97" stroke="#263238" stroke-width="0.979779" stroke-linecap="round" stroke-linejoin="round"/>
<path d="M320.82 180.67C320.82 180.67 321.34 195.56 316.82 197.92C312.3 200.28 294.35 194.77 284.75 204.24C275.15 213.71 264.38 238.83 259.08 242.51" stroke="#263238" stroke-width="0.979779" stroke-linecap="round" stroke-linejoin="round"/>
<path d="M326.85 135.23C326.85 137.36 326.09 139.09 325.14 139.09C324.19 139.09 323.42 137.36 323.42 135.23C323.42 133.1 324.19 131.36 325.14 131.36C326.09 131.36 326.85 133.09 326.85 135.23Z" fill="#263238"/>
<path d="M304.861 137.34C304.861 139.47 304.101 141.2 303.151 141.2C302.201 141.2 301.431 139.47 301.431 137.34C301.431 135.21 302.201 133.48 303.151 133.48C304.101 133.48 304.861 135.2 304.861 137.34Z" fill="#263238"/>
<path d="M291.21 126.52C291.21 126.52 298.09 124.72 305.62 103C305.62 103 326.95 130.59 349.87 127.08C349.87 127.08 356.23 119.35 361.8 125.08C366.47 129.88 361.8 145.08 357.91 146.47C354.02 147.86 352.7 146.55 352.7 146.55C352.7 146.55 341.7 167.47 352.62 185.15C363.54 202.83 386.55 193.31 393.95 179.71C401.35 166.11 394.17 155.24 394.17 155.24C394.17 155.24 399.39 157.5 399.6 164.53C399.6 164.53 403.96 156.82 397.43 145.95C390.9 135.08 383.83 124.18 377.24 113.16C370.86 102.51 366.11 88.37 354.3 82.67C340.48 76.01 323.22 77.84 309.41 83.46C298 88.12 292.17 99.24 287.6 110.57C284.36 118.57 282.52 127.2 279.1 135.17C276.1 142.17 270.77 147.62 267.73 154.63C259.57 173.43 267.12 195.38 284.51 204.23C284.51 204.23 286.05 200.35 293.23 199.67C300.41 198.99 301.93 198.31 308.67 198.54C315.41 198.77 317.59 198.09 319.11 194.01C320.63 189.93 321.11 181.06 321.11 181.06C321.11 181.06 312.3 183 306 177.48C299.73 170 297.49 166 296 156.75C294.51 147.5 291.21 126.52 291.21 126.52Z" fill="#263238"/>
<path d="M321.111 181.06C321.111 181.06 319.821 189.61 329.111 187.13C338.401 184.65 348.511 168.69 348.511 168.69C348.511 168.69 337.281 179.76 321.111 181.06Z" fill="#263238"/>
<path d="M271.22 357.16C271.22 357.16 264.78 315.42 288.17 293.72" stroke="#263238" stroke-width="0.979779" stroke-linecap="round" stroke-linejoin="round"/>
<path d="M289.4 295.09C281.18 282.33 278.1 260.37 290.04 248.87" stroke="#263238" stroke-width="0.979779" stroke-linecap="round" stroke-linejoin="round"/>
<path d="M349.521 172.59C349.521 172.59 351.521 194.59 377.851 202.1C398.961 208.1 403.771 214.92 405.111 217.59" stroke="#263238" stroke-width="0.979779" stroke-linecap="round" stroke-linejoin="round"/>
<path d="M304.641 198C304.641 198 315.331 230.42 343.821 230.85C364.621 231.17 375.351 201.74 375.351 201.74" stroke="#263238" stroke-width="0.979779" stroke-linecap="round" stroke-linejoin="round"/>
<path d="M307.74 298C322.61 304.38 339.11 304.89 355.19 305.3" stroke="#263238" stroke-width="0.979779" stroke-linecap="round" stroke-linejoin="round"/>
<path d="M282.921 299.52C281.461 300.62 278.511 301.15 277.811 301.27C264.651 303.48 252.351 299.13 244.291 287.89C239.801 281.63 237.591 274.56 235.221 267.21C229.971 250.93 224.481 234.84 218.221 218.96C218.221 218.96 216.421 214.88 214.501 213.28C211.091 210.45 204.501 205.79 199.441 204.34C192.201 202.26 179.201 186.34 181.441 181.95C183.681 177.56 195.441 192.62 200.441 193.95" stroke="#263238" stroke-width="0.979779" stroke-linecap="round" stroke-linejoin="round"/>
<path d="M286.09 239.62C286.09 239.62 284.82 226.12 289.4 214.2" stroke="#263238" stroke-width="0.979779" stroke-linecap="round" stroke-linejoin="round"/>
<g opacity="0.42">
<path d="M318.431 92.92C318.431 92.92 330.221 113.38 350.851 115.43" stroke="white" stroke-width="0.979779" stroke-linecap="round" stroke-linejoin="round"/>
<path d="M362.67 148.19C360.232 161.781 362.197 175.795 368.28 188.19" stroke="white" stroke-width="0.979779" stroke-linecap="round" stroke-linejoin="round"/>
<path d="M357.771 107.17C364.471 113.29 370.961 119.8 374.171 128.34C377.171 136.27 376.931 145.05 377.171 153.57C377.411 162.09 378.211 171 382.871 178" stroke="white" stroke-width="0.979779" stroke-linecap="round" stroke-linejoin="round"/>
<path d="M336.271 86.59C340.937 91.4567 345.757 96.1867 350.731 100.78" stroke="white" stroke-width="0.979779" stroke-linecap="round" stroke-linejoin="round"/>
<path d="M287.75 142.57C280.896 155.057 279.254 169.747 283.18 183.44" stroke="white" stroke-width="0.979779" stroke-linecap="round" stroke-linejoin="round"/>
</g>
<path d="M206.11 205C206.11 205 235.81 160.16 232.66 157.44C229.51 154.72 200 202 200 202C200 202 192.12 203.52 188.73 206.84C185.34 210.16 177.4 230.84 178.41 231.53C179.42 232.22 189.5 215.05 190.41 215.27C191.32 215.49 184.81 235.86 185.73 236.09C186.65 236.32 197.27 218.33 198.73 218.89C200.19 219.45 191.88 239.13 193.26 239.47C194.64 239.81 207.12 221.83 207.33 217.93C207.54 214.03 206.11 205 206.11 205Z" fill="white" stroke="#263238" stroke-width="0.979779" stroke-linecap="round" stroke-linejoin="round"/>
<path d="M359.051 231.16C361.131 229.586 362.956 227.7 364.461 225.57" stroke="#263238" stroke-width="0.979779" stroke-linecap="round" stroke-linejoin="round"/>
<path d="M334.63 234.09C334.63 234.09 344.26 237.86 353.87 234.09" stroke="#263238" stroke-width="0.979779" stroke-linecap="round" stroke-linejoin="round"/>
<path d="M405.66 240.61C405.66 240.61 398.41 235.49 390.66 236.71C390.66 236.71 396.74 217.21 392.06 215.71C388.88 214.71 387.25 220.35 386.47 222.51C384.95 226.73 383.1 230.68 381.47 234.85C378.47 242.48 379.01 253.32 385.28 259.1" stroke="#263238" stroke-width="0.979779" stroke-linecap="round" stroke-linejoin="round"/>
<path d="M414 257.38C417.37 254.38 420.86 251.21 422.66 246.98C423.58 244.605 424.188 242.121 424.47 239.59C424.84 237.11 425.15 234.59 425.42 232.13C425.527 231.69 425.539 231.232 425.455 230.787C425.37 230.342 425.191 229.92 424.93 229.55C424.643 229.3 424.287 229.142 423.909 229.097C423.53 229.052 423.147 229.123 422.81 229.3C422.135 229.676 421.559 230.207 421.13 230.85C419.832 232.585 418.82 234.516 418.13 236.57C417.39 238.72 417 241.04 415.82 242.96C415.72 243.13 415.61 243.29 415.5 243.45" stroke="#263238" stroke-width="0.979779" stroke-linecap="round" stroke-linejoin="round"/>
<path d="M420.49 231.55C422.49 225.79 423.06 219.19 423.05 213.07C422.362 212.971 421.66 213.047 421.008 213.29C420.357 213.533 419.776 213.935 419.32 214.46C418.386 215.529 417.642 216.75 417.12 218.07C414.34 224.22 412.05 230.67 408.82 236.54" stroke="#263238" stroke-width="0.979779" stroke-linecap="round" stroke-linejoin="round"/>
<path d="M419.82 213.45C419.28 211.96 417.32 211.52 415.92 212.16C414.562 212.951 413.477 214.137 412.81 215.56C409.39 221.5 407.34 228.2 404.17 234.27" stroke="#263238" stroke-width="0.979779" stroke-linecap="round" stroke-linejoin="round"/>
<path d="M413.13 214.82C413.41 213.41 411.79 212.22 410.42 212.46C409.051 212.857 407.885 213.762 407.16 214.99C404.37 218.8 402.61 223.3 400.16 227.34C397.71 231.38 395.53 234.67 391.03 235.61" stroke="#263238" stroke-width="0.979779" stroke-linecap="round" stroke-linejoin="round"/>
<path d="M385.261 258.16C385.261 258.16 387.961 274.16 390.381 282.89C392.741 291.36 411.941 319.23 442.021 302.4C442.971 301.862 443.793 301.122 444.427 300.232C445.061 299.342 445.492 298.324 445.691 297.25C446.149 294.76 446.096 292.204 445.535 289.735C444.975 287.267 443.919 284.938 442.431 282.89C435.961 273.61 422.481 260.41 419.511 251.98" stroke="#263238" stroke-width="0.979779" stroke-linecap="round" stroke-linejoin="round"/>
<path d="M415.09 256.83C416.432 260.447 418.414 263.794 420.94 266.71C423.99 270.21 427.74 272.96 431 276.26C434.26 279.56 437.1 283.65 437.55 288.36" stroke="#263238" stroke-width="0.979779" stroke-linecap="round" stroke-linejoin="round"/>
<path d="M390.78 284.94C390.78 284.94 390.06 301.16 377.78 306.06" stroke="#263238" stroke-width="0.979779" stroke-linecap="round" stroke-linejoin="round"/>
<path d="M382.79 302.91C382.79 302.91 398.68 330.22 391.44 357.75" stroke="#263238" stroke-width="0.979779" stroke-linecap="round" stroke-linejoin="round"/>
<path d="M183.081 180.48C183.081 180.48 181.311 175.63 184.081 173.8C186.851 171.97 200.821 187.08 204.571 186.8" stroke="#263238" stroke-width="0.979779" stroke-linecap="round" stroke-linejoin="round"/>
<path d="M185.22 173.78C184.956 173.027 184.978 172.203 185.283 171.466C185.587 170.728 186.152 170.128 186.87 169.78C187.597 169.488 188.384 169.376 189.164 169.453C189.944 169.529 190.694 169.792 191.35 170.22C192.678 171.09 193.874 172.148 194.9 173.36C199.63 178.36 204.4 182.71 211.12 183.43" stroke="#263238" stroke-width="0.979779" stroke-linecap="round" stroke-linejoin="round"/>
<path d="M210.45 183.12C210.45 183.12 197.65 170.73 198.55 163.95C199.45 157.17 207.96 173.95 216.26 177.27" stroke="#263238" stroke-width="0.979779" stroke-linecap="round" stroke-linejoin="round"/>
<path d="M231 183.63C230.54 182.15 229.91 180.51 229.57 178.92C229.03 176.36 228.76 173.74 228.43 171.14C228.2 169.33 227.8 161.86 224.43 163.96C219.11 167.29 220.71 186.13 220.71 186.13C214.33 190.01 213 199.13 213 199.13" fill="white"/>
<path opacity="0.2" d="M231 183.7C230.367 182.13 229.888 180.502 229.57 178.84C229.03 176.27 228.76 173.65 228.43 171.05C228.2 169.24 227.8 161.77 224.43 163.87C219.11 167.2 220.71 186.04 220.71 186.04C214.33 189.92 213 199.04 213 199.04" fill="#263238"/>
<path d="M231.09 182.7C230.431 181.319 229.921 179.87 229.57 178.38C229.02 175.82 228.76 173.2 228.42 170.6C228.19 168.79 227.8 161.32 224.42 163.42C219.1 166.75 220.69 185.59 220.69 185.59C214.31 189.47 212.98 198.59 212.98 198.59" stroke="#263238" stroke-width="0.979779" stroke-linecap="round" stroke-linejoin="round"/>
<path d="M281.711 270.13C279.161 260.82 253.001 242 244.511 222.69C242.151 217.32 240.871 211.38 239.291 205.74C237.318 198.877 234.981 192.124 232.291 185.51C231.901 184.51 231.471 183.61 231.061 182.7" stroke="#263238" stroke-width="0.979779" stroke-linecap="round" stroke-linejoin="round"/>
<path opacity="0.1" d="M442.311 301.66C438.791 303.97 431.941 307.87 425.421 308.12C423.433 306.865 421.533 305.479 419.731 303.97C408.311 294.43 400.301 279.68 401.041 264.45C401.055 261.123 401.934 257.856 403.591 254.97C406.361 250.62 411.351 248.62 414.381 244.54C417.841 239.87 417.821 233.54 421.781 228.96C421.781 229.22 421.781 229.36 421.781 229.36C421.781 229.36 425.4 226.64 425.4 232.72C425.4 238.8 423.31 249.79 415.46 256.43C415.46 256.43 419.61 266.54 425.99 271.86C427.212 270.185 429.018 269.028 431.05 268.62C431.05 268.62 438.931 278.12 441.851 281.54C444.211 284.3 446.341 290.7 445.701 296.26C445.57 297.355 445.198 298.407 444.611 299.34C444.025 300.274 443.239 301.066 442.311 301.66Z" fill="#263238"/>
<path opacity="0.1" d="M269.21 254.26C269.21 253.56 282.93 238.99 286.49 223.67C286.49 223.67 286.15 238.83 285.96 241.33C285.96 241.33 285.96 241.87 285.96 242.05C286.25 250.27 287.08 251.71 287.08 251.71C287.08 251.71 281.95 263.55 281.95 267.96L269.21 254.26Z" fill="black"/>
<path d="M344.38 357.49C346.2 352.08 347.75 322.6 343.86 318C339.97 313.4 267.13 311.48 264.94 318.55C262.27 327.19 266.67 357.44 266.67 357.44L344.38 357.49Z" fill="#263238"/>
<path d="M343.88 331.43C345.009 330.125 346.514 329.203 348.188 328.789C349.863 328.375 351.624 328.491 353.23 329.12C356.9 330.6 357.23 335.77 356.23 339.21C354.7 344.57 349.91 352.05 343.73 351.21" stroke="#263238" stroke-width="2.93934" stroke-linecap="round" stroke-linejoin="round"/>
<path d="M302.001 313.61C303.32 312.232 304.039 310.387 304.001 308.48C304.081 306.14 303.529 303.822 302.401 301.77C301.88 300.847 301.281 299.971 300.611 299.15C299.911 298.26 299.171 297.4 298.401 296.57C298.311 296.47 298.141 296.47 298.081 296.35C298.021 296.23 298.301 296.23 298.201 296.3" stroke="#263238" stroke-width="0.979779" stroke-linecap="round" stroke-linejoin="round"/>
<path d="M320.15 286.07C323.13 283.861 325.458 280.886 326.885 277.462C328.313 274.038 328.788 270.292 328.26 266.62" stroke="#263238" stroke-width="0.979779" stroke-linecap="round" stroke-linejoin="round"/>
<path d="M326.75 255.39C326.75 255.39 323.89 247.39 317.75 243.71" stroke="#263238" stroke-width="0.979779" stroke-linecap="round" stroke-linejoin="round"/>
<path opacity="0.2" d="M344.571 357.59C346.381 352.18 347.941 322.7 344.051 318.1C340.161 313.5 267.321 311.58 265.131 318.64C262.451 327.28 266.861 357.54 266.861 357.54L344.571 357.59Z" fill="white"/>
<path d="M344.38 357.49C346.2 352.08 347.75 322.6 343.86 318C339.97 313.4 267.13 311.48 264.94 318.55C262.27 327.19 266.67 357.44 266.67 357.44L344.38 357.49Z" stroke="#263238" stroke-width="0.979779" stroke-linecap="round" stroke-linejoin="round"/>
<path d="M339.8 318.4C339.8 319 323.88 319.49 304.25 319.49C284.62 319.49 268.7 319 268.7 318.4C268.7 317.8 284.61 317.31 304.25 317.31C323.89 317.31 339.8 317.8 339.8 318.4Z" fill="#263238"/>
<path d="M316.351 255.89C317.871 256.748 319.151 257.974 320.073 259.456C320.996 260.938 321.531 262.627 321.631 264.37C321.72 266.117 321.376 267.859 320.627 269.44C319.878 271.021 318.749 272.392 317.341 273.43C313.671 276.01 308.891 275.73 304.501 276.35C300.111 276.97 295.141 279.48 294.671 284.07C294.584 286.421 295.339 288.726 296.801 290.57C298.971 293.68 301.941 296.08 304.591 298.76C307.241 301.44 309.681 304.63 310.331 308.41C310.981 312.19 309.331 316.65 305.801 317.91C307.981 317.91 310.211 318.12 312.391 318.12C316.691 318.12 318.231 311.23 317.821 306.77C317.556 304.566 316.856 302.436 315.76 300.504C314.665 298.573 313.197 296.879 311.441 295.52C309.721 294.13 307.741 293.01 306.371 291.24C305.001 289.47 304.441 286.72 305.831 284.97C307.571 282.79 310.831 283.52 313.571 283.33C319.281 282.93 323.851 277.21 324.161 271.26C324.471 265.31 321.001 259.38 316.351 255.89Z" fill="white" stroke="#263238" stroke-width="0.979779" stroke-linecap="round" stroke-linejoin="round"/>
<path d="M612.54 135.94H550.22V142.13H612.54V135.94Z" fill="#263238"/>
<path d="M612.54 147.91H550.22V154.1H612.54V147.91Z" fill="#263238"/>
<path d="M612.54 159.88H550.22V166.07H612.54V159.88Z" fill="#263238"/>
<path opacity="0.1" d="M525.41 124.27H434.05C429.129 124.27 425.14 128.259 425.14 133.18V183.67C425.14 188.591 429.129 192.58 434.05 192.58H525.41C530.33 192.58 534.32 188.591 534.32 183.67V133.18C534.32 128.259 530.33 124.27 525.41 124.27Z" fill="black"/>
<path d="M532.679 119.01H441.319C436.398 119.01 432.409 122.999 432.409 127.92V178.41C432.409 183.331 436.398 187.32 441.319 187.32H532.679C537.6 187.32 541.589 183.331 541.589 178.41V127.92C541.589 122.999 537.6 119.01 532.679 119.01Z" fill="#40B688" stroke="#263238" stroke-miterlimit="10"/>
<path d="M487.049 176.59C499.813 176.59 510.159 166.243 510.159 153.48C510.159 140.717 499.813 130.37 487.049 130.37C474.286 130.37 463.939 140.717 463.939 153.48C463.939 166.243 474.286 176.59 487.049 176.59Z" fill="white"/>
<path d="M480.489 166.83V141.31L500.769 154.07L480.489 166.83Z" fill="#263238"/>
<path d="M612.54 226.38H550.22V232.57H612.54V226.38Z" fill="#263238"/>
<path d="M612.54 238.34H550.22V244.53H612.54V238.34Z" fill="#263238"/>
<path d="M612.54 250.31H550.22V256.5H612.54V250.31Z" fill="#263238"/>
<path opacity="0.1" d="M525.41 212.91H434.05C429.129 212.91 425.14 216.899 425.14 221.82V272.31C425.14 277.231 429.129 281.22 434.05 281.22H525.41C530.33 281.22 534.32 277.231 534.32 272.31V221.82C534.32 216.899 530.33 212.91 525.41 212.91Z" fill="black"/>
<path d="M532.679 208.03H441.319C436.398 208.03 432.409 212.019 432.409 216.94V267.43C432.409 272.351 436.398 276.34 441.319 276.34H532.679C537.6 276.34 541.589 272.351 541.589 267.43V216.94C541.589 212.019 537.6 208.03 532.679 208.03Z" fill="#40B688" stroke="#263238" stroke-miterlimit="10"/>
<path d="M495.768 264.125C507.587 259.308 513.265 245.822 508.448 234.003C503.632 222.183 490.146 216.506 478.326 221.322C466.507 226.138 460.829 239.624 465.646 251.444C470.462 263.264 483.948 268.941 495.768 264.125Z" fill="white"/>
<path d="M480.489 256.08V230.56L500.769 243.32L480.489 256.08Z" fill="#263238"/>
<path d="M612.54 314.73H550.22V320.92H612.54V314.73Z" fill="#263238"/>
<path d="M612.54 326.7H550.22V332.89H612.54V326.7Z" fill="#263238"/>
<path d="M612.54 338.67H550.22V344.86H612.54V338.67Z" fill="#263238"/>
<path opacity="0.1" d="M525.41 301.03H434.05C429.129 301.03 425.14 305.019 425.14 309.94V360.43C425.14 365.351 429.129 369.34 434.05 369.34H525.41C530.33 369.34 534.32 365.351 534.32 360.43V309.94C534.32 305.019 530.33 301.03 525.41 301.03Z" fill="black"/>
<path d="M532.679 297.06H441.319C436.398 297.06 432.409 301.049 432.409 305.97V356.46C432.409 361.381 436.398 365.37 441.319 365.37H532.679C537.6 365.37 541.589 361.381 541.589 356.46V305.97C541.589 301.049 537.6 297.06 532.679 297.06Z" fill="#40B688" stroke="#263238" stroke-miterlimit="10"/>
<path d="M495.82 353.392C507.626 348.543 513.266 335.041 508.416 323.235C503.567 311.428 490.065 305.789 478.259 310.638C466.453 315.487 460.813 328.989 465.662 340.796C470.512 352.602 484.013 358.241 495.82 353.392Z" fill="white"/>
<path d="M480.489 345.34V319.81L500.769 332.57L480.489 345.34Z" fill="#263238"/>
</svg>
