<svg width="502" height="76" viewBox="0 0 502 76" fill="none" xmlns="http://www.w3.org/2000/svg">
<path d="M0.886364 4.18182H16.3636L37.0909 54.7727H37.9091L58.6364 4.18182H74.1136V74H61.9773V26.0341H61.3295L42.0341 73.7955H32.9659L13.6705 25.9318H13.0227V74H0.886364V4.18182ZM111.755 75.0227C106.505 75.0227 101.971 73.9318 98.1528 71.75C94.3574 69.5455 91.4369 66.4318 89.3915 62.4091C87.346 58.3636 86.3233 53.6023 86.3233 48.125C86.3233 42.7386 87.346 38.0114 89.3915 33.9432C91.4596 29.8523 94.346 26.6705 98.0506 24.3977C101.755 22.1023 106.107 20.9545 111.107 20.9545C114.335 20.9545 117.38 21.4773 120.244 22.5227C123.13 23.5455 125.676 25.1364 127.88 27.2955C130.107 29.4545 131.857 32.2045 133.13 35.5455C134.403 38.8636 135.039 42.8182 135.039 47.4091V51.1932H92.1187V42.875H123.21C123.187 40.5114 122.676 38.4091 121.676 36.5682C120.676 34.7045 119.278 33.2386 117.482 32.1705C115.71 31.1023 113.641 30.5682 111.278 30.5682C108.755 30.5682 106.539 31.1818 104.63 32.4091C102.721 33.6136 101.232 35.2045 100.164 37.1818C99.1187 39.1364 98.5846 41.2841 98.5619 43.625V50.8864C98.5619 53.9318 99.1187 56.5455 100.232 58.7273C101.346 60.8864 102.903 62.5455 104.903 63.7045C106.903 64.8409 109.244 65.4091 111.926 65.4091C113.721 65.4091 115.346 65.1591 116.801 64.6591C118.255 64.1364 119.516 63.375 120.585 62.375C121.653 61.375 122.46 60.1364 123.005 58.6591L134.528 59.9545C133.801 63 132.414 65.6591 130.369 67.9318C128.346 70.1818 125.755 71.9318 122.596 73.1818C119.437 74.4091 115.823 75.0227 111.755 75.0227ZM166.144 74.9205C162.03 74.9205 158.348 73.8636 155.098 71.75C151.848 69.6364 149.28 66.5682 147.394 62.5455C145.507 58.5227 144.564 53.6364 144.564 47.8864C144.564 42.0682 145.519 37.1591 147.428 33.1591C149.36 29.1364 151.962 26.1023 155.235 24.0568C158.507 21.9886 162.155 20.9545 166.178 20.9545C169.246 20.9545 171.769 21.4773 173.746 22.5227C175.723 23.5455 177.291 24.7841 178.451 26.2386C179.61 27.6705 180.507 29.0227 181.144 30.2955H181.655V4.18182H194.03V74H181.894V65.75H181.144C180.507 67.0227 179.587 68.375 178.382 69.8068C177.178 71.2159 175.587 72.4205 173.61 73.4205C171.632 74.4205 169.144 74.9205 166.144 74.9205ZM169.587 64.7955C172.201 64.7955 174.428 64.0909 176.269 62.6818C178.11 61.25 179.507 59.2614 180.462 56.7159C181.416 54.1705 181.894 51.2045 181.894 47.8182C181.894 44.4318 181.416 41.4886 180.462 38.9886C179.53 36.4886 178.144 34.5455 176.303 33.1591C174.485 31.7727 172.246 31.0795 169.587 31.0795C166.837 31.0795 164.541 31.7955 162.701 33.2273C160.86 34.6591 159.473 36.6364 158.541 39.1591C157.61 41.6818 157.144 44.5682 157.144 47.8182C157.144 51.0909 157.61 54.0114 158.541 56.5795C159.496 59.125 160.894 61.1364 162.735 62.6136C164.598 64.0682 166.882 64.7955 169.587 64.7955ZM208.413 74V21.6364H220.754V74H208.413ZM214.618 14.2045C212.663 14.2045 210.981 13.5568 209.572 12.2614C208.163 10.9432 207.458 9.36363 207.458 7.52272C207.458 5.65909 208.163 4.07954 209.572 2.78409C210.981 1.46591 212.663 0.806816 214.618 0.806816C216.595 0.806816 218.277 1.46591 219.663 2.78409C221.072 4.07954 221.777 5.65909 221.777 7.52272C221.777 9.36363 221.072 10.9432 219.663 12.2614C218.277 13.5568 216.595 14.2045 214.618 14.2045ZM249.745 75.0568C246.427 75.0568 243.438 74.4659 240.779 73.2841C238.143 72.0795 236.052 70.3068 234.506 67.9659C232.983 65.625 232.222 62.7386 232.222 59.3068C232.222 56.3523 232.768 53.9091 233.858 51.9773C234.949 50.0455 236.438 48.5 238.324 47.3409C240.211 46.1818 242.336 45.3068 244.699 44.7159C247.086 44.1023 249.552 43.6591 252.097 43.3864C255.165 43.0682 257.654 42.7841 259.563 42.5341C261.472 42.2614 262.858 41.8523 263.722 41.3068C264.608 40.7386 265.052 39.8636 265.052 38.6818V38.4773C265.052 35.9091 264.29 33.9205 262.768 32.5114C261.245 31.1023 259.052 30.3977 256.188 30.3977C253.165 30.3977 250.768 31.0568 248.995 32.375C247.245 33.6932 246.063 35.25 245.449 37.0455L233.927 35.4091C234.836 32.2273 236.336 29.5682 238.427 27.4318C240.518 25.2727 243.074 23.6591 246.097 22.5909C249.12 21.5 252.461 20.9545 256.12 20.9545C258.643 20.9545 261.154 21.25 263.654 21.8409C266.154 22.4318 268.438 23.4091 270.506 24.7727C272.574 26.1136 274.233 27.9432 275.483 30.2614C276.756 32.5795 277.393 35.4773 277.393 38.9545V74H265.529V66.8068H265.12C264.37 68.2614 263.313 69.625 261.949 70.8977C260.608 72.1477 258.915 73.1591 256.87 73.9318C254.847 74.6818 252.472 75.0568 249.745 75.0568ZM252.949 65.9886C255.427 65.9886 257.574 65.5 259.393 64.5227C261.211 63.5227 262.608 62.2045 263.586 60.5682C264.586 58.9318 265.086 57.1477 265.086 55.2159V49.0455C264.699 49.3636 264.04 49.6591 263.108 49.9318C262.199 50.2045 261.177 50.4432 260.04 50.6477C258.904 50.8523 257.779 51.0341 256.665 51.1932C255.552 51.3523 254.586 51.4886 253.768 51.6023C251.927 51.8523 250.279 52.2614 248.824 52.8295C247.37 53.3977 246.222 54.1932 245.381 55.2159C244.54 56.2159 244.12 57.5114 244.12 59.1023C244.12 61.375 244.949 63.0909 246.608 64.25C248.268 65.4091 250.381 65.9886 252.949 65.9886ZM324.821 74.48C319.829 74.48 315.189 73.648 310.901 71.984C306.677 70.256 302.997 67.856 299.861 64.784C296.725 61.712 294.293 58.128 292.565 54.032C290.837 49.872 289.973 45.328 289.973 40.4C289.973 35.472 290.837 30.96 292.565 26.864C294.293 22.704 296.725 19.088 299.861 16.016C303.061 12.944 306.773 10.576 310.997 8.912C315.221 7.184 319.829 6.32 324.821 6.32C329.557 6.32 333.973 7.088 338.069 8.62399C342.229 10.16 345.781 12.496 348.725 15.632L345.653 18.8C342.773 15.984 339.573 13.968 336.053 12.752C332.597 11.472 328.917 10.832 325.013 10.832C320.725 10.832 316.725 11.568 313.013 13.04C309.365 14.512 306.165 16.592 303.413 19.28C300.725 21.968 298.613 25.104 297.077 28.688C295.605 32.272 294.869 36.176 294.869 40.4C294.869 44.624 295.605 48.528 297.077 52.112C298.613 55.696 300.725 58.832 303.413 61.52C306.165 64.208 309.365 66.288 313.013 67.76C316.725 69.232 320.725 69.968 325.013 69.968C328.917 69.968 332.597 69.36 336.053 68.144C339.573 66.864 342.773 64.784 345.653 61.904L348.725 65.072C345.781 68.208 342.229 70.576 338.069 72.176C333.973 73.712 329.557 74.48 324.821 74.48ZM366.356 74V6.8H370.484L401.684 60.656H399.476L430.58 6.8H434.612L434.708 74H429.908L429.812 14.192H431.156L401.684 65.072H399.284L369.716 14.192H371.156V74H366.356ZM477.034 74.48C472.042 74.48 467.306 73.648 462.826 71.984C458.41 70.256 454.986 68.048 452.554 65.36L454.762 61.712C457.066 64.08 460.202 66.096 464.17 67.76C468.202 69.36 472.458 70.16 476.938 70.16C481.418 70.16 485.066 69.584 487.882 68.432C490.762 67.216 492.874 65.616 494.218 63.632C495.626 61.648 496.33 59.44 496.33 57.008C496.33 54.128 495.562 51.824 494.026 50.096C492.49 48.368 490.474 46.992 487.978 45.968C485.482 44.944 482.762 44.08 479.818 43.376C476.874 42.672 473.898 41.936 470.89 41.168C467.882 40.336 465.13 39.28 462.634 38C460.138 36.72 458.122 34.992 456.586 32.816C455.114 30.576 454.378 27.696 454.378 24.176C454.378 20.976 455.21 18.032 456.874 15.344C458.538 12.656 461.13 10.48 464.65 8.816C468.17 7.152 472.682 6.32 478.186 6.32C481.898 6.32 485.546 6.864 489.13 7.952C492.778 9.04 495.882 10.512 498.442 12.368L496.618 16.304C493.802 14.384 490.762 12.976 487.498 12.08C484.298 11.12 481.194 10.64 478.186 10.64C473.898 10.64 470.346 11.248 467.53 12.464C464.714 13.68 462.634 15.312 461.29 17.36C459.946 19.344 459.274 21.584 459.274 24.08C459.274 26.96 460.01 29.264 461.482 30.992C463.018 32.72 465.034 34.096 467.53 35.12C470.026 36.144 472.778 37.008 475.786 37.712C478.794 38.416 481.77 39.184 484.714 40.016C487.658 40.784 490.378 41.808 492.874 43.088C495.37 44.368 497.386 46.096 498.922 48.272C500.458 50.448 501.226 53.264 501.226 56.72C501.226 59.856 500.362 62.8 498.634 65.552C496.906 68.24 494.25 70.416 490.666 72.08C487.146 73.68 482.602 74.48 477.034 74.48Z" fill="#058454"/>
</svg>
